<svg xmlns="http://www.w3.org/2000/svg" width="96" height="96" viewBox="0 0 96 96"><g fill="none" fill-rule="evenodd" transform="translate(10.5 15)"><path fill="#FFF" fill-rule="nonzero" stroke="#1D2759" stroke-width="1.5" d="M.046 17.4h69.7"/><path fill="#1D2759" fill-rule="nonzero" d="M5.046.4h-.5c-2.5 0-4.5 2-4.5 4.5v.5c0-2.7 2.2-5 5-5z"/><path fill="#F6F6F6" fill-rule="nonzero" stroke="#1D2759" stroke-width="1.5" d="M.046 55.4c0 2.8 2.2 5 5 5h59.7c2.8 0 5-2.2 5-5v-38H.046v38z"/><path fill="#1D2759" fill-rule="nonzero" stroke="#1D2759" stroke-width="1.5" d="M64.746.4h-59.7c-2.8 0-5 2.2-5 5v12h69.7v-12c0-2.7-2.2-5-5-5z"/><path stroke="#1D2759" stroke-width="1.5" d="M.046 17.4h69.7"/><circle cx="48.546" cy="39.7" r="14.4" stroke="#1D2759" stroke-width="1.5"/><polygon fill="#FE8200" fill-rule="nonzero" points="48.546 32.3 50.246 37.5 55.846 37.5 51.346 40.8 53.046 46 48.546 42.8 44.146 46 45.846 40.8 41.346 37.5 46.846 37.5"/><path fill="#F6F6F6" fill-rule="nonzero" stroke="#1D2759" stroke-width="1.5" d="M64.746 60.4h.5c2.5 0 4.5-2 4.5-4.5v-.5c0 2.8-2.2 5-5 5zm-64.7-5v.5c0 2.5 2 4.5 4.5 4.5h.5c-2.8 0-5-2.2-5-5z"/><path fill="#1D2759" fill-rule="nonzero" d="M69.746 5.4v-.5c0-2.5-2-4.5-4.5-4.5h-.5c2.8 0 5 2.3 5 5z"/><path stroke="#1D2759" stroke-linecap="round" stroke-width="1.5" d="M58.746 49.9l15.7 15.7"/></g></svg>