<svg xmlns="http://www.w3.org/2000/svg" width="96" height="96" viewBox="0 0 96 96"><g fill="none" fill-rule="evenodd" transform="translate(21 4)"><path fill="#F6F6F6" fill-rule="nonzero" stroke="#1D2759" stroke-width="1.5" d="M.746 82.4l.5-69c0-2.8 2.3-5.1 5.1-5.1l40.3.2c2.8 0 5.1 2.3 5.1 5.1l-.5 69c0 2.8-2.3 5.1-5.1 5.1l-40.3-.2c-2.8 0-5.1-2.3-5.1-5.1z"/><rect width="39.1" height="60.1" x="6.646" y="13.8" fill="#F6F6F6" fill-rule="nonzero" stroke="#1D2759" stroke-width="1.5"/><circle cx="26.246" cy="80.5" r="3.1" fill="#FE8200" fill-rule="nonzero"/><path stroke="#1D2759" stroke-width="1.5" d="M17.646 47.9h17.2m-17.2 7.4h17.2m-17.2 7.4h17.2"/><path fill="#1D2759" fill-rule="nonzero" d="M20.646 25.7h-2.8v-1.6c0-.6.5-1.2 1.2-1.2h1.6v2.8z"/><rect width="2.8" height="2.8" x="20.646" y="23" fill="#1D2759" fill-rule="nonzero"/><rect width="2.8" height="2.8" x="26.246" y="23" fill="#1D2759" fill-rule="nonzero"/><rect width="2.8" height="2.8" x="29.046" y="23" fill="#1D2759" fill-rule="nonzero"/><path fill="#1D2759" fill-rule="nonzero" d="M34.546 25.8h-2.8V23h1.7c.6 0 1.1.5 1.1 1.1v1.7z"/><rect width="2.8" height="2.8" x="17.946" y="25.7" fill="#1D2759" fill-rule="nonzero"/><rect width="2.8" height="2.8" x="23.446" y="25.7" fill="#1D2759" fill-rule="nonzero"/><rect width="2.8" height="2.8" x="26.246" y="25.7" fill="#1D2759" fill-rule="nonzero"/><rect width="2.8" height="2.8" x="29.046" y="25.8" fill="#1D2759" fill-rule="nonzero"/><rect width="2.8" height="2.8" x="31.846" y="25.8" fill="#1D2759" fill-rule="nonzero"/><rect width="2.8" height="2.8" x="17.946" y="28.5" fill="#1D2759" fill-rule="nonzero"/><rect width="2.8" height="2.8" x="23.446" y="28.5" fill="#1D2759" fill-rule="nonzero"/><rect width="2.8" height="2.8" x="26.246" y="28.5" fill="#1D2759" fill-rule="nonzero"/><rect width="2.8" height="2.8" x="17.946" y="31.3" fill="#1D2759" fill-rule="nonzero"/><rect width="2.8" height="2.8" x="20.646" y="31.3" fill="#1D2759" fill-rule="nonzero"/><rect width="2.8" height="2.8" x="23.446" y="31.3" fill="#1D2759" fill-rule="nonzero"/><rect width="2.8" height="2.8" x="29.046" y="31.3" fill="#1D2759" fill-rule="nonzero"/><rect width="2.8" height="2.8" x="29.046" y="34.1" fill="#1D2759" fill-rule="nonzero"/><rect width="2.8" height="2.8" x="31.846" y="31.3" fill="#1D2759" fill-rule="nonzero"/><rect width="2.8" height="2.8" x="17.946" y="34.1" fill="#1D2759" fill-rule="nonzero"/><rect width="2.8" height="2.8" x="23.446" y="34.1" fill="#1D2759" fill-rule="nonzero"/><path fill="#1D2759" fill-rule="nonzero" d="M20.646 39.6h-1.7c-.6 0-1.1-.5-1.1-1.1v-1.7h2.8v2.8z"/><rect width="2.8" height="2.8" x="20.646" y="36.9" fill="#1D2759" fill-rule="nonzero"/><rect width="2.8" height="2.8" x="23.446" y="36.9" fill="#1D2759" fill-rule="nonzero"/><rect width="2.8" height="2.8" x="26.246" y="36.9" fill="#1D2759" fill-rule="nonzero"/><path fill="#1D2759" fill-rule="nonzero" d="M33.446 39.6h-1.7v-2.8h2.8v1.7c0 .6-.5 1.1-1.1 1.1z"/><circle cx="49.646" cy="12.3" r="11.8" fill="#91C8E5" fill-rule="nonzero" stroke="#1D2759" stroke-width="1.5"/><polyline stroke="#1D2759" stroke-linecap="round" stroke-width="1.5" points="45.546 11.7 48.346 15.7 53.746 8.8"/></g></svg>