<svg xmlns="http://www.w3.org/2000/svg" width="96" height="96" viewBox="0 0 96 96"><g fill="none" fill-rule="evenodd" transform="translate(9 9)"><path fill="#91C8E5" fill-rule="nonzero" d="M39.35.78c-.878 0-1.658 0-2.536.098l.683 10.63c.585 0 1.17-.097 1.853-.097 15.605 0 28.284 12.68 28.284 28.284 0 15.605-12.68 28.284-28.284 28.284-15.605 0-28.284-12.679-28.284-28.284 0-4.096.878-8.095 2.536-11.801.195-.585.39-1.268.39-1.95 0-2.927-2.438-5.365-5.364-5.365a5.304 5.304 0 0 0-4.682 2.828c0 .098-.097.098-.097.195-.098.098-.098.293-.195.488C1.508 28.967.435 34.233.435 39.695c0 21.554 17.458 39.012 39.012 39.012 21.555 0 39.013-17.458 39.013-39.012C78.46 18.141 60.904.78 39.35.78z"/><circle cx="39.35" cy="39.793" r="38.525" stroke="#1D2759" stroke-width="1.5"/><circle cx="39.35" cy="39.793" r="28.869" fill="#F6F6F6" fill-rule="nonzero" stroke="#1D2759" stroke-width="1.5"/><path fill="#1D2759" fill-rule="nonzero" d="M31.157 37.16l-3.413-4.487c-.195-.293-.585-.39-.976-.293l-.975.293c-.488.195-.78.683-.585 1.17l1.56 4.78 4.39-1.464zm0 6.144l-3.413 4.486c-.195.293-.585.39-.976.293l-.975-.293c-.488-.195-.78-.683-.585-1.17l1.56-4.78 4.39 1.464z"/><path fill="#FE8200" fill-rule="nonzero" d="M36.717 29.064c0-.487.39-.878.877-.878h5.17c.487 0 .877.39.877.878s-.39.878-.878.878h-5.169c-.487.098-.877-.39-.877-.878z"/><path fill="#91C8E5" fill-rule="nonzero" stroke="#1D2759" stroke-width="1.5" d="M46.762 37.062L36.034 23.895c-.195-.195-.39-.293-.585-.293l-2.341-.195c-.683-.097-1.17.683-.878 1.268l7.022 14.435 7.51-2.048z"/><path fill="#FE8200" fill-rule="nonzero" d="M36.717 51.301c0 .488.39.878.877.878h5.17c.487 0 .877-.39.877-.878a.874.874 0 0 0-.878-.878h-5.169a.874.874 0 0 0-.877.878z"/><path fill="#91C8E5" fill-rule="nonzero" stroke="#1D2759" stroke-width="1.5" d="M46.762 43.401l-10.728 13.07c-.195.194-.39.292-.585.292l-2.341.195c-.683.098-1.17-.683-.878-1.268l7.022-14.434 7.51 2.145z"/><path fill="#F6F6F6" fill-rule="nonzero" stroke="#1D2759" stroke-width="1.5" d="M24.525 40.28v-.195c0-1.755 1.366-2.73 3.121-2.73l29.26-.39c1.755 0 3.12 1.365 3.12 3.12v.195c0 1.756-1.365 3.121-3.12 3.121l-29.26-.39c-1.658 0-3.12-.975-3.12-2.73z"/></g></svg>