<svg xmlns="http://www.w3.org/2000/svg" width="96" height="96" viewBox="0 0 96 96"><g fill="none" transform="translate(3 6)"><path fill="#F6F6F6" stroke="#1D2759" stroke-width="1.5" d="M81.946 70.2h-40.8c-1.5 0-2.7-1.2-2.7-2.7v-18c0-1.5 1.2-2.7 2.7-2.7h40.7c1.5 0 2.7 1.2 2.7 2.7v18c.1 1.5-1.1 2.7-2.6 2.7z"/><path fill="#91C8E5" stroke="#1D2759" stroke-width="1.5" d="M75.646 63.9h-7.3c-1.5 0-2.7-1.2-2.7-2.7V57c0-1.5 1.2-2.7 2.7-2.7h7.3c1.5 0 2.7 1.2 2.7 2.7v4.1c0 1.6-1.2 2.8-2.7 2.8zm-20.9 0h-7.3c-1.5 0-2.7-1.2-2.7-2.7V57c0-1.5 1.2-2.7 2.7-2.7h7.3c1.5 0 2.7 1.2 2.7 2.7v4.1c.1 1.6-1.1 2.8-2.7 2.8z"/><rect width="46.2" height="8.7" x="38.446" y="70.2" fill="#F6F6F6" stroke="#1D2759" stroke-width="1.5"/><path fill="#1D2759" d="M88.046 62h-53c-.9 0-1.7.7-1.7 1.7V82c0 .9.7 1.7 1.7 1.7h6V75c0-.9.7-1.7 1.7-1.7h37.8c.9 0 1.7.7 1.7 1.7v8.7h6c.9 0 1.7-.7 1.7-1.7V63.6c-.2-.9-.9-1.6-1.9-1.6zm-77-40.3l-5.3-7c-.4-.5-1-.7-1.5-.5l-1.5.4c-.8.2-1.2 1-.9 1.8l2.4 7.6 6.8-2.3zm0 9.5l-5.3 7c-.4.5-1 .7-1.5.5l-1.5-.4c-.8-.2-1.2-1-.9-1.8l2.4-7.5 6.8 2.2z"/><path fill="#FE8200" d="M19.646 9.2c0-.8.6-1.4 1.4-1.4l8 .1c.8 0 1.4.7 1.4 1.4 0 .8-.6 1.4-1.4 1.4l-8-.1c-.8.1-1.4-.6-1.4-1.4z"/><path fill="#91C8E5" stroke="#1D2759" stroke-width="1.5" d="M35.346 21.6l-16.7-20.3c-.2-.3-.6-.5-1-.5l-3.6-.3c-1.1-.1-1.8 1-1.4 2l10.9 22.4 11.8-3.3z"/><path fill="#FE8200" d="M19.646 43.7c0 .8.6 1.4 1.4 1.4l8-.1c.8 0 1.4-.7 1.4-1.4 0-.8-.6-1.4-1.4-1.4l-8 .1c-.8 0-1.4.7-1.4 1.4z"/><path fill="#91C8E5" stroke="#1D2759" stroke-width="1.5" d="M35.346 31.4l-16.7 20.3c-.2.3-.6.5-1 .5l-3.6.3c-1.1.1-1.8-1-1.4-2l10.9-22.4 11.8 3.3z"/><path fill="#F6F6F6" stroke="#1D2759" stroke-width="1.5" d="M.746 26.7v-.4c0-2.7 2.2-4.2 4.9-4.2l45.4-.7c2.7 0 4.9 2.2 4.9 4.9v.4c0 2.7-2.2 4.9-4.9 4.9l-45.4-.7c-2.7 0-4.9-1.5-4.9-4.2z"/></g></svg>