<svg xmlns="http://www.w3.org/2000/svg" width="96" height="96" viewBox="0 0 96 96"><g fill="none" transform="translate(11.5 11)"><path fill="#1D2759" d="M19.546 44l-12.6-1.7c-.8-.1-1.7.3-2.1 1.1l-1 1.9c-.5 1-.1 2.3.9 2.8l10.1 5.1 4.7-9.2zm9.7 9.7l1.7 12.6c.1.8-.3 1.7-1.1 2.1l-1.9 1c-1 .5-2.3.1-2.8-.9l-5.1-10.1 9.2-4.7z"/><path fill="#FE8200" d="M15.446 22.5c-.8-.8-.8-2.1 0-2.9l8.2-8.1c.8-.8 2.1-.8 2.9 0 .8.8.8 2.1 0 2.9l-8.2 8.1c-.7.8-2 .8-2.9 0z"/><path fill="#91C8E5" stroke="#1D2759" stroke-width="1.5" d="M44.146 19.1l-37.8-3.7c-.6-.1-1.1.1-1.5.5l-4 3.4c-1.2 1-.8 2.9.7 3.4l33.9 11.7 8.7-15.3z"/><path fill="#FE8200" d="M50.746 57.8c.8.8 2.1.8 2.9 0l8.1-8.2c.8-.8.8-2.1 0-2.9-.8-.8-2.1-.8-2.9 0l-8.1 8.2c-.8.7-.8 2 0 2.9z"/><path fill="#91C8E5" stroke="#1D2759" stroke-width="1.5" d="M54.146 29.1l3.7 37.8c.1.6-.1 1.1-.5 1.5l-3.4 4c-1 1.2-2.9.8-3.4-.7l-11.7-33.9 15.3-8.7z"/><path fill="#F6F6F6" stroke="#1D2759" stroke-width="1.5" d="M14.046 59.6l-.4-.4c-2.7-2.7-2.1-6.5.7-9.2l45.7-47c2.7-2.7 7.2-2.7 9.9 0l.4.4c2.7 2.7 2.7 7.2 0 9.9l-47 45.7c-2.7 2.6-6.5 3.3-9.3.6z"/></g></svg>