<svg xmlns="http://www.w3.org/2000/svg" width="96" height="96" viewBox="0 0 96 96"><g fill="none" transform="translate(-.6 31)"><polygon fill="#1D2759" points=".542 4.5 3.342 4.5 3.342 13.6 6.042 13.6 6.042 4.5 8.842 4.5 8.842 1.9 .542 1.9"/><path fill="#1D2759" d="M19.742 6.8h-1.6V4.5h1.6c.8 0 1.2.6 1.2 1.2s-.5 1.1-1.2 1.1m3.9-1.1c0-1.9-1.3-3.8-3.8-3.8h-4.4v11.7h2.7V9.2h.9l2 4.4h3.2l-2.4-4.9c.9-.4 1.8-1.4 1.8-3m12.6 3.7c0 1.1-.6 1.7-1.5 1.7s-1.5-.6-1.5-1.7V1.9h-2.7v7.6c0 2.6 1.9 4.2 4.2 4.2 2.3 0 4.3-1.6 4.3-4.2V1.9h-2.7v7.5h-.1z"/><polygon fill="#1D2759" points="53.642 4.5 53.642 1.9 46.042 1.9 46.042 13.6 53.642 13.6 53.642 11 48.742 11 48.742 9 52.942 9 52.942 6.4 48.742 6.4 48.742 4.5"/><path fill="#1D2759" d="M5.642 27.4h-2.6v-3.7h2.6c1.2 0 1.9.7 1.9 1.9.1 1.1-.7 1.8-1.9 1.8zm-2.6-8.2h2.5c1.1 0 1.9.5 1.9 1.8 0 1.2-.8 1.8-1.9 1.8h-2.5v-3.6zm4 3.9c.8-.3 1.4-1.2 1.4-2.2 0-1.7-1.2-2.7-2.9-2.7h-3.6v10.2h3.8c1.7 0 2.9-1 2.9-2.8 0-1.3-.7-2.1-1.6-2.5z"/><polygon fill="#1D2759" points="18.642 18.2 17.642 18.2 17.642 28.4 23.542 28.4 23.542 27.4 18.642 27.4"/><path fill="#1D2759" d="M37.042 24.9c0 1.5-.9 2.6-2.4 2.6-1.4 0-2.3-1-2.3-2.6v-6.7h-1V25c0 2 1.4 3.4 3.4 3.4s3.4-1.4 3.4-3.4v-6.8h-1v6.7h-.1z"/><polygon fill="#1D2759" points="47.342 28.4 53.342 28.4 53.342 27.4 48.342 27.4 48.342 23.7 52.542 23.7 52.542 22.8 48.342 22.8 48.342 19.2 53.342 19.2 53.342 18.2 47.342 18.2"/><path fill="#F6F6F6" stroke="#1D2759" stroke-width="1.5" d="M85.564 29.9h-22.5c-.5 0-.8-.4-.8-.8v-1.4c0-6 4.9-10.9 10.9-10.9h2.4c6 0 10.9 4.9 10.9 10.9v1.4c-.1.5-.4.8-.9.8z"/><circle cx="74.464" cy="8.7" r="8" fill="#F6F6F6" stroke="#1D2759" stroke-width="1.5"/><circle cx="87.264" cy="24.6" r="8.5" fill="#91C8E5" stroke="#1D2759" stroke-width="1.5"/><path fill="#1D2759" d="M91.064 24.1v1.4c0 .2-.1.3-.2.3h-2.3c-.2 0-.3.1-.3.3v2.3c0 .2-.1.3-.2.3h-1.4c-.2 0-.3-.1-.3-.3v-2.3c0-.2-.1-.3-.2-.3h-2.3c-.2 0-.3-.1-.3-.3v-1.4c0-.2.2-.3.3-.3h2.3c.2 0 .2-.1.2-.3v-2.3c0-.2.2-.3.3-.3h1.4c.2 0 .2.1.2.3v2.3c0 .2.2.3.3.3h2.3c.1 0 .2.1.2.3z"/></g></svg>