<svg xmlns="http://www.w3.org/2000/svg" width="96" height="96" viewBox="0 0 96 96"><g fill="none" fill-rule="evenodd" transform="translate(15.5 7.5)"><path fill="#F6F6F6" fill-rule="nonzero" stroke="#1D2759" stroke-width="1.5" d="M.046 75.3l.5-70c0-2.8 2.3-5 5-5l54 .4c2.8 0 5 2.3 5 5l-.5 70c0 2.8-2.3 5-5 5l-54-.4c-2.8 0-5-2.3-5-5z"/><path stroke="#1D2759" stroke-linecap="round" stroke-width="2" d="M24.246 51h23.9m-23.9 8.8h23.9m-23.9 8.6h23.9"/><circle cx="18.146" cy="51" r="1.8" fill="#1D2759" fill-rule="nonzero"/><circle cx="18.146" cy="59.8" r="1.8" fill="#1D2759" fill-rule="nonzero"/><circle cx="18.146" cy="68.4" r="1.8" fill="#1D2759" fill-rule="nonzero"/><path fill="#1D2759" fill-rule="nonzero" d="M24.946 28.5l-5.5-.7c-.4 0-.7.1-.9.5l-.5.8c-.2.4-.1 1 .4 1.2l4.4 2.3 2.1-4.1zm4.2 4.2l.7 5.5c0 .4-.1.7-.5.9l-.8.5c-.4.2-1 .1-1.2-.4l-2.3-4.4 4.1-2.1z"/><path fill="#FE8200" fill-rule="nonzero" d="M23.146 19.1c-.4-.3-.4-.9 0-1.3l3.6-3.6c.4-.3.9-.3 1.3 0s.4.9 0 1.3l-3.6 3.6c-.4.3-.9.3-1.3 0z"/><path fill="#91C8E5" fill-rule="nonzero" stroke="#1D2759" stroke-width="1.5" d="M35.746 17.6l-16.6-1.6c-.2 0-.5.1-.7.2l-1.8 1.5c-.5.4-.4 1.3.3 1.5l14.9 5.1 3.9-6.7z"/><path fill="#FE8200" fill-rule="nonzero" d="M38.546 34.5c.3.4.9.4 1.3 0l3.6-3.6c.3-.4.3-.9 0-1.3s-.9-.4-1.3 0l-3.6 3.6c-.3.4-.3.9 0 1.3z"/><path fill="#91C8E5" fill-rule="nonzero" stroke="#1D2759" stroke-width="1.5" d="M40.046 21.9l1.6 16.6c0 .2-.1.5-.2.7l-1.5 1.8c-.4.5-1.3.4-1.5-.3l-5.1-14.9 6.7-3.9z"/><path fill="#F6F6F6" fill-rule="nonzero" stroke="#1D2759" stroke-width="1.5" d="M22.546 35.3l-.2-.2c-1.2-1.2-.9-2.9.3-4.1l20-20.6c1.2-1.2 3.2-1.2 4.3 0l.2.2c1.2 1.2 1.2 3.2 0 4.3l-20.6 20c-1.2 1.3-2.8 1.6-4 .4z"/></g></svg>