<svg xmlns="http://www.w3.org/2000/svg" width="96" height="96" viewBox="0 0 96 96"><g fill="none" fill-rule="evenodd" transform="translate(-.06 23.5)"><circle cx="80.276" cy="24.2" r="15" fill="#F6F6F6" fill-rule="nonzero" stroke="#1D2759" stroke-width="1.5"/><path stroke="#8DC8E8" stroke-width="3" d="M75.254 25.863h12.3"/><path stroke="#1D2759" stroke-width="1.2" d="M87.654 29.363c0 .4-.3.6-.7.6h-11c-.4 0-.7-.3-.7-.6v-7.1c0-.4.3-.6.7-.6h11c.4 0 .7.3.7.6v7.1z"/><path stroke="#1D2759" stroke-width="3" d="M81.454 21.363v8.5"/><path stroke="#1D2758" stroke-width="1.2" d="M79.592 17.963c1 0 1.7.7 1.7 1.7v1.6h-1.8c-.9 0-1.6-.7-1.6-1.5v-.1c.1-1 .8-1.7 1.7-1.7zm3.8 0c-1 0-1.7.7-1.7 1.6v1.7h1.7c1 0 1.7-.7 1.7-1.7 0-.9-.8-1.6-1.7-1.6z"/><circle cx="15.846" cy="24.2" r="15" fill="#F6F6F6" fill-rule="nonzero" stroke="#1D2759" stroke-width="1.5"/><path stroke="#FE8200" stroke-linecap="round" stroke-width="1.5" d="M14.846 24.2c1.5 0 2.8 1 2.8 2.2 0 1.2-1.2 2.2-2.8 2.2-1.5 0-2.8-1-2.8-2.2m5.6-4.5c0-1.2-1.2-2.2-2.8-2.2-1.5 0-2.8 1-2.8 2.2 0 1.2 1.2 2.2 2.8 2.2m0 6.1v-12"/><circle cx="48.146" cy="24.2" r="24" fill="#F6F6F6" fill-rule="nonzero" stroke="#1D2759" stroke-width="1.5"/><path fill="#1D2759" fill-rule="nonzero" d="M40.246 28.2l-5-.7c-.3 0-.7.1-.8.4l-.4.8c-.2.4-.1.9.3 1.1l4 2 1.9-3.6zm3.8 3.8l.7 5c0 .3-.1.7-.4.8l-.8.4c-.4.2-.9.1-1.1-.3l-2-4 3.6-1.9z"/><path fill="#FE8200" fill-rule="nonzero" d="M38.646 19.7c-.3-.3-.3-.8 0-1.1l3.3-3.2c.3-.3.8-.3 1.2 0 .3.3.3.8 0 1.1l-3.3 3.2c-.4.3-.9.3-1.2 0z"/><path fill="#91C8E5" fill-rule="nonzero" stroke="#1D2759" stroke-width="1.5" d="M49.946 18.3l-15-1.5c-.2 0-.4 0-.6.2l-1.6 1.3c-.5.4-.3 1.2.3 1.4l13.4 4.6 3.5-6z"/><path fill="#FE8200" fill-rule="nonzero" d="M52.546 33.6c.3.3.8.3 1.1 0l3.2-3.3c.3-.3.3-.8 0-1.2-.3-.3-.8-.3-1.1 0l-3.2 3.3c-.3.4-.3.9 0 1.2z"/><path fill="#91C8E5" fill-rule="nonzero" stroke="#1D2759" stroke-width="1.5" d="M53.946 22.3l1.5 15c0 .2 0 .4-.2.6l-1.3 1.6c-.4.5-1.2.3-1.4-.3l-4.6-13.4 6-3.5z"/><path fill="#F6F6F6" fill-rule="nonzero" stroke="#1D2759" stroke-width="1.5" d="M38.046 34.3l-.2-.2c-1.1-1.1-.8-2.6.3-3.7l18.1-18.5c1.1-1.1 2.8-1.1 3.9 0l.2.2c1.1 1.1 1.1 2.8 0 3.9l-18.6 18.1c-1.1 1-2.6 1.3-3.7.2z"/></g></svg>