<svg xmlns="http://www.w3.org/2000/svg" width="40" height="40" viewBox="0 0 40 40"><g><path d="M20 1.875C30.01 1.875 38.125 9.99 38.125 20S30.01 38.125 20 38.125 1.875 30.01 1.875 20C1.889 9.996 9.995 1.889 20 1.875zM20 0C8.954 0 0 8.954 0 20c0 6.907 3.5 12.996 8.825 16.59A19.907 19.907 0 0 0 20 40a19.943 19.943 0 0 0 14.512-6.237A19.932 19.932 0 0 0 40 20 20 20 0 0 0 20 0z"/><path d="M21.45 29.375v-8.55h2.875l.425-3.325h-3.3v-2.125c0-.963.262-1.625 1.65-1.625h1.762v-2.988a23.625 23.625 0 0 0-2.574-.137A4.013 4.013 0 0 0 18.012 15v2.5h-2.875v3.337h2.875v8.538h3.438z"/></g></svg>