<svg xmlns="http://www.w3.org/2000/svg" width="20" height="16" viewBox="0 0 20 16"><path d="M6.575 15.5A10.7 10.7 0 0 0 17.35 4.725v-.487a7.7 7.7 0 0 0 1.887-1.963 7.5 7.5 0 0 1-2.174.6 3.75 3.75 0 0 0 1.687-2.1 7.588 7.588 0 0 1-2.4.925A3.75 3.75 0 0 0 9.9 5.15a10.75 10.75 0 0 1-7.8-3.963 3.75 3.75 0 0 0 1.175 5 3.75 3.75 0 0 1-1.725-.474 3.75 3.75 0 0 0 3.038 3.75 3.75 3.75 0 0 1-1.713.062 3.75 3.75 0 0 0 3.537 2.625 7.6 7.6 0 0 1-4.7 1.625c-.3.018-.6.018-.9 0A10.725 10.725 0 0 0 6.575 15.5"/></svg>