<svg xmlns="http://www.w3.org/2000/svg" width="20" height="20" viewBox="0 0 20 20"><path d="M6.875 10a3.125 3.125 0 1 1 6.25 0 3.125 3.125 0 0 1-6.25 0m-1.688 0a4.812 4.812 0 1 0 9.625 0 4.812 4.812 0 0 0-9.624 0m8.75-5a1.125 1.125 0 1 0 2.25 0 1.125 1.125 0 0 0-2.25 0M6.25 17.625a5.175 5.175 0 0 1-1.737-.325 3.112 3.112 0 0 1-1.776-1.775 5.188 5.188 0 0 1-.362-1.775V10 6.25A5.187 5.187 0 0 1 2.7 4.513a3.1 3.1 0 0 1 1.775-1.776 5.187 5.187 0 0 1 1.775-.362h7.5a5.187 5.187 0 0 1 1.738.325 3.1 3.1 0 0 1 1.774 1.775c.229.565.356 1.166.375 1.775v7.5a5.187 5.187 0 0 1-.325 1.738 3.1 3.1 0 0 1-1.775 1.774 5.187 5.187 0 0 1-1.787.363h-7.5M6.138.687a6.875 6.875 0 0 0-2.276.438 4.787 4.787 0 0 0-2.737 2.737 6.862 6.862 0 0 0-.438 2.276v7.725c.016.777.164 1.546.438 2.274a4.8 4.8 0 0 0 2.737 2.738 6.875 6.875 0 0 0 2.276.438h7.725a6.875 6.875 0 0 0 2.274-.438 4.8 4.8 0 0 0 2.738-2.738 6.875 6.875 0 0 0 .438-2.274V10 6.138a6.875 6.875 0 0 0-.438-2.276 4.788 4.788 0 0 0-2.738-2.737 6.875 6.875 0 0 0-2.274-.438H6.138"/></svg>