<svg xmlns="http://www.w3.org/2000/svg" width="40" height="40" viewBox="0 0 40 40"><g><path d="M20 1.875C30.01 1.875 38.125 9.99 38.125 20S30.01 38.125 20 38.125 1.875 30.01 1.875 20C1.889 9.996 9.995 1.889 20 1.875zM20 0C8.954 0 0 8.954 0 20s8.954 20 20 20 20-8.954 20-20A20 20 0 0 0 20 0z"/><path d="M16.875 20a3.125 3.125 0 1 1 6.25 0 3.125 3.125 0 0 1-6.25 0m-1.688 0a4.812 4.812 0 1 0 9.625 0 4.812 4.812 0 0 0-9.625 0m8.75-5a1.125 1.125 0 1 0 2.25 0 1.125 1.125 0 0 0-2.25 0M16.25 27.625a5.175 5.175 0 0 1-1.738-.325 3.112 3.112 0 0 1-1.774-1.775 5.188 5.188 0 0 1-.363-1.775V20v-3.75a5.187 5.187 0 0 1 .325-1.738 3.1 3.1 0 0 1 1.775-1.774 5.188 5.188 0 0 1 1.775-.363h7.5a5.187 5.187 0 0 1 1.738.325 3.1 3.1 0 0 1 1.774 1.775c.229.565.356 1.166.375 1.775v7.5a5.187 5.187 0 0 1-.325 1.738 3.1 3.1 0 0 1-1.774 1.774 5.187 5.187 0 0 1-1.788.363h-7.5m-.113-16.938a6.875 6.875 0 0 0-2.274.438 4.788 4.788 0 0 0-2.738 2.738 6.862 6.862 0 0 0-.438 2.274v7.726c.016.777.164 1.546.438 2.274a4.8 4.8 0 0 0 2.738 2.738 6.875 6.875 0 0 0 2.274.438h7.726a6.875 6.875 0 0 0 2.274-.438 4.8 4.8 0 0 0 2.738-2.738 6.875 6.875 0 0 0 .438-2.274V20v-3.863a6.875 6.875 0 0 0-.438-2.274 4.788 4.788 0 0 0-2.738-2.738 6.875 6.875 0 0 0-2.274-.438h-7.726"/></g></svg>