<svg xmlns="http://www.w3.org/2000/svg" width="40" height="40" viewBox="0 0 40 40"><g><path d="M20 1.875C30.01 1.875 38.125 9.99 38.125 20S30.01 38.125 20 38.125 1.875 30.01 1.875 20C1.889 9.996 9.995 1.889 20 1.875zM20 0C8.954 0 0 8.954 0 20s8.954 20 20 20 20-8.954 20-20A20 20 0 0 0 20 0z"/><path d="M16.575 27.5A10.7 10.7 0 0 0 27.35 16.725v-.488a7.7 7.7 0 0 0 1.887-1.962 7.5 7.5 0 0 1-2.174.6 3.75 3.75 0 0 0 1.687-2.1 7.588 7.588 0 0 1-2.4.925 3.75 3.75 0 0 0-6.45 3.45 10.75 10.75 0 0 1-7.8-3.962 3.75 3.75 0 0 0 1.175 5 3.75 3.75 0 0 1-1.725-.476 3.75 3.75 0 0 0 3.037 3.75 3.75 3.75 0 0 1-1.712.063 3.75 3.75 0 0 0 3.538 2.625 7.6 7.6 0 0 1-4.7 1.625c-.3.018-.6.018-.9 0a10.725 10.725 0 0 0 5.762 1.725"/></g></svg>