<svg xmlns="http://www.w3.org/2000/svg" width="40" height="40" viewBox="0 0 40 40"><g fill="none"><path fill="#000" d="M20 0C8.954 0 0 8.954 0 20s8.954 20 20 20 20-8.954 20-20A20 20 0 0 0 20 0z"/><path fill="#FFF" d="M28.5 15.7c.257 1.419.383 2.858.375 4.3a23.387 23.387 0 0 1-.375 4.3 2.225 2.225 0 0 1-1.563 1.575c-2.301.277-4.619.403-6.937.375a52.688 52.688 0 0 1-6.938-.375A2.225 2.225 0 0 1 11.5 24.3a23.387 23.387 0 0 1-.375-4.3 23.387 23.387 0 0 1 .375-4.3 2.225 2.225 0 0 1 1.563-1.575A52.688 52.688 0 0 1 20 13.75a52.688 52.688 0 0 1 6.938.375c.764.21 1.359.81 1.562 1.575zm-10.313 6.938L22.825 20l-4.637-2.637v5.274z"/></g></svg>