<svg height="48" viewBox="0 0 75 48" width="75" xmlns="http://www.w3.org/2000/svg" xmlns:xlink="http://www.w3.org/1999/xlink"><defs><rect id="a" height="48" rx="6" width="75"/><mask id="b" fill="#fff"><use fill="#fff" fill-rule="evenodd" xlink:href="#a"/></mask><mask id="c" fill="#fff"><path d="m.068.096h33.504v13.536h-33.504z" fill="#fff" fill-rule="evenodd"/></mask></defs><g fill="none" fill-rule="evenodd"><use fill="#d8d8d8" xlink:href="#a"/><g mask="url(#b)"><g fill-rule="nonzero" transform="translate(-3)"><path d="m20.2960635 24.648h3.3650794l-1.6825397-4.32zm46.9007937-8.208h-8.623016l-2.1031746 2.376-1.892857-2.376h-18.2976192l-1.6825396 3.888-1.6825396-3.888h-7.3611112v1.728l-.8412699-1.728h-6.3095238l-6.0992063 15.12h7.3611111l.8412699-2.376h2.1031746l.8412698 2.376h8.2023809v-1.728l.6309524 1.728h4.2063493l.6309522-1.944v1.944h16.825397l2.1031746-2.376 1.892857 2.376h8.623016l-5.468254-7.56zm-25.4484128 12.96h-2.313492v-8.424l-3.5753968 8.424h-2.1031746l-3.5753969-8.424v8.424h-4.8373015l-.8412699-2.376h-5.047619l-.8412699 2.376h-2.734127l4.4166667-10.8h3.5753968l3.9960317 10.152v-10.152h3.9960318l3.154762 7.344 2.9444444-7.344h3.9960316v10.8zm20.8214286 0h-3.1547618l-2.734127-3.672-3.154762 3.672h-9.4642856v-10.8h9.6746032l2.9444444 3.456 3.1547618-3.456h2.9444444l-4.626984 5.4zm-16.1944444-8.64v1.944h5.2579366v2.16h-5.2579366v2.16h5.8888888l2.734127-3.24-2.5238096-3.024z" fill="#fff"/><rect fill="#016fd0" height="48" rx="8" width="80"/><g fill="none" transform="translate(42.7 7.68)"><g fill="#016fd0"><path d="m7.35535714 7.872c-.28392856 0-.56785714 0-.85178572 0 .09464286-.192.18928572-.384.18928572-.576.09464286-.192.18928572-.384.18928572-.576.09464286-.192.18928572-.384.18928572-.576.09464284-.192.1892857-.384.1892857-.576.09464286-.192.18928572-.48.28392858-.672.09464286-.288.28392856-.576.37857142-.864.09464286-.192.18928572-.48.28392858-.672.28392856.768.56785714 1.44.85178572 2.208.28392856.768.56785714 1.44.8517857 2.208-.75714286.096-1.70357142.096-2.55535714.096zm24.79642866-7.776c-.4732144 0-.9464286 0-1.419643 0-.4732142 0-.9464286 0-1.4196428 0s-.9464286 0-1.4196428 0c-.2839286.672-.4732144 1.344-.757143 2.112-.7571428 2.112-1.4196428 4.128-2.2714284 6.24-1.0410716-2.784-1.9875-5.568-2.9339286-8.256-1.8928572 0-3.7857143 0-5.6785715 0v13.344c-1.7035714-3.84-3.4071428-7.776-5.1107143-11.712-.0946428-.288-.2839285-.576-.3785714-.864s-.2839286-.576-.3785714-.864c-.75714288 0-1.51428574 0-2.36607146 0-.18928572 0-.37857142 0-.56785714 0-.56785714 0-1.13571428 0-1.79821428 0-.75714286 1.728-1.41964286 3.36-2.17678572 5.088-.47321428 1.152-.94642858 2.208-1.41964286 3.36-.75714285 1.728-1.41964285 3.36-2.17678571 5.088h.47321428 1.51428571 1.9875c.28392858-.672.56785716-1.344.85178572-2.016.09464286-.192.18928572-.48.28392858-.672h1.5142857 4.54285718c.0946428.288.2839285.672.3785714.96s.1892857.48.2839286.768c.0946428.288.2839285.672.3785714.96h6.7196429.9464285c0-3.072 0-6.24 0-9.312 1.1357144 3.072 2.2714286 6.24 3.4071428 9.312h3.2178572c1.1357144-3.072 2.1767858-6.24 3.4071428-9.312.094643 3.072 0 6.24 0 9.312h3.5017858v-13.44c-.1892858-.096-.6625-.096-1.1357142-.096z" mask="url(#c)" transform="translate(2.84 1.92)"/><path d="m31.7732142 17.472c-1.325 1.44-2.555357 2.88-3.880357 4.32 0 0-.094643-.096-.094643-.096-.567857-.672-1.1357142-1.344-1.7982142-1.92-.6625-.768-1.325-1.536-1.9875-2.208-1.6089286 0-3.1232142 0-4.7321429 0 0 0 .0946429.096.0946429.192v.096c.7571428.768 1.5142858 1.632 2.2714286 2.4.4732142.576 1.0410714 1.056 1.5142856 1.632.4732144.576 1.0410716 1.056 1.5142858 1.632.2839286.288.4732142.576.7571428.768-.567857.576-1.0410714 1.152-1.5142856 1.632-1.0410714 1.152-2.082143 2.304-3.2178572 3.456-.4732142.48-.9464286 1.056-1.5142857 1.536 0-.48 0-1.056 0-1.536s0-1.056 0-1.536c-2.5553572 0-5.1107143 0-7.6660714 0 0-.672 0-1.344 0-2.112h7.4767857c0-.48 0-1.056 0-1.536 0-.48 0-.96 0-1.536-2.4607143 0-5.0160715 0-7.4767857 0 0-.672 0-1.44 0-2.112h7.6660714c0-.384 0-.672 0-1.056 0-.576 0-1.152 0-1.824-.0946429-.096-.1892857-.192-.2839286-.288-3.6910714.096-7.3821428 0-11.07321428 0v1.632 6.72 3.36 1.632h3.97499998 11.925c1.325-1.44 2.65-2.88 3.8803572-4.32 1.325 1.44 2.5553572 2.88 3.8803572 4.32h4.6375c-2.082143-2.304-4.1642858-4.512-6.2464286-6.72 2.0821428-2.208 4.1642856-4.416 6.2464286-6.624v-.096c-1.2303572.192-2.8392858.192-4.3535716.192"/><path d="m34.1392858 22.656c-.1892858.192-.2839286.288-.4732144.48-.2839286.288-.5678572.672-.8517856.96 1.230357 1.248 2.4607142 2.592 3.5964284 3.936v-7.776c-.4732142.48-.8517856.96-1.325 1.44-.2839284.384-.6625.672-.9464284.96"/></g><path d="m11.0464286 5.472c-.0946429.192-.1892857.48-.2839286.672-.0946429.288-.2839286.576-.3785714.864-.0946429.192-.1892857.48-.2839286.672s-.18928572.384-.18928572.576c-.09464286.192-.1892857.384-.1892857.576-.09464286.192-.18928572.384-.18928572.576-.09464286.192-.18928572.384-.18928572.576h.85178576 2.65c-.2839286-.768-.5678572-1.44-.8517858-2.208-.2839285-.864-.6625-1.632-.9464285-2.304" fill="#fff"/><path d="m37.358 29.206-4.544-5.014 4.544-4.832v-2.858l-7.194 7.69 7.194 7.858z" fill="#fff"/><path d="m28.9339286 1.728c-.1892858.576-.3785714 1.152-.5678572 1.632-.0946428.288-.1892856.48-.2839286.768 0 .096-.0946428.192-.0946428.384-.5678572-1.44-1.0410714-2.976-1.6089286-4.416-.7571428 0-1.5142856 0-2.2714286 0-2.2714286 0-4.542857 0-6.7196428 0v3.648 2.208c-.8517857-1.92-1.7035714-3.936-2.5553571-5.952-.5678572 0-1.2303572 0-1.7982143 0-1.2303572 0-2.4607143 0-3.5964286 0-.56785714 0-1.23035714 0-1.79821428 0-2.55535714 5.76-5.01607144 11.52-7.57142858 17.28h6.05714286v3.84 5.76 5.76h18.8339286c.9464286-1.152 1.9875-2.208 2.9339286-3.264.9464286 1.152 1.9875 2.208 2.9339286 3.264h6.530357v-1.92c-1.5142856 0-3.975 0-5.4892856 0-1.325-1.44-2.65-2.88-3.8803572-4.32-1.325 1.44-2.65 2.88-3.8803572 4.32-3.975 0-7.9499999 0-11.9249999 0-1.325 0-2.65000004 0-3.97500004 0 0-.576 0-1.152 0-1.632 0-1.152 0-2.208 0-3.36 0-2.208 0-4.512 0-6.72 0-.576 0-1.152 0-1.632h11.07321424l.2839287.288v1.824 1.056c-2.5553572 0-5.1107144 0-7.6660715 0v2.112h7.4767857v1.536 1.536c-2.4607143 0-5.0160714 0-7.4767857 0v2.112h7.6660715v1.536 1.536c.4732142-.48.9464284-1.056 1.5142856-1.536 1.0410714-1.152 2.0821428-2.304 3.2178572-3.456.4732142-.576 1.0410714-1.152 1.5142856-1.632-.2839284-.288-.4732142-.576-.7571428-.768-.4732142-.576-1.0410714-1.056-1.5142856-1.632-.4732144-.576-1.0410716-1.056-1.5142858-1.632-.7571428-.768-1.5142858-1.632-2.2714286-2.4v-.096c0-.096-.0946428-.192-.0946428-.192h4.7321428c.6625.768 1.325 1.536 1.9875 2.208.5678572.672 1.1357144 1.344 1.7982144 1.92 0 0 .0946428.096.0946428.096.820238-.96 2.1136904-2.4 3.8803572-4.32h5.205357v-1.92h-4.0696428c0-4.16 0-7.264 0-9.312-1.1357142 3.072-2.2714286 6.24-3.4071428 9.312-1.0410714 0-2.082143 0-3.2178572 0-1.1357142-3.072-2.2714286-6.24-3.4071428-9.312-.094643 3.072 0 6.24 0 9.312-.2839286 0-.6625 0-.9464286 0-2.2714286 0-4.4482143 0-6.7196429 0-.0946428-.288-.2839286-.672-.3785714-.96-.0946429-.288-.1892857-.48-.2839286-.768-.0946428-.288-.2839286-.672-.3785714-.96-1.5142857 0-3.0285714 0-4.5428572 0-.47321424 0-1.04107138 0-1.51428568 0-.09464284.192-.1892857.48-.28392856.672-.28392858.672-.56785714 1.344-.85178572 2.016-.6625 0-1.325 0-1.9875 0-.47321428 0-1.04107142 0-1.51428572 0-.1892857 0-.37857142 0-.47321428 0 .75714286-1.728 1.41964286-3.36 2.17678572-5.088.47321428-1.152.94642856-2.208 1.41964286-3.36.75714286-1.728 1.41964286-3.36 2.1767857-5.088h1.79821428.5678572 2.3660714c.0946428.288.2839286.576.3785714.864.0946429.288.2839286.576.3785714.864 1.7035715 3.936 3.4071429 7.776 5.1107143 11.712 0-4.416 0-8.928 0-13.344h5.6785714c.9464286 2.784 1.8928572 5.568 2.9339286 8.256.504762-1.344 1.5142858-4.128 3.0285714-8.352h5.9625v-1.92h-7.855357c-.252381.768-.4416668 1.312-.5678572 1.632z" fill="#fff"/></g></g></g></g></svg>
