<svg xmlns="http://www.w3.org/2000/svg" width="40" height="24" viewBox="0 0 40 24">
  <g fill="none">
    <rect width="39" height="23" x=".5" y=".5" fill="#FFF" stroke="#E8E8E9" rx="4"/>
    <path fill="#E6772F" d="M0.476190476,11.3406593 L26.4761905,11.3406593 C28.6853295,11.3406593 30.4761905,9.54979834 30.4761905,7.34065934 L30.4761905,0.340659341 L30.4761905,0.340659341 C30.4761905,0.340659341 19.8809688,7.93969098 0.476190476,11.3406593 Z" transform="translate(9.524 12.66)"/>
    <path fill="#1A1919" d="M7.31543338,11.2764215 C7.01514795,11.5292291 6.6328811,11.6397771 6.02159252,11.6397771 L5.76793881,11.6397771 L5.76793881,8.62291528 L6.02159252,8.62291528 C6.6328811,8.62291528 7.00048157,8.72602256 7.31543338,8.99140862 C7.64053886,9.26565265 7.835903,9.68871131 7.835903,10.1262971 C7.835903,10.5660089 7.64053886,11.0041261 7.31543338,11.2764215 L7.31543338,11.2764215 Z M6.21093967,7.85014229 L4.82308338,7.85014229 L4.82308338,12.4129045 L6.20247829,12.4129045 C6.93655105,12.4129045 7.46642219,12.2483226 7.93085862,11.8851441 C8.48254133,11.454999 8.80990319,10.8055296 8.80990319,10.1326749 C8.80990319,8.78572556 7.74188752,7.85014229 6.21093967,7.85014229 L6.21093967,7.85014229 Z"/>
    <polygon fill="#1A1919" points="9.246 7.85 10.187 7.85 10.187 12.413 9.246 12.413"/>
    <path fill="#1A1919" d="M12.4977539 9.59889109C11.9297124 9.40259756 11.7636811 9.27185329 11.7636811 9.02524619 11.7636811 8.73860093 12.0603939 8.52122533 12.468421 8.52122533 12.7512196 8.52122533 12.9841899 8.62787577 13.2323907 8.88847852L13.7237155 8.28117319C13.3177568 7.94456869 12.8318848 7.77414053 12.3022017 7.77414053 11.4451567 7.77414053 10.7919372 8.3359157 10.7919372 9.0787486 10.7919372 9.70943906 11.0956072 10.0293905 11.981797 10.3332203 12.3522179 10.4545751 12.5404369 10.5374861 12.6357686 10.5936459 12.8245516 10.7086229 12.9185671 10.8733819 12.9185671 11.0638292 12.9185671 11.4349799 12.6064358 11.7078067 12.1844943 11.7078067 11.7352884 11.7078067 11.3718247 11.495923 11.1542729 11.0980211L10.5454287 11.6535956C10.9807203 12.2545232 11.5025061 12.5230981 12.2213484 12.5230981 13.2017417 12.5230981 13.8925673 11.9046317 13.8925673 11.0237909 13.8925673 10.2979654 13.5721626 9.96897885 12.4977539 9.59889109M14.1892801 10.1326749C14.1892801 11.4744866 15.307124 12.5142401 16.7461247 12.5142401 17.1518955 12.5142401 17.4997527 12.4387698 17.9280871 12.2483226L17.9280871 11.1997111C17.5495809 11.5581063 17.2173302 11.6994801 16.7874915 11.6994801 15.8366191 11.6994801 15.1630923 11.0512508 15.1630923 10.1262971 15.1630923 9.25236564 15.8584307 8.5600234 16.7461247 8.5600234 17.1940144 8.5600234 17.5362307 8.70954667 17.9280871 9.07325665L17.9280871 8.02588526C17.5142311 7.8287059 17.1746472 7.74703505 16.7654919 7.74703505 15.3347646 7.74703505 14.1892801 8.80716195 14.1892801 10.1326749"/>
    <polyline fill="#1A1919" points="25.579 10.913 24.288 7.85 23.258 7.85 25.311 12.528 25.818 12.528 27.91 7.85 26.889 7.85 25.579 10.913"/>
    <polyline fill="#1A1919" points="28.339 12.413 31.017 12.413 31.017 11.64 29.284 11.64 29.284 10.408 30.951 10.408 30.951 9.635 29.284 9.635 29.284 8.623 31.017 8.623 31.017 7.85 28.339 7.85 28.339 12.413"/>
    <path fill="#1A1919" d="M32.8616918,9.9482511 L32.5875427,9.9482511 L32.5875427,8.56817278 L32.8771103,8.56817278 C33.4671514,8.56817278 33.7832314,8.80149282 33.7832314,9.24598787 C33.7832314,9.70270701 33.4671514,9.9482511 32.8616918,9.9482511 L32.8616918,9.9482511 Z M34.7557273,9.19638299 C34.7557273,8.34193915 34.133721,7.85014229 33.0433297,7.85014229 L31.6406189,7.85014229 L31.6406189,12.4129045 L32.5875427,12.4129045 L32.5875427,10.5784101 L32.7103269,10.5784101 L34.0150735,12.4129045 L35.1769166,12.4129045 L33.653302,10.48983 C34.3653751,10.3527079 34.7557273,9.89457156 34.7557273,9.19638299 L34.7557273,9.19638299 Z"/>
    <path fill="#E6772F" d="M23.3915139,10.1433045 C23.3915139,11.4569478 22.2618241,12.5216808 20.8670106,12.5216808 C19.4725732,12.5216808 18.3426954,11.4569478 18.3426954,10.1433045 C18.3426954,8.82948412 19.4725732,7.76457391 20.8670106,7.76457391 C22.2618241,7.76457391 23.3915139,8.82948412 23.3915139,10.1433045"/>
  </g>
</svg>
