<?xml version="1.0" encoding="utf-8"?>
<svg width="40" height="13.2" viewBox="0 0 40 13.2" xmlns="http://www.w3.org/2000/svg">
  <g fill="none" transform="matrix(0.065027, 0, 0, 0.065027, 0.000065, 0)" style="">
    <path d="M612.179 67.77l-.02-7.015-.05-19.624-26.64.07.07 26.64 26.64-.07zm-26.48 61.04l-.07-26.643 26.64-.069.054 20.73.015 5.912-26.64.07z" fill="#7499C8"/>
    <path d="M373.519 100.062c-6.683 6.029-14.8 11.189-25.59 11.217-15.976.042-28.952-13.562-29-32.17-.051-19.401 12.092-32.6 28.83-32.643 10.197-.027 17.087 3.28 23.832 8.495l10.604-15.712c-8.892-7.484-19.425-12.52-35.643-12.477-29.602.077-49.091 21.762-49.011 52.393.08 30.63 20.418 52.212 49.285 52.136 17.062-.044 30.106-7.926 37.92-15.321l-11.227-15.918zm141.223-44.408c-.015-5.653 5.054-10.514 13.864-10.537 14.892-.04 26.938 9.626 26.938 9.626l10.602-15.71c-4.725-3.568-18.727-12.785-37.174-12.737-21.211.056-35.35 13.776-35.307 29.349.104 40.113 54.82 26.505 54.87 45.498.014 5.324-5.764 10.822-15.044 10.847-16.598.043-31.415-11.975-31.415-11.975l-10.817 16.03c5.097 4.028 20.707 14.825 41.47 14.77 22.428-.058 36.866-15.285 36.826-30.39-.1-37.917-54.764-25.641-54.813-44.771zm-309.23 41.353c.026 9.439-10.342 17.013-21.016 17.04-11.298.03-17.696-5.541-17.72-14.838-.018-6.913 6.102-13.773 18.009-13.804l20.697-.054.03 11.656zM189.087 27.37c-21.5.056-37.504 13.18-37.504 13.18l10.76 15.855s11.95-9.922 26.616-9.96c11.445-.03 16.083 5.533 16.109 15.774l.015 5.548-22.723.059c-22.095.058-35.787 12.773-35.738 31.214.049 18.866 13.415 32.934 35.988 32.875 9.206-.024 18.22-4.18 22.63-10.042l.02 7.93 21.126-.055-.174-66.32c-.063-23.99-12.554-36.122-37.125-36.058zM31.089.258l-31.09.08.34 130.002 21.669-.056-.253-97.03 36.992 96.933 13.189-.034 36.486-97.126.253 97.03 21.702-.057L130 0 98.915.08l-33.67 93.35L31.09.258zM431.587 131.08c9.96-.027 19.004-4.027 23.738-10.41l.022 8.48 20.725-.054-.264-100.8-20.725.055.167 64.059c.03 11.347-10.522 19.81-20.673 19.837-9.28.024-18.856-6.103-18.891-19.734l-.168-64.058-20.726.054.178 67.828c.054 20.779 14.103 34.8 36.617 34.743zM297.69 29.166c-3.937-1.23-8.837-2.246-14.555-2.23-23.815.062-38.097 13.648-38.036 36.82l.172 65.944 20.727-.054-.17-64.622c-.033-12.816 7.85-18.862 19.273-18.892 2.733-.007 6.095.507 8.846 1.34l3.743-18.306zM15.47 183.317H9.96v9.396h5.57c3.13 0 6.959-.871 6.959-4.873 0-3.421-2.784-4.523-7.018-4.523m-.638-15.775H9.96v8.467h5.336c3.712 0 5.858-1.566 5.858-4.465 0-2.785-2.146-4.002-6.322-4.002m1.913 33.174H.39v-41.063h16.355c6.38 0 13.979 2.263 13.979 10.557 0 4.523-2.727 7.539-6.73 8.873v.116c4.7.812 8.412 4.176 8.412 9.57 0 8.932-7.831 11.947-15.661 11.947m42.747-17.399v17.399h-9.918v-17.4l-15.428-23.663h12.006l8.758 15.196 8.758-15.196h11.6zm53.766 18.443c-13.107 0-22.561-8.7-22.561-21.634 0-13.165 9.744-21.575 22.272-21.575 6.437 0 12.411 2.146 15.834 5.452l-6.265 7.134c-1.914-2.204-5.219-3.828-9.221-3.828-6.96 0-12.065 5.452-12.065 12.817 0 7.54 4.467 12.934 12.528 12.934 2.32 0 4.466-.348 6.207-1.102v-7.48h-7.831v-8.005h16.936v21.75c-4.002 2.087-9.512 3.537-15.834 3.537m44.952-34.277c-6.962 0-11.718 5.336-11.718 12.528 0 7.424 4.815 12.759 11.717 12.759 6.901 0 11.773-5.335 11.773-12.76 0-7.191-4.814-12.527-11.773-12.527m0 34.335c-12.818 0-22.33-8.815-22.33-21.807 0-13.166 9.512-21.46 22.33-21.46 12.875 0 22.387 8.294 22.387 21.46 0 12.992-9.512 21.807-22.387 21.807m29.521-1.102v-41.063h9.977v32.421h15.89v8.642zm45.704-32.596h-4.93v24.012h4.698c7.076 0 13.629-2.9 13.629-12.064 0-9.22-6.553-11.948-13.397-11.948m.695 32.596h-15.31v-41.064h14.847c11.658 0 23.489 4.872 23.489 20.416 0 14.442-11.715 20.648-23.026 20.648m67.396 0l.23-29.058h-.172l-10.672 29.058h-6.96l-10.382-29.058h-.174l.233 29.058h-9.338v-41.063h14.093l9.338 26.332h.233l8.93-26.332h14.327v41.063zm35.553-30.101l-5.22 14.094h10.324l-5.104-14.094zm11.02 30.102l-3.19-8.062h-15.893L326 200.717h-10.787l17.225-41.064h9.627l17.052 41.064h-11.019zm41.121-.001l-16.529-26.854h-.174l.231 26.854h-9.627v-41.063h11.31l16.472 26.795h.173l-.232-26.795h9.628v41.063zm57.072-30.391c-1.683-2.147-4.756-3.538-7.309-3.538-2.55 0-5.74.87-5.74 4.117 0 2.727 2.435 3.596 6.32 4.815 5.57 1.797 12.76 4.175 12.76 12.353 0 9.454-7.597 13.689-15.718 13.689-5.857 0-11.773-2.147-15.369-5.917l6.496-6.612c1.972 2.493 5.626 4.35 8.873 4.35 3.017 0 5.685-1.16 5.685-4.465 0-3.132-3.132-4.118-8.526-5.858-5.22-1.683-10.497-4.35-10.497-11.774 0-9.106 8.235-12.877 15.891-12.877 4.64 0 9.86 1.74 13.455 5.046l-6.32 6.67zm29.986.29l-5.22 14.094h10.324l-5.104-14.094zm11.02 30.102l-3.19-8.062h-15.892l-3.016 8.062h-10.787l17.225-41.064h9.627l17.052 41.064h-11.02zm34.161 1.101c-12.644 0-22.097-8.815-22.097-21.691 0-13.165 9.744-21.576 22.272-21.576 5.741 0 11.947 2.088 15.37 6.033l-6.729 6.727c-1.856-2.552-5.162-3.77-8.294-3.77-6.902 0-11.832 5.337-11.832 12.586 0 7.482 4.815 12.586 11.66 12.586 3.884 0 6.96-1.741 8.698-4.176l6.902 6.496c-3.596 4.176-9.048 6.785-15.95 6.785m46.69-1.102v-17.168H552.14v17.168h-9.917v-41.063h9.917v15.543h16.008v-15.543h9.918v41.063zm40.658-30.391c-1.683-2.147-4.756-3.538-7.31-3.538-2.55 0-5.74.87-5.74 4.117 0 2.727 2.436 3.596 6.32 4.815 5.57 1.797 12.76 4.175 12.76 12.353 0 9.454-7.596 13.689-15.717 13.689-5.857 0-11.773-2.147-15.37-5.917l6.497-6.612c1.972 2.493 5.625 4.35 8.873 4.35 3.017 0 5.685-1.16 5.685-4.465 0-3.132-3.132-4.118-8.526-5.858-5.22-1.683-10.497-4.35-10.497-11.774 0-9.106 8.235-12.877 15.89-12.877 4.64 0 9.86 1.74 13.456 5.046l-6.321 6.67z" fill="#14365F"/>
  </g>
</svg>
