<?xml version="1.0" encoding="UTF-8"?>
<svg width="92px" height="16px" viewBox="0 0 92 16" version="1.1" xmlns="http://www.w3.org/2000/svg" xmlns:xlink="http://www.w3.org/1999/xlink">
    <title>Masterpass</title>
    <g id="Symbols" stroke="none" stroke-width="1" fill="none" fill-rule="evenodd">
        <g id="Quick-Checkout-/-Desk-/-Resting" transform="translate(-42.000000, -146.000000)">
            <g id="Component-/-Payment-/-Desk-/-Quick-Checkout_Resting">
                <g>
                    <g id="Masterpass" transform="translate(0.000000, 130.000000)">
                        <g id="mp_mark_hor_blk" transform="translate(42.000000, 16.000000)">
                            <g>
                                <path d="M91.719,5.79 C91.163,5.423 90.395,5.234 89.549,5.234 C88.203,5.234 87.334,5.879 87.334,6.937 C87.334,7.805 87.98,8.339 89.17,8.506 L89.715,8.584 C90.349,8.673 90.65,8.84 90.65,9.14 C90.65,9.552 90.227,9.786 89.437,9.786 C88.636,9.786 88.057,9.53 87.667,9.23 L87.121,10.131 C87.755,10.599 88.557,10.821 89.425,10.821 C90.961,10.821 91.851,10.098 91.851,9.085 C91.851,8.15 91.15,7.66 89.993,7.493 L89.448,7.415 C88.947,7.348 88.546,7.248 88.546,6.892 C88.546,6.502 88.924,6.269 89.559,6.269 C90.238,6.269 90.895,6.525 91.217,6.725 L91.718,5.79 L91.719,5.79 Z M86.166,5.79 C85.61,5.423 84.842,5.234 83.996,5.234 C82.649,5.234 81.781,5.879 81.781,6.937 C81.781,7.805 82.426,8.339 83.617,8.506 L84.162,8.584 C84.796,8.673 85.097,8.84 85.097,9.14 C85.097,9.552 84.674,9.786 83.884,9.786 C83.083,9.786 82.504,9.53 82.114,9.23 L81.569,10.131 C82.203,10.599 83.005,10.821 83.873,10.821 C85.409,10.821 86.299,10.098 86.299,9.085 C86.299,8.15 85.598,7.66 84.441,7.493 L83.896,7.415 C83.395,7.348 82.995,7.248 82.995,6.892 C82.995,6.502 83.373,6.269 84.008,6.269 C84.687,6.269 85.344,6.525 85.666,6.725 L86.167,5.79 L86.166,5.79 Z M72.911,8.005 C72.911,8.94 72.299,9.708 71.297,9.708 C70.34,9.708 69.695,8.974 69.695,8.005 C69.695,7.037 70.34,6.302 71.297,6.302 C72.299,6.302 72.911,7.07 72.911,8.005 Z M68.604,8.005 L68.604,12.59 L69.761,12.59 L69.761,10.019 C70.128,10.497 70.685,10.798 71.442,10.798 C72.933,10.798 74.102,9.629 74.102,8.004 C74.102,6.379 72.933,5.211 71.442,5.211 C70.685,5.211 70.129,5.511 69.761,5.99 L69.761,5.345 L68.604,5.345 L68.604,8.005 Z M76.138,8.016 C76.138,7.081 76.75,6.313 77.752,6.313 C78.709,6.313 79.355,7.047 79.355,8.016 C79.355,8.984 78.709,9.719 77.752,9.719 C76.75,9.719 76.138,8.951 76.138,8.016 Z M80.445,8.016 L80.445,5.356 L79.287,5.356 L79.287,6.002 C78.92,5.523 78.363,5.223 77.607,5.223 C76.116,5.223 74.947,6.391 74.947,8.016 C74.947,9.641 76.115,10.81 77.607,10.81 C78.364,10.81 78.92,10.51 79.287,10.031 L79.287,10.677 L80.445,10.677 L80.445,8.017 L80.445,8.016 Z M41.86,8.016 C41.86,7.081 42.472,6.313 43.474,6.313 C44.431,6.313 45.077,7.047 45.077,8.016 C45.077,8.984 44.432,9.719 43.474,9.719 C42.472,9.719 41.86,8.951 41.86,8.016 Z M46.167,8.016 L46.167,5.356 L45.01,5.356 L45.01,6.002 C44.643,5.523 44.086,5.223 43.329,5.223 C41.838,5.223 40.669,6.391 40.669,8.016 C40.669,9.641 41.838,10.81 43.329,10.81 C44.086,10.81 44.642,10.51 45.01,10.031 L45.01,10.677 L46.167,10.677 L46.167,8.017 L46.167,8.016 Z M60.524,6.258 C61.27,6.258 61.748,6.726 61.871,7.549 L59.111,7.549 C59.233,6.781 59.701,6.258 60.524,6.258 L60.524,6.258 Z M60.546,5.223 C58.988,5.223 57.897,6.358 57.897,8.016 C57.897,9.708 59.032,10.81 60.624,10.81 C61.425,10.81 62.16,10.61 62.805,10.064 L62.237,9.207 C61.792,9.563 61.224,9.763 60.69,9.763 C59.944,9.763 59.265,9.418 59.098,8.461 L63.049,8.461 L63.071,8.016 C63.06,6.358 62.036,5.223 60.545,5.223 L60.546,5.223 Z M51.888,5.779 C51.332,5.412 50.564,5.223 49.718,5.223 C48.371,5.223 47.503,5.869 47.503,6.926 C47.503,7.794 48.149,8.328 49.339,8.495 L49.884,8.573 C50.518,8.662 50.819,8.829 50.819,9.129 C50.819,9.541 50.396,9.775 49.606,9.775 C48.805,9.775 48.226,9.519 47.836,9.218 L47.291,10.12 C47.925,10.587 48.727,10.81 49.595,10.81 C51.131,10.81 52.021,10.086 52.021,9.074 C52.021,8.139 51.32,7.649 50.162,7.482 L49.617,7.404 C49.116,7.337 48.715,7.237 48.715,6.881 C48.715,6.491 49.093,6.258 49.728,6.258 C50.407,6.258 51.064,6.514 51.386,6.714 L51.887,5.779 L51.888,5.779 Z M66.812,5.223 C66.144,5.223 65.71,5.535 65.41,6.002 L65.41,5.356 L64.264,5.356 L64.264,10.676 L65.422,10.676 L65.422,7.693 C65.422,6.814 65.8,6.324 66.557,6.324 C66.791,6.324 67.035,6.357 67.28,6.458 L67.636,5.367 C67.38,5.267 67.046,5.222 66.812,5.222 L66.812,5.223 Z M56.94,5.357 L55.048,5.357 L55.048,3.743 L53.879,3.743 L53.879,5.357 L52.8,5.357 L52.8,6.414 L53.879,6.414 L53.879,8.84 C53.879,10.075 54.358,10.81 55.727,10.81 C56.228,10.81 56.807,10.654 57.174,10.398 L56.84,9.407 C56.495,9.607 56.116,9.707 55.816,9.707 C55.237,9.707 55.048,9.351 55.048,8.817 L55.048,6.413 L56.94,6.413 L56.94,5.356 L56.94,5.357 Z M39.646,10.677 L39.646,7.338 C39.646,6.08 38.845,5.235 37.554,5.224 C36.875,5.213 36.174,5.424 35.684,6.17 C35.317,5.58 34.738,5.224 33.926,5.224 C33.358,5.224 32.802,5.391 32.368,6.014 L32.368,5.357 L31.211,5.357 L31.211,10.677 L32.379,10.677 L32.379,7.728 C32.379,6.804 32.891,6.315 33.681,6.315 C34.449,6.315 34.838,6.816 34.838,7.717 L34.838,10.677 L36.007,10.677 L36.007,7.728 C36.007,6.804 36.541,6.315 37.309,6.315 C38.099,6.315 38.478,6.816 38.478,7.717 L38.478,10.677 L39.647,10.677 L39.646,10.677 Z" id="Shape" fill="#000000" fill-rule="nonzero"></path>
                                <polygon id="Path" fill="#FF5F00" fill-rule="nonzero" points="9.443 14.29 16.443 14.29 16.443 1.711 9.443 1.711"></polygon>
                                <path d="M9.888,8 C9.888,5.448 11.083,3.175 12.944,1.71 C11.583,0.639 9.866,0 8,0 C3.582,0 0.001,3.582 0.001,8 C0.001,12.418 3.582,16 8,16 C9.866,16 11.583,15.361 12.944,14.29 C11.083,12.825 9.888,10.552 9.888,8" id="Path" fill="#EC001B" fill-rule="nonzero"></path>
                                <path d="M25.887,8 C25.887,12.418 22.305,16 17.888,16 C16.022,16 14.305,15.361 12.944,14.29 C14.805,12.825 16,10.552 16,8 C16,5.448 14.805,3.175 12.944,1.71 C14.305,0.639 16.022,-8.8817842e-16 17.888,-8.8817842e-16 C22.306,-8.8817842e-16 25.887,3.582 25.887,8" id="Path" fill="#F89E1B" fill-rule="nonzero"></path>
                            </g>
                        </g>
                    </g>
                </g>
            </g>
        </g>
    </g>
</svg>
