<svg height="50" viewBox="0 0 77 50" width="77" xmlns="http://www.w3.org/2000/svg" xmlns:xlink="http://www.w3.org/1999/xlink"><defs><rect id="a" height="48" rx="6" width="75"/><mask id="b" fill="#fff"><use fill="#fff" fill-rule="evenodd" xlink:href="#a"/></mask></defs><g fill="none" fill-rule="evenodd" transform="translate(1 1)"><use fill="#fff" stroke="#d8d8d8" stroke-width="1.5" xlink:href="#a"/><g fill-rule="nonzero" mask="url(#b)"><g transform="translate(9.5 6.5)"><path d="m19.406529 3.669834h16.413899v26.808737h-16.413899z" fill="#ff5f00"/><path d="m21.0971704 17.0765702c-.0041213-5.2305682 2.3970207-10.17255495 6.5115729-13.40200085-6.9899768-5.49337511-17.0278637-4.69321752-23.0593037 1.83814352-6.03143997 6.53136103-6.03143997 16.60108923 0 23.13245033 6.03144 6.531361 16.0693269 7.3315186 23.0593037 1.8381435-4.1158616-3.2304714-6.5171503-8.1745065-6.5115729-13.4067365z" fill="#eb001b"/><g fill="#f79e1b"><path d="m53.5650565 27.6418931v-.54934h.2367845v-.1136565h-.563547v.1136565h.2225774v.54934zm1.0939443 0v-.6629965h-.1704848l-.198899.4735689-.198899-.4735689h-.1704848v.6629965h.123128v-.5019831l.1846918.4309478h.1278637l.1846918-.4309478v.5019831z"/><path d="m55.1941337 17.0765702c0 6.5273807-3.7272618 12.4816908-9.5984111 15.3341118-5.8711492 2.852421-12.8555806 2.1021729-17.9869793-1.932111 4.1127569-3.2321876 6.5140796-8.1735173 6.5140796-13.4043687 0-5.2308513-2.4013227-10.17218102-6.5140796-13.40436864 5.1313987-4.03428394 12.1158301-4.78453202 17.9869793-1.932111 5.8711493 2.85242102 9.5984111 8.80673104 9.5984111 15.33411184z"/></g></g></g></g></svg>
