<svg height="50" viewBox="0 0 77 50" width="77" xmlns="http://www.w3.org/2000/svg" xmlns:xlink="http://www.w3.org/1999/xlink"><defs><rect id="a" height="48" rx="6" width="75"/><mask id="b" fill="#fff"><use fill="#fff" fill-rule="evenodd" xlink:href="#a"/></mask></defs><g fill="none" fill-rule="evenodd" transform="translate(1 1)"><use fill="#fff" stroke="#d8d8d8" stroke-width="1.5" xlink:href="#a"/><g fill-rule="nonzero" mask="url(#b)"><g transform="translate(6 15)"><g fill="#052c18"><path d="m.1555554 2.37556324v10.45247826s-.0906888 2.0852694 1.3870875 3.7217157 4.11568477 1.979636 5.7490165 1.9268985c1.63333167-.0528958 4.8416618-.3959272 6.086105-.8447502v-15.25634226h-4.04444041v12.51129966s-1.87957588.5015606-3.22777454.1848189c-1.34819865-.3167418-2.06110905-1.425338-2.06110905-2.9298614v-9.76625716z"/><path d="m15.0759627 18.3710223 6.1313716-15.99545906h4.7704175l2.2815311 6.11042377-.4148663 1.45843742-2.8259749.46513527-1.4777763-4.04336696-4.2777735 12.00482956z"/><path d="m25.9259519 13.0655978 1.7629093 5.1470537 4.3037512-.026448-2.5148641-6.651577s-.9916657.5015606-1.8472204.8776914c-.9958657.4378955-1.704576.6532799-1.704576.6532799"/><path d="m32.1999678 2.37556324v3.48415941h4.666662v12.51129965h3.888885v-12.51129965h4.666662v-3.48415941z"/><path d="m48.8443956 2.37556324s3.8985294-.47511265 5.7944387-.35633449c3.4709076.24737532 5.9792384 1.93006594 5.9792384 5.86954165 0 3.9394757-2.9361082 5.1174383-4.2390402 5.4637954-1.3027764.3465155-3.6457519.2673301-3.6457519.2673301v4.7511264h-3.888885zm3.888885 3.32578852v4.43438474s1.9147314.3718548 3.1499969-.50156063c.9333324-.65977308.7843103-1.9531881.6934659-2.34911528-.0906888-.39592718-.431044-1.18778162-1.2217321-1.47807545-1.1125322-.40859687-2.6217307-.10563338-2.6217307-.10563338z"/></g><path d="m16.5666501 14.4711394.3305552-.8710399s-1.9055536.5839135-2.965197.796764c-.0098.2524431-.0098.3118322-.0098.3118322s.6903549-.0495701 1.3514653-.1089592c.6611105-.059389 1.2929765-.1285971 1.2929765-.1285971" fill="#43b748"/><path d="m21.4764452 12.1251915s2.6151974-.7224879 10.7235226-6.26546885h4.666662l-.0129111.65993145s-8.3287472 5.7342929-15.9120729 7.1596309c.4570217-1.3363335.5347994-1.5540935.5347994-1.5540935" fill="#43b748"/><path d="m45.3961991 2.37556324s1.2704209-.65327989 4.5176399-1.10859618c2.6861306-.37660596 6.6499933.15837088 6.6499933.15837088s0 0 .0194444-.2969454c-2.2555532-.69287261-5.7749942-1.00961438-6.8249931-1.0492071-1.049999-.03959272-3.7722185.07918544-6.0666606.43551993-2.2944422.35633448-5.7490165 1.86085787-5.7490165 1.86085787z" fill="#43b748"/><path d="m60.1756732 2.50178483-.002489.24737532.4399108.00253393.0024888 1.23608474.2868442-.00443439.0048222-1.23323406.4277773-.00839365-.0024888-.23502239z" fill="#052c18"/><path d="m61.5125163 2.50669433.0023333 1.48472702.2673999-.0049095-.0024891-1.15563233.3135995 1.15072284.2540219-.00506787.319511-1.17542869.0146221 1.18778161.2625776-.00490949-.0049776-1.48710259-.415644.00237557-.2891777 1.04176366-.2891771-1.04413923z" fill="#052c18"/></g></g></g></svg>
