<svg height="50" viewBox="0 0 77 50" width="77" xmlns="http://www.w3.org/2000/svg" xmlns:xlink="http://www.w3.org/1999/xlink"><defs><rect id="a" height="48" rx="6" width="75"/><mask id="b" fill="#fff"><use fill="#fff" fill-rule="evenodd" xlink:href="#a"/></mask></defs><g fill="none" fill-rule="evenodd" transform="translate(1 1)"><use fill="#fff" stroke="#d8d8d8" stroke-width="1.5" xlink:href="#a"/><g mask="url(#b)"><g transform="translate(4.5 4.5)"><path d="m0 39.0108h66v-5.616h-66z" fill="#f7b600"/><g fill="#1a1f71"><path d="m0 5.616h66v-5.616h-66z"/><path d="m32.28009 11.80332-3.3018 15.4365h-3.9936l3.3021-15.4365zm16.8012 9.9678 2.1024-5.7972 1.2093 5.7972zm4.4577 5.4687h3.6927l-3.2262-15.4365h-3.4065c-.7677 0-1.4145.4452-1.701 1.1316l-5.9925 14.3049h4.194l.8328-2.3052h5.1228zm-10.4256-5.0397c.0177-4.0737-5.6313-4.2996-5.5938-6.1197.0123-.5532.5397-1.1424 1.6932-1.293.5721-.0738 2.1498-.1332 3.9387.6909l.6996-3.2748c-.9609-.3474-2.1972-.6822-3.7353-.6822-3.948 0-6.7254 2.097-6.7476 5.1024-.0252 2.2224 1.9839 3.4614 3.4944 4.2015 1.5576.7566 2.0796 1.242 2.0721 1.9179-.0108 1.0356-1.2423 1.494-2.3883 1.5114-2.0094.0312-3.1734-.543-4.1016-.9756l-.7248 3.384c.9345.4278 2.6565.8001 4.4397.8193 4.197 0 6.9414-2.0727 6.9537-5.2821zm-16.5396-10.3968-6.4707 15.4365h-4.221l-3.1845-12.3195c-.1929-.7575-.3612-1.0359-.9483-1.356-.9603-.5217-2.5458-1.0095-3.9396-1.3131l.0942-.4479h6.7956c.8655 0 1.6443.576 1.8423 1.5729l1.6821 8.9334 4.1544-10.5063z"/></g></g></g></g></svg>
