<svg xmlns="http://www.w3.org/2000/svg" width="20" height="16" viewBox="0 0 20 16"><g transform="translate(-.5 -.5)"><path d="M19.492 5.288c0-.584-.86-1.388-1.49-1.388h-7.793a.908.908 0 0 1-.909-.908V2.32a.82.82 0 0 0-.82-.82H5.612c-.64 0-.911.453-.911 1.492a.908.908 0 0 1-.908.908h-.904c-.762 0-1.388.626-1.388 1.388v9.09a1.12 1.12 0 0 0 1.117 1.115h15.76a1.12 1.12 0 0 0 1.115-1.116v-9.09zM10.3 2.9h7.701c1.17 0 2.491 1.236 2.491 2.388v9.09a2.12 2.12 0 0 1-2.116 2.115H2.616A2.12 2.12 0 0 1 .5 14.377v-9.09A2.394 2.394 0 0 1 2.888 2.9h.813C3.724 1.433 4.308.5 5.61.5h2.87A1.82 1.82 0 0 1 10.3 2.32v.58z"/><path d="M16.496 9.803h.5a3.5 3.5 0 1 1-7 0 3.5 3.5 0 0 1 7 0h-.5zm0 0h-.5a2.5 2.5 0 1 0-5 0 2.5 2.5 0 0 0 5 0h.5z"/></g></svg>