<svg xmlns="http://www.w3.org/2000/svg" width="72" height="72" viewBox="0 0 72 72"><g fill="none" fill-rule="evenodd" stroke="#00205B" stroke-linecap="round" stroke-width="1.5" transform="translate(8 5)"><path fill="#90C6E6" d="M25.952 51.555c1.346 2.662 2.887 5.706 4.621 9.13.263.54.916.763 1.458.499l6.143-2.997c.381-.185.613-.574.611-.996a5.23 5.23 0 0 1 1.727-3.916 5.259 5.259 0 0 1 6.786-.239c.331.263.78.32 1.163.134l6.146-2.997a1.09 1.09 0 0 0 .506-1.456c-3.39-6.715-5.916-11.688-7.54-15.019a3347.23 3347.23 0 0 1-14.462 7.097c-.65 3.446-3.052 8.25-7.159 10.76z"/><path d="M33.016 40.942l14.62-7.13L31.898 1.186A1.089 1.089 0 0 0 30.441.69l-6.142 2.996a1.094 1.094 0 0 0-.611.996A5.233 5.233 0 0 1 21.96 8.6a5.26 5.26 0 0 1-6.786.237 1.099 1.099 0 0 0-1.163-.133l-6.147 2.998a1.088 1.088 0 0 0-.506 1.455l4.094 8.487"/><ellipse cx="16.704" cy="37.655" rx="16.602" ry="16.681"/><path stroke-linejoin="round" d="M16.704 30.241V45.07m-7.379-7.414h14.757"/></g></svg>