<svg xmlns="http://www.w3.org/2000/svg" width="72" height="72" viewBox="0 0 72 72"><g fill="none" fill-rule="evenodd" stroke-linecap="round" stroke-width="1.5" transform="translate(11 2)"><path stroke="#00205B" d="M40.097 40.833l7.012 19.611a.831.831 0 0 1-.944 1.105l-9.057-1.652a.831.831 0 0 0-.822.32L31.3 67.057a.831.831 0 0 1-1.445-.208L25 53.875M10.16 41.088L3.174 60.444a.831.831 0 0 0 .944 1.105l9.058-1.652a.831.831 0 0 1 .821.32l4.996 6.839a.831.831 0 0 0 1.445-.208l7.125-20.304"/><path fill="#8DC8E8" stroke="#00205B" d="M49.792 24.027c0 2.521-3.136 4.524-3.882 6.8s.576 5.817-.86 7.782c-1.435 1.964-5.156 1.775-7.14 3.211-1.983 1.436-2.899 5.034-5.26 5.799-2.361.765-5.128-1.606-7.65-1.606-2.522 0-5.383 2.343-7.66 1.596-2.276-.746-3.296-4.363-5.26-5.798-1.964-1.436-5.667-1.228-7.14-3.212-1.473-1.983-.094-5.42-.86-7.782C3.317 28.457.2 26.548.2 24.017c0-2.53 3.135-4.524 3.882-6.8.746-2.276-.577-5.818.859-7.782 1.436-1.964 5.157-1.776 7.14-3.211 1.983-1.436 2.9-5.034 5.26-5.799C19.703-.34 22.479 2.04 25 2.04c2.522 0 5.383-2.342 7.66-1.596 2.276.746 3.296 4.363 5.26 5.799 1.964 1.435 5.667 1.228 7.14 3.21 1.473 1.984.094 5.422.86 7.783.764 2.361 3.872 4.26 3.872 6.79zM25 39.44c8.513 0 15.413-6.9 15.413-15.413S33.513 8.613 25 8.613 9.587 15.514 9.587 24.027c0 8.512 6.9 15.413 15.413 15.413z"/><path stroke="#8DC8E8" d="M29.533 20.249c0-2.05-2.106-3.683-4.646-3.646-2.54.038-4.571 1.729-4.534 3.778.038 2.05 2.116 3.683 4.647 3.646 2.54 0 4.618 1.596 4.647 3.645.028 2.05-2.003 3.778-4.534 3.778-2.53 0-4.618-1.596-4.646-3.646M25.142 34l-.293-19.918"/></g></svg>