<svg xmlns="http://www.w3.org/2000/svg" width="72" height="72" viewBox="0 0 72 72"><g fill="none" fill-rule="evenodd" transform="translate(4 -2)"><path stroke="#00205B" stroke-linecap="round" stroke-width="1.5" d="M5.204 39.698l26.067-26.067a6 6 0 0 1 4.276-1.757l19.623.11a4 4 0 0 1 3.977 3.979l.105 19.498a6 6 0 0 1-1.757 4.275L31.368 65.862c-2.681 2.682-7.275 2.44-10.256-.54L5.745 49.953c-2.982-2.982-3.223-7.574-.54-10.256z"/><path fill="#00205B" d="M47.03 24.037c-1.145-1.146-1.156-2.99-.027-4.119 1.127-1.127 2.97-1.114 4.114.03 1.146 1.146 1.158 2.988.031 4.116-1.129 1.129-2.973 1.118-4.118-.027"/><path stroke="#8DC8E8" stroke-linecap="round" stroke-width="1.5" d="M33.363 30.988c-1.853-1.853-5.216-1.498-7.512.798-2.294 2.294-2.652 5.66-.798 7.513 1.853 1.853 5.218 1.496 7.512-.798 2.297-2.296 5.658-2.653 7.513-.798 1.853 1.854 1.498 5.216-.798 7.513-2.294 2.294-5.659 2.65-7.512.797"/><path stroke="#8DC8E8" stroke-linecap="round" stroke-width="1.5" d="M41.577 47.514L23.553 29.489"/></g></svg>