<svg xmlns="http://www.w3.org/2000/svg" width="67" height="69" viewBox="0 0 67 69"><g fill="none" fill-rule="evenodd"><path d="M15.974 60.377L11.1 64.061a.957.957 0 0 0-.335 1.04l.3.984a.957.957 0 0 0 1.213.631l4.05-1.324-.353-5.015zM22.166 60.365l4.829 3.696a.956.956 0 0 1 .335 1.04l-.3.984a.957.957 0 0 1-1.213.63l-3.952-1.293.3-5.057z" fill="#00205B"/><path d="M15.73 44.018L1.979 55.334a.965.965 0 0 0-.349.663l-.21 2.447a.938.938 0 0 0 1.353.921L15.89 52.96l-.158-8.942zM22.363 44.018l13.752 11.316a.964.964 0 0 1 .35.662l.21 2.448a.938.938 0 0 1-1.353.921l-13.13-6.349.17-8.998z" stroke="#00205B" stroke-width="1.5" fill="#8DC8E8" stroke-linecap="round"/><path d="M19.174 67.4h-.255c-1.81 0-2.842-1.48-2.842-3.292l-.45-30.74a3.302 3.302 0 0 1 3.293-3.293h.254a3.303 3.303 0 0 1 3.293 3.292l-.016 1.083-.435 29.658c0 1.81-1.031 3.292-2.842 3.293z" stroke="#00205B" stroke-width="1.5" stroke-linecap="round"/><g fill-rule="nonzero" stroke="#00205B" stroke-linecap="round" stroke-width="1.5"><path d="M64.114 28.848A19.944 19.944 0 0 1 44.94 39.77l-11.61 3.94a2.11 2.11 0 0 1-2.646-2.89l2.762-5.607a19.023 19.023 0 0 1-5.082-23.185C33.288 2.334 45.042-1.669 54.86 3.006a19.14 19.14 0 0 1 9.255 25.842z"/><path d="M37.943 27.146h10.106M37.943 21.19h17.085M37.943 15.234h17.085" fill="#FFF"/></g></g></svg>