<svg xmlns="http://www.w3.org/2000/svg" width="72" height="72" viewBox="0 0 72 72"><g fill="none" fill-rule="evenodd" transform="translate(13 1)"><path fill="#8DC8E8" stroke="#00205B" stroke-linecap="round" stroke-width="1.5" d="M22.322 17.362H7.872a2 2 0 0 0-2 2v36.83a2 2 0 0 0 2 2h24.073a2 2 0 0 0 2-2V32.105l2.984-1.069h2.229v35.678a3 3 0 0 1-3 3H3.668a3 3 0 0 1-3-3v-53.97a3 3 0 0 1 3-3h19.834c-.777 1.854-1.442 4.302-1.18 7.618z"/><path stroke="#00205B" stroke-linecap="round" stroke-width="1.5" d="M52.071 22.4a15.76 15.76 0 0 1-15.151 8.63l-9.174 3.113a1.667 1.667 0 0 1-2.09-2.284l2.182-4.43a15.032 15.032 0 0 1-4.016-18.32C27.713 1.45 37.001-1.714 44.758 1.98A15.124 15.124 0 0 1 52.07 22.4z"/><path fill="#FFF" fill-rule="nonzero" stroke="#00205B" stroke-linecap="round" stroke-width="1.5" d="M31.391 21.055h7.986M31.39 16.35h13.5m-13.5-4.707h13.5"/><circle cx="19.908" cy="64.289" r="1.686" fill="#00205B" fill-rule="nonzero"/></g></svg>