<svg xmlns="http://www.w3.org/2000/svg" width="72" height="72" viewBox="0 0 72 72"><g fill="none" fill-rule="evenodd" transform="translate(4 4)"><path fill="#91C8E5" fill-rule="nonzero" d="M32.004.42A31.562 31.562 0 1 1 3.27 18.856l7.276 3.327A23.562 23.562 0 1 0 32 8.419l.004-8z"/><circle cx="32" cy="32" r="30.793" stroke="#1D2759" stroke-linecap="round" stroke-width="1.5"/><circle cx="32" cy="32" r="23.034" stroke="#1D2759" stroke-linecap="round" stroke-width="1.5"/><path fill="#00205B" d="M25.151 29.775l-2.784-3.716a.725.725 0 0 0-.786-.255l-.741.224a.718.718 0 0 0-.474.914l1.126 3 3.659-.167z"/><path fill="#00205B" d="M25.217 34.355l-2.815 3.696a.718.718 0 0 1-.784.251l-.743-.229a.727.727 0 0 1-.478-.916l1.025-2.999 3.795.197z"/><path fill="#8DC8E8" stroke="#00205B" stroke-linecap="round" stroke-width="1.5" d="M37.498 29.598l-8.568-10.4a.733.733 0 0 0-.5-.265l-1.847-.164a.704.704 0 0 0-.692 1.019l4.852 9.917 6.755-.107z"/><path fill="#8DC8E8" stroke="#00205B" stroke-linecap="round" stroke-width="1.5" d="M37.513 34.602l-8.506 10.35a.722.722 0 0 1-.5.262l-1.845.153a.712.712 0 0 1-.699-1.023l4.791-9.883 6.759.14z"/><path stroke="#00205B" stroke-linecap="round" stroke-width="1.5" d="M19.865 32.144v-.193c-.004-1.365 1.11-2.14 2.477-2.136l23.19-.271a2.51 2.51 0 0 1 2.492 2.491l.001.192a2.474 2.474 0 0 1-2.476 2.477l-.818-.015-22.375-.394c-1.366-.004-2.486-.785-2.49-2.151z"/></g></svg>