<svg xmlns="http://www.w3.org/2000/svg" width="72" height="72" viewBox="0 0 72 72"><g fill="none" fill-rule="evenodd" transform="translate(-1 -1)"><path stroke="#00205B" stroke-linecap="round" stroke-width="1.5" d="M30.71 54.701V43.246a2.74 2.74 0 0 1 2.74-2.74h33.238a2.74 2.74 0 0 1 2.74 2.74v11.398"/><rect width="10.709" height="8.038" x="53.443" y="46.877" fill="#8DC8E8" fill-rule="nonzero" stroke="#1D2759" stroke-linecap="round" stroke-width="1.5" rx="2.74"/><rect width="10.709" height="8.038" x="35.986" y="46.877" fill="#8DC8E8" fill-rule="nonzero" stroke="#1D2759" stroke-linecap="round" stroke-width="1.5" rx="2.74"/><path stroke="#00205B" stroke-linecap="round" stroke-width="1.5" d="M69.428 67.457H30.71"/><path fill="#00205B" fill-rule="nonzero" d="M72.282 53.304H27.855a1.39 1.39 0 0 0-1.39 1.39v15.304c0 .768.622 1.39 1.39 1.39h5v-7.301a1.39 1.39 0 0 1 1.372-1.381h31.665a1.39 1.39 0 0 1 1.39 1.38v7.293h5a1.39 1.39 0 0 0 1.39-1.39V54.695a1.39 1.39 0 0 0-1.39-1.39z"/><path fill="#00205B" d="M10.552 21.407l-4.498-6.004a1.172 1.172 0 0 0-1.27-.412l-1.197.362a1.16 1.16 0 0 0-.765 1.476l1.82 4.848 5.91-.27z"/><path fill="#00205B" d="M10.658 28.805l-4.547 5.97a1.16 1.16 0 0 1-1.266.405l-1.2-.37a1.174 1.174 0 0 1-.773-1.48l1.656-4.843 6.13.318z"/><path fill="#8DC8E8" stroke="#00205B" stroke-linecap="round" stroke-width="1.5" d="M30.497 21.12l-13.84-16.8a1.184 1.184 0 0 0-.81-.429l-2.983-.265a1.137 1.137 0 0 0-1.117 1.646l7.838 16.02 10.912-.172z"/><path fill="#8DC8E8" stroke="#00205B" stroke-linecap="round" stroke-width="1.5" d="M30.521 29.203l-13.74 16.719a1.167 1.167 0 0 1-.807.423l-2.982.248a1.15 1.15 0 0 1-1.128-1.653l7.739-15.964 10.918.227z"/><path stroke="#00205B" stroke-linecap="round" stroke-width="1.5" d="M2.013 25.232v-.31c-.007-2.207 1.794-3.459 4.001-3.452l37.462-.437a4.053 4.053 0 0 1 4.025 4.024v.31a3.996 3.996 0 0 1-4 4l-1.32-.022-36.145-.637c-2.207-.006-4.016-1.27-4.023-3.476z"/></g></svg>