<svg xmlns="http://www.w3.org/2000/svg" width="72" height="72" viewBox="0 0 72 72"><g fill="none" fill-rule="evenodd" transform="translate(6 6)"><path fill="#00205B" d="M16.616 35.705l-10.46-1.456a1.654 1.654 0 0 0-1.682.862l-.835 1.569a1.654 1.654 0 0 0 .71 2.254l6.57 3.332 5.697-6.561zm7.583 7.552l1.384 10.42a1.653 1.653 0 0 1-.861 1.682l-1.569.835a1.655 1.655 0 0 1-2.254-.712l-3.25-6.41 6.55-5.815z"/><path fill="#8DC8E8" stroke="#00205B" stroke-linecap="round" stroke-width="1.5" d="M36.314 15.412l-30.64-2.978a1.668 1.668 0 0 0-1.237.384l-3.248 2.734c-.972.817-.676 2.364.528 2.78l23.86 8.204 10.737-11.124zm8.106 8.106l2.978 30.64c.044.448-.094.896-.383 1.237l-2.734 3.248c-.818.971-2.365.677-2.781-.528l-8.287-23.807 11.207-10.79z"/><path stroke="#00205B" stroke-linecap="round" stroke-width="1.5" d="M11.943 48.2l-.311-.311c-2.213-2.213-1.663-5.284.55-7.498L49.205 2.27c2.214-2.214 5.834-2.214 8.048 0l.312.31c2.213 2.214 2.213 5.836 0 8.048l-1.344 1.305L19.44 47.65c-2.212 2.213-5.285 2.763-7.498.55z"/></g></svg>