<svg xmlns="http://www.w3.org/2000/svg" width="72" height="72" viewBox="0 0 72 72"><g fill="none" fill-rule="evenodd" transform="translate(7 6)"><polygon fill="#8DC8E8" fill-rule="nonzero" points="26.672 9.502 31.374 9.502 31.374 67.415 26.672 67.415" transform="rotate(-90 29.023 38.459)"/><path stroke="#00205B" stroke-linecap="round" stroke-width="1.5" d="M57.982 55.016c0 1.683-1.438 3.048-3.218 3.048H3.282c-1.776 0-3.218-1.365-3.218-3.048V21.485c0-1.683 1.442-3.048 3.218-3.048h51.482c1.78 0 3.218 1.365 3.218 3.048v33.531z"/><polygon fill="#00205B" fill-rule="nonzero" points="26.672 17.642 31.374 17.642 31.374 57.525 26.672 57.525"/><path fill="#1D2758" fill-rule="nonzero" d="M26.977 9.516c0-3.413-2.958-6.215-6.647-6.215-3.483 0-6.306 2.676-6.306 5.892v.637c0 3.061 2.657 5.578 5.974 5.578h6.979V9.516zM20.33.166c5.384 0 9.782 4.167 9.782 9.35v9.027H19.998c-5.012 0-9.11-3.881-9.11-8.713v-.637c0-4.986 4.264-9.027 9.442-9.027z"/><path fill="#1D2758" fill-rule="nonzero" d="M38.05.166c5.196 0 9.438 4.022 9.438 9.027 0 5.184-4.395 9.35-9.779 9.35h-9.444v-9.43c0-4.96 4.208-8.947 9.36-8.947h.425zM31.4 15.408h6.31c3.688 0 6.643-2.801 6.643-6.215 0-3.235-2.802-5.892-6.303-5.892h-.425c-3.457 0-6.225 2.622-6.225 5.813v6.294z"/></g></svg>