<svg xmlns="http://www.w3.org/2000/svg" width="72" height="72" viewBox="0 0 72 72"><g fill="none" fill-rule="evenodd" transform="translate(5 5)"><path fill="#8DC8E8" fill-rule="nonzero" stroke="#00205B" stroke-linecap="round" stroke-width="1.5" d="M12.228 14.639H48.05c6.658 0 12.056 5.397 12.056 12.055v33.584c0 .95-.772 1.722-1.723 1.722H1.894a1.722 1.722 0 0 1-1.722-1.722V26.694c0-6.658 5.398-12.055 12.056-12.055zm-.495 6.725a4 4 0 0 0-4 4v26.78a4 4 0 0 0 4 4h36.812a4 4 0 0 0 4-4v-26.78a4 4 0 0 0-4-4H11.733z"/><rect width="36.287" height="26.987" x="11.995" y="25.256" stroke="#00205B" stroke-linecap="round" stroke-linejoin="round" stroke-width="1.5"/><path fill="#00205B" fill-rule="nonzero" d="M27.185 43.477l6.691-4.305a.474.474 0 0 0 0-.792l-6.69-4.306a.474.474 0 0 0-.733.396v8.586a.474.474 0 0 0 .732.422z"/><path stroke="#1D2758" stroke-linecap="round" stroke-width="1.5" d="M50.866 9.42l3.048-7.904A1.998 1.998 0 0 1 56.093.06l3.883.491a1.998 1.998 0 0 1 1.68 2.523l-2.894 7.354"/><circle cx="49.556" cy="8.726" r="2.144" fill="#1D2758" fill-rule="nonzero" transform="rotate(-44.65 49.556 8.726)"/><circle cx="57.45" cy="9.81" r="2.092" fill="#1D2758" fill-rule="nonzero" transform="rotate(-74.65 57.45 9.81)"/><path stroke="#1D2758" stroke-linecap="round" stroke-width="1.5" d="M53.639 2.618l7.56 1.059"/></g></svg>