<svg xmlns="http://www.w3.org/2000/svg" width="72" height="72" viewBox="0 0 72 72"><g fill="none" transform="translate(7 7)"><path stroke="#00205B" stroke-linecap="round" stroke-width="1.5" d="M16.097 46.152H5.307L.993 11.443a2.053 2.053 0 0 1 2.035-2.32h4.548c.93.003 1.742.63 1.98 1.529l6.54 35.5z"/><rect width="41.088" height="9.584" x=".681" y="46.023" fill="#8DC8E8" stroke="#00205B" stroke-linecap="round" stroke-width="1.5" rx="2"/><circle cx="20.88" cy="7.503" r="7.365" fill="#00205B"/><path fill="#00205B" d="M42.25 40.186H27.034a4.527 4.527 0 0 1-4.252-2.975 5.677 5.677 0 0 1-.522-1.328l-3.079-12.098a5.667 5.667 0 0 1 10.983-2.795l2.582 10.146h11.817c.126 0 .25.005.372.015a4.527 4.527 0 0 1 4.59 2.838l6.476 16.289a4.525 4.525 0 1 1-8.41 3.343L42.25 40.186z"/></g></svg>