<svg xmlns="http://www.w3.org/2000/svg" width="72" height="72" viewBox="0 0 72 72"><g fill="none" fill-rule="evenodd" stroke-linecap="round" stroke-width="1.5" transform="translate(1)"><path stroke="#1D2758" d="M64.974 65.545L50.894 52.09m.285-31.066c8.485 8.485 8.485 22.243 0 30.728-8.485 8.483-22.243 8.483-30.728 0-8.483-8.485-8.483-22.243 0-30.728 8.485-8.485 22.243-8.485 30.728 0z"/><path stroke="#1D2758" d="M31.253 40.948a4.564 4.564 0 0 0 9.125 0 4.564 4.564 0 0 0-4.563-4.563 4.562 4.562 0 1 1 4.563-4.563m-4.563-7.502v24.496"/><path stroke="#8DC8E8" d="M59.71 10.143l-3.908 4.203M39.757.826l-.71 5.84M21.004 10.25L18.117 5.02M8.549 23.684l-5.457-2.566M70.2 29.5l-5.257.999M6.285 41.81L.38 42.935m14.644 15.073l-3.96 4.242m20.65 3.72l-.67 5.257"/></g></svg>