<svg xmlns="http://www.w3.org/2000/svg" width="72" height="72" viewBox="0 0 72 72"><g fill="none" fill-rule="evenodd" stroke="#00205B" stroke-linecap="round" stroke-width="1.5" transform="translate(1 9)"><path d="M46.288 7.606c0 4.036-3.287 7.306-7.337 7.306-4.051 0-7.336-3.27-7.336-7.306 0-4.035 3.285-7.305 7.336-7.305 4.05 0 7.337 3.27 7.337 7.305z"/><path fill="#FFF" d="M31.848 38.528V51.79m15.216-13.262V51.79"/><path fill="#8DC8E8" d="M42.942 40.423H32.481c-.523 0-.633-.133-.633-.656V22.165c0-3.971 3.562-7.224 7.55-7.224 1.998 0 4.016.812 5.327 2.12 1.314 1.313 2.34 3.122 2.34 5.104v17.602c0 .523-.745.656-1.27.656h-2.853z"/><path d="M66.518 42.47H57.94c-.43 0-.52-.107-.52-.537v-8.746c0-3.256 2.92-5.924 6.192-5.924 1.636 0 3.29.667 4.367 1.74 1.075 1.075 1.916 2.559 1.916 4.184v8.746c0 .43-.609.538-1.04.538h-2.338zm2.9-21.219c0 3.308-2.692 5.99-6.013 5.99-3.321 0-6.015-2.682-6.015-5.99 0-3.308 2.694-5.99 6.015-5.99 3.32 0 6.012 2.682 6.012 5.99z"/><path fill="#FFF" d="M57.421 40.917V51.79m12.475-10.873V51.79M6.634 42.53v9.26m12.475-9.285v9.285"/><path stroke-linejoin="round" d="M2.161 41.15l4.942-6.892L9.98 24.105c.266-.528.882-2.85 3.355-2.85s3.121 2.354 3.386 2.884l2.845 10.12 4.942 6.892c.241.477.186.617-.061 1.019-.25.4-.693.301-1.23.301H3.452c-.539 0-.98.099-1.23-.301-.248-.402-.302-.542-.062-1.02z"/><path d="M19.315 15.367c0 3.253-2.648 5.889-5.91 5.889-3.266 0-5.913-2.636-5.913-5.889 0-3.25 2.647-5.888 5.913-5.888 3.262 0 5.91 2.637 5.91 5.888zM.707 13.481l-.636-.633.995-.992a3.768 3.768 0 0 1 5.313 0l.996.992-.635.633a4.278 4.278 0 0 1-6.033 0zm19.343 0l-.635-.633.994-.992a3.768 3.768 0 0 1 5.313 0l.996.992-.635.633a4.278 4.278 0 0 1-6.033 0z"/></g></svg>