<svg xmlns="http://www.w3.org/2000/svg" width="72" height="72" viewBox="0 0 72 72"><g fill="none" fill-rule="evenodd" transform="translate(3 2.522)"><path stroke="#00205B" stroke-linecap="round" stroke-width="1.5" d="M26.639 61.076l-.945 2.438c-.127.475-.532.803-.992.803H4.816c-.462 0-.867-.328-.994-.803l-.944-2.438m59.972-31.91l1.348-2.238 1.404-2.323a1.078 1.078 0 0 0-.687-1.614l-28.685-6.44a1.071 1.071 0 0 0-1.312 1.157l.262 2.654.273 2.652m20.56 36.59l.21 2.122.327 3.184a1.084 1.084 0 0 1-1.313 1.169l-28.685-6.452a1.071 1.071 0 0 1-.688-1.603l1.652-2.749 1.1-1.823m6.294-33.064S22.35 34.294 27.186 55.072M64.21 26.928s5.667 18.043-7.585 34.754M26.639 14.758l-.945-2.437c-.127-.476-.532-.804-.992-.804H4.816c-.462 0-.867.328-.994.804l-.944 2.437"/><path fill="#8DC8E8" fill-rule="nonzero" d="M14.758 45.54a7.56 7.56 0 0 1-7.56-7.56 7.56 7.56 0 1 1 7.56 7.56m13.35-30.782h-26.7c-.381 0-.691.31-.691.69V60.51c0 .383.31.692.69.692h26.7a.691.691 0 0 0 .692-.692v-45.06c0-.381-.31-.691-.691-.691"/><path stroke="#00205B" stroke-width="1.5" d="M14.758 45.54a7.56 7.56 0 0 1-7.56-7.56 7.56 7.56 0 1 1 7.56 7.56zm13.35-30.782h-26.7c-.381 0-.691.31-.691.69V60.51c0 .383.31.692.69.692h26.7a.691.691 0 0 0 .692-.692v-45.06c0-.381-.31-.691-.691-.691z"/><path stroke="#00205B" stroke-linecap="round" stroke-width="1.5" d="M19.619 11.517l2.087-10.02c.094-.45.54-.78 1.062-.78H28.8"/><path fill="#8DC8E8" fill-rule="nonzero" d="M52.563 42.347c-.304.95-1.039 1.785-1.967 2.235-.77.373-1.667.62-2.47.617-.429-.002-.672-.481-.463-.857.531-.954.837-2.06.85-3.217a8.445 8.445 0 0 0-.276-2.239c.192-.093.384-.172.578-.221a3.618 3.618 0 0 1 1.625-.033c.766.164 1.486.603 1.928 1.408.487.887.374 1.744.195 2.307m-12.914-.118c-.66-.79-.987-1.854-.874-2.846.066-.586.317-1.413 1.125-2.023.733-.552 1.569-.656 2.335-.492a3.638 3.638 0 0 1 1.468.699c.157.124.3.276.437.439a8.41 8.41 0 0 0-1.172 1.927 6.79 6.79 0 0 0-.546 3.282c.037.428-.382.767-.775.591-.734-.325-1.448-.92-1.998-1.577m15.639-3.792c-1.397-2.545-4.327-3.751-7.29-3.001-.432.11-.855.27-1.264.471a6.327 6.327 0 0 0-.959-.949c-2.394-1.9-5.56-2.004-7.88-.258-1.367 1.03-2.23 2.559-2.43 4.306-.22 1.909.376 3.863 1.63 5.36.447.535.975 1.046 1.558 1.497l-1.23.49a1.672 1.672 0 0 0-.93 2.164 1.67 1.67 0 0 0 2.163.93l5.653-2.254 4.228 4.377a1.67 1.67 0 0 0 2.355.042 1.671 1.671 0 0 0 .04-2.355l-.92-.953c.717-.171 1.409-.421 2.035-.723 1.76-.852 3.103-2.389 3.689-4.22.534-1.674.375-3.423-.448-4.924"/><path stroke="#00205B" stroke-linecap="round" stroke-linejoin="round" stroke-width="1.5" d="M52.563 42.347c-.304.95-1.039 1.785-1.967 2.235-.77.373-1.667.62-2.47.617-.429-.002-.672-.481-.463-.857.531-.954.837-2.06.85-3.217a8.445 8.445 0 0 0-.276-2.239c.192-.093.384-.172.578-.221a3.618 3.618 0 0 1 1.625-.033c.766.164 1.486.603 1.928 1.408.487.887.374 1.744.195 2.307zm-12.914-.118c-.66-.79-.987-1.854-.874-2.846.066-.586.317-1.413 1.125-2.023.733-.552 1.569-.656 2.335-.492a3.638 3.638 0 0 1 1.468.699c.157.124.3.276.437.439a8.41 8.41 0 0 0-1.172 1.927 6.79 6.79 0 0 0-.546 3.282c.037.428-.382.767-.775.591-.734-.325-1.448-.92-1.998-1.577zm15.639-3.792c-1.397-2.545-4.327-3.751-7.29-3.001-.432.11-.855.27-1.264.471a6.327 6.327 0 0 0-.959-.949c-2.394-1.9-5.56-2.004-7.88-.258-1.367 1.03-2.23 2.559-2.43 4.306-.22 1.909.376 3.863 1.63 5.36.447.535.975 1.046 1.558 1.497l-1.23.49a1.672 1.672 0 0 0-.93 2.164 1.67 1.67 0 0 0 2.163.93l5.653-2.254 4.228 4.377a1.67 1.67 0 0 0 2.355.042 1.671 1.671 0 0 0 .04-2.355l-.92-.953c.717-.171 1.409-.421 2.035-.723 1.76-.852 3.103-2.389 3.689-4.22.534-1.674.375-3.423-.448-4.924z"/></g></svg>