<svg xmlns="http://www.w3.org/2000/svg" width="72" height="72" viewBox="0 0 72 72"><g fill="none" fill-rule="evenodd" transform="translate(1 2)"><path stroke="#00205B" stroke-linecap="round" stroke-width="1.5" d="M32.654 35.83a3.422 3.422 0 0 1-3.135 2.05H3.421A3.42 3.42 0 0 1 0 34.46V4.19A3.42 3.42 0 0 1 3.42.77h26.1a3.42 3.42 0 0 1 3.42 3.42v23.425"/><path stroke="#8DC8E8" stroke-linecap="round" stroke-width="1.5" d="M14.84 10.567h9.55m-9.55 8.998h6.532"/><path stroke="#00205B" stroke-linecap="round" stroke-width="1.5" d="M8.051 8.317v19.878"/><path fill="#8DC8E8" stroke="#00205B" stroke-linecap="round" stroke-width="1.5" d="M10.314 10.567a2.256 2.256 0 0 1-2.263 2.25 2.256 2.256 0 0 1-2.262-2.25 2.256 2.256 0 0 1 2.262-2.25 2.256 2.256 0 0 1 2.263 2.25zm0 8.998a2.256 2.256 0 0 1-2.263 2.25 2.256 2.256 0 0 1-2.262-2.25 2.256 2.256 0 0 1 2.262-2.25 2.256 2.256 0 0 1 2.263 2.25zm0 8.997a2.256 2.256 0 0 1-2.263 2.25 2.256 2.256 0 0 1-2.262-2.25 2.256 2.256 0 0 1 2.262-2.249 2.256 2.256 0 0 1 2.263 2.25z"/><path fill="#00205B" d="M33.313 46.634l-9.016-1.293a1.423 1.423 0 0 0-1.444.736l-.717 1.339c-.375.698-.1 1.565.61 1.924l5.725 2.6 4.842-5.306zm6.444 6.26l1.222 9.031a1.408 1.408 0 0 1-.74 1.435l-1.347.713a1.425 1.425 0 0 1-1.935-.607l-2.737-5.581 5.537-4.99z"/><path fill="#8DC8E8" stroke="#00205B" stroke-linecap="round" stroke-width="1.5" d="M50.193 29.262l-26.31-2.542a1.438 1.438 0 0 0-1.062.328l-2.789 2.333c-.834.698-.58 2.018.454 2.374l20.486 7.025 9.221-9.518zm6.96 6.92l2.557 26.153c.038.383-.08.765-.328 1.056l-2.348 2.773c-.702.829-2.03.578-2.388-.45L47.584 45.36l9.57-9.18z"/><path stroke="#00205B" stroke-linecap="round" stroke-width="1.5" d="M29.266 57.25L29 56.984c-1.9-1.889-1.428-4.51.473-6.4l31.79-32.541c1.901-1.89 5.01-1.89 6.911 0l.268.265a4.852 4.852 0 0 1 0 6.87l-1.155 1.114L35.705 56.78c-1.9 1.89-4.538 2.359-6.439.47z"/></g></svg>