<svg xmlns="http://www.w3.org/2000/svg" width="72" height="72" viewBox="0 0 72 72"><g fill="none" fill-rule="evenodd" transform="translate(6 6)"><ellipse cx="30.178" cy="30.32" stroke="#00205B" stroke-linecap="round" stroke-width="1.5" rx="30.051" ry="29.524"/><path stroke="#00205B" stroke-linecap="round" stroke-width="1.5" d="M44.619 29.224L26.81 46.274"/><path fill="#8DC8E8" stroke="#00205B" stroke-linecap="round" stroke-width="1.5" d="M35.767 37.706l-3.032-6.256a1.46 1.46 0 0 1 .708-1.962l15.217-7.12c1.283-.6 2.617.728 1.987 1.981l-9.505 18.904c-.554 1.102-2.158 1.09-2.696-.02 0 0-2.49-5.138-2.68-5.527"/><path stroke="#00205B" stroke-linecap="round" stroke-width="1.5" d="M15.655 31.202l17.81-17.05"/><path fill="#1D2758" d="M24.509 22.72l3.032 6.256a1.46 1.46 0 0 1-.708 1.962l-15.217 7.12c-1.285.6-2.617-.728-1.987-1.981l9.505-18.904c.554-1.102 2.158-1.09 2.695.02 0 0 2.49 5.138 2.68 5.527"/></g></svg>