<svg xmlns="http://www.w3.org/2000/svg" width="72" height="72" viewBox="0 0 72 72"><g fill="none" transform="translate(0 12)"><path stroke="#00205B" stroke-linecap="round" stroke-width="1.5" d="M7.652 42.833V4.042a4 4 0 0 1 4-4h48.686a4 4 0 0 1 4 4v38.791"/><rect width="45.905" height="33.282" x="13.052" y="4.839" stroke="#00205B" stroke-linecap="round" stroke-width="1.5"/><rect width="71.686" height="5.841" x=".157" y="42.117" fill="#00205B" rx="2.921"/><path fill="#8DC8E8" d="M36 14.712c3.973-.002 7.783 1.54 10.588 4.284L48 17.619c-3.18-3.109-7.497-4.856-12-4.856s-8.82 1.747-12 4.856l1.412 1.377c2.805-2.744 6.615-4.286 10.588-4.284z"/><path fill="#8DC8E8" d="M36 19.581a10.082 10.082 0 0 1 7.062 2.853l1.412-1.377c-4.683-4.548-12.256-4.548-16.939 0l1.413 1.377A10.081 10.081 0 0 1 36 19.581zm0 4.869a5.04 5.04 0 0 1 3.526 1.431l1.412-1.377A7.07 7.07 0 0 0 36 22.507a7.07 7.07 0 0 0-4.938 1.997l1.412 1.377A5.04 5.04 0 0 1 36 24.45z"/><ellipse cx="36" cy="28.806" fill="#8DC8E8" rx="1.689" ry="1.647"/></g></svg>