<svg xmlns="http://www.w3.org/2000/svg" width="40" height="40" viewBox="0 0 40 40"><g fill="#303234"><path d="M3.039 26.924v-2.757h33.949v2.757z"/><path d="M36.24 35.25V15.596c0-.564-.5-1.037-1.137-1.037H4.923c-.635 0-1.135.474-1.135 1.037V35.25c0 .563.5 1.037 1.136 1.037h30.18c.636 0 1.135-.474 1.135-1.037zm1.5 0c0 1.411-1.189 2.538-2.637 2.538H4.923c-1.446 0-2.635-1.127-2.635-2.537V15.595c0-1.41 1.19-2.537 2.636-2.537h30.18c1.447 0 2.635 1.126 2.635 2.537V35.25z"/><path d="M18.635 13.342h2.757v23.379h-2.757z"/><path d="M18.814 8.578c0-2-1.734-3.643-3.897-3.643-2.041 0-3.696 1.569-3.696 3.454v.374c0 1.794 1.557 3.27 3.502 3.27h4.091V8.577zm-3.897-5.48c3.157 0 5.735 2.442 5.735 5.48v5.292h-5.929c-2.938 0-5.34-2.275-5.34-5.107v-.374c0-2.923 2.5-5.291 5.534-5.291z"/><path d="M25.305 3.098c3.046 0 5.533 2.357 5.533 5.291 0 3.039-2.577 5.481-5.733 5.481H19.57V8.343c0-2.909 2.467-5.245 5.487-5.245h.25zm-3.898 8.934h3.698C27.268 12.032 29 10.39 29 8.39c0-1.896-1.642-3.454-3.695-3.454h-.249c-2.026 0-3.65 1.537-3.65 3.408v3.69z"/></g></svg>