<svg xmlns="http://www.w3.org/2000/svg" width="40" height="40" viewBox="0 0 40 40"><g fill-rule="evenodd" transform="translate(5.667 1.222)"><path fill-rule="nonzero" d="M28.183 28.321a.75.75 0 0 1-.619 1.175H1a.75.75 0 0 1-.618-1.175l7.37-10.72-6.739.117a.75.75 0 0 1-.59-1.23L13.706.52a.75.75 0 0 1 1.153 0L28.14 16.49a.75.75 0 0 1-.59 1.23l-6.739-.118 7.37 10.72zm-9.432-11.07a.75.75 0 0 1 .631-1.175l6.56.114-11.66-14.017L2.622 16.19l6.56-.114a.75.75 0 0 1 .631 1.175L2.426 27.996h23.713L18.75 17.251z"/><circle cx="18.471" cy="12.341" r="1.533"/><circle cx="12.954" cy="16.632" r="1.533"/><circle cx="10.706" cy="23.784" r="1.533"/><circle cx="17.858" cy="22.149" r="1.533"/><circle cx="11.115" cy="10.502" r="1.533"/><path d="M10.808 28.586h7.356v7.969h-7.356z"/></g></svg>