<svg xmlns="http://www.w3.org/2000/svg" width="40" height="40" viewBox="0 0 40 40"><g fill-rule="evenodd"><path d="M3 9.966c0 .471.37.841.842.841.471 0 .841-.37.841-.841V8.282c0-.47-.37-.841-.842-.841A.833.833 0 0 0 3 8.282v1.684zm4.04 0c0 .471.37.841.841.841s.842-.37.842-.841V8.282c0-.47-.37-.841-.842-.841a.833.833 0 0 0-.841.841v1.684zm4.04 0c0 .471.37.841.84.841.472 0 .842-.37.842-.841V8.282c0-.47-.37-.841-.841-.841a.833.833 0 0 0-.842.841v1.684zm4.039 0c0 .471.37.841.841.841.472 0 .842-.37.842-.841V8.282c0-.47-.37-.841-.842-.841a.833.833 0 0 0-.841.841v1.684zm4.04 0c0 .471.37.841.84.841.472 0 .843-.37.843-.841V8.282c0-.47-.37-.841-.842-.841-.471 0-.842.37-.842.841v1.684zm4.039 0c0 .471.37.841.842.841.471 0 .841-.37.841-.841V8.282c0-.47-.37-.841-.841-.841a.833.833 0 0 0-.842.841v1.684zm4.04 0c0 .471.37.841.841.841s.842-.37.842-.841V8.282c0-.47-.37-.841-.842-.841a.833.833 0 0 0-.841.841v1.684zm4.04 0c0 .471.37.841.84.841.472 0 .842-.37.842-.841V8.282c0-.47-.37-.841-.841-.841s-.842.37-.842.841v1.684zM3.841 6.599c.471 0 .841-.37.841-.841 0-.472-.841-1.684-.841-1.684S3 5.286 3 5.758c0 .471.37.841.842.841m4.04 0c.47 0 .84-.37.84-.841 0-.472-.84-1.684-.84-1.684S7.04 5.286 7.04 5.758c0 .471.37.841.841.841m4.04 0c.471 0 .841-.37.841-.841 0-.472-.841-1.684-.841-1.684s-.842 1.212-.842 1.684c0 .471.37.841.842.841m4.04 0c.47 0 .84-.37.84-.841 0-.472-.84-1.684-.84-1.684s-.842 1.212-.842 1.684c0 .471.37.841.841.841m4.04 0c.471 0 .841-.37.841-.841 0-.472-.841-1.684-.841-1.684s-.841 1.212-.841 1.684c0 .471.37.841.841.841m4.04 0c.471 0 .841-.37.841-.841 0-.472-.841-1.684-.841-1.684s-.842 1.212-.842 1.684c0 .471.37.841.842.841m4.04 0c.47 0 .84-.37.84-.841 0-.472-.84-1.684-.84-1.684s-.842 1.212-.842 1.684c0 .471.37.841.841.841m4.04 0c.471 0 .841-.37.841-.841 0-.472-.841-1.684-.841-1.684s-.842 1.212-.842 1.684c0 .471.37.841.842.841m3.198 3.367c0 .471.37.841.841.841.472 0 .842-.37.842-.841V8.282c0-.47-.37-.841-.842-.841a.833.833 0 0 0-.841.841v1.684zm.841-3.367c.472 0 .842-.37.842-.841 0-.472-.842-1.684-.842-1.684s-.841 1.212-.841 1.684c0 .471.37.841.841.841"/><path fill-rule="nonzero" d="M35.408 12.627h1.5c0 9.338-7.57 16.908-16.908 16.908-9.338 0-16.908-7.57-16.908-16.908h1.5c0 8.51 6.898 15.408 15.408 15.408s15.408-6.898 15.408-15.408z"/><path fill-rule="nonzero" d="M31.369 12.627h1.5c0 7.107-5.762 12.869-12.869 12.869S7.131 19.734 7.131 12.626h1.5c0 6.28 5.09 11.37 11.37 11.37 6.278 0 11.368-5.09 11.368-11.37z"/><path fill-rule="nonzero" d="M27.33 12.627h1.5a8.83 8.83 0 0 1-17.659 0h1.5a7.33 7.33 0 0 0 14.658 0z"/><path fill-rule="nonzero" d="M23.29 12.627h1.5a4.79 4.79 0 0 1-9.58 0h1.5a3.29 3.29 0 0 0 6.58 0z"/><path fill-rule="nonzero" d="M19.25 12.627h1.5v20.157h-1.5z"/><path fill-rule="nonzero" d="M15.21 36.058v-4.025h9.58v4.025z"/></g></svg>