<svg xmlns="http://www.w3.org/2000/svg" width="40" height="40" viewBox="0 0 40 40"><g fill-rule="evenodd" transform="translate(2 8)"><path fill-rule="nonzero" d="M29.788 7.263a.75.75 0 0 1 1.424.474l-3 9a.75.75 0 0 1-1.424-.474l3-9z"/><path fill-rule="nonzero" d="M34 3.491a2.741 2.741 0 1 0-5.483 0 2.741 2.741 0 0 0 5.483 0zm1.5 0a4.241 4.241 0 1 1-8.483 0 4.241 4.241 0 0 1 8.483 0zM20.76 23.69a6.096 6.096 0 0 0 5.94-4.757c.74-3.262-1.273-6.514-4.514-7.296l-7.099-1.714c-3.831-.925-7.518 1.987-7.518 5.94v1.716c0 3.375 2.728 6.11 6.092 6.11h7.1zm0 1.5h-7.099c-4.193 0-7.592-3.409-7.592-7.61v-1.716c0-4.924 4.594-8.553 9.37-7.4l7.1 1.715c4.038.975 6.544 5.025 5.624 9.086a7.595 7.595 0 0 1-7.403 5.925z"/><path fill-rule="nonzero" d="M17.926 19.22a.75.75 0 0 1 1.061 1.06 4.84 4.84 0 0 1-6.846-6.845.75.75 0 1 1 1.061 1.06 3.341 3.341 0 0 0 4.724 4.725zM34.495 3.12L36.1 4.325a1 1 0 0 1-.6 1.8h-2.006l1.001-3.004z"/><circle cx="13.5" cy="5.5" r="3.5"/><circle cx="6.5" cy="8.5" r="3.5"/><circle cx="3.5" cy="15.5" r="3.5"/></g></svg>