<svg width="40" height="33" viewBox="0 0 40 33" xmlns="http://www.w3.org/2000/svg"><path d="M40 28.05v3.3c0 .447-.165.834-.495 1.16-.33.327-.72.49-1.172.49H1.667a1.61 1.61 0 0 1-1.172-.49A1.578 1.578 0 0 1 0 31.35v-3.3c0-.447.165-.834.495-1.16.33-.327.72-.49 1.172-.49h36.666c.452 0 .842.163 1.172.49.33.326.495.713.495 1.16zm0-13.2v3.3c0 .447-.165.834-.495 1.16-.33.327-.72.49-1.172.49H1.667a1.61 1.61 0 0 1-1.172-.49A1.578 1.578 0 0 1 0 18.15v-3.3c0-.447.165-.834.495-1.16.33-.327.72-.49 1.172-.49h36.666c.452 0 .842.163 1.172.49.33.326.495.713.495 1.16zm0-13.2v3.3c0 .447-.165.834-.495 1.16-.33.327-.72.49-1.172.49H1.667a1.61 1.61 0 0 1-1.172-.49A1.578 1.578 0 0 1 0 4.95v-3.3C0 1.203.165.816.495.49.825.163 1.215 0 1.667 0h36.666c.452 0 .842.163 1.172.49.33.326.495.713.495 1.16z"/></svg>