<svg width="40" height="15" viewBox="0 0 40 15" xmlns="http://www.w3.org/2000/svg"><g><path d="M20.036 3.176l.956 3.097h3.095L21.59 8.189l.955 3.096-2.508-1.916-2.498 1.916.955-3.096-2.498-1.916h3.086l.955-3.097z"/><path d="M35.168 6.626L40 3.336H25.889C24.574 1.253 22.365 0 20 0s-4.574 1.252-5.889 3.337H0l4.832 3.289 8.108 1.27c.02.415.072.827.155 1.233h-6.67l2.699 2.066 5.49 1.174C15.958 14.04 17.923 15 19.992 15s4.034-.962 5.376-2.63l5.49-1.165 2.7-2.067h-6.652c.084-.408.136-.824.155-1.242l8.108-1.27zM19.995 12.62c-2.663 0-4.822-2.289-4.822-5.113 0-2.823 2.159-5.113 4.822-5.113 2.664 0 4.823 2.29 4.823 5.113 0 2.824-2.16 5.113-4.823 5.113z"/></g></svg>