<svg width="40" height="40" viewBox="0 0 40 40" xmlns="http://www.w3.org/2000/svg"><path d="M23.333 32.5v-5a.811.811 0 0 0-.234-.599.811.811 0 0 0-.599-.234h-5a.811.811 0 0 0-.599.234.811.811 0 0 0-.234.599v5c0 .243.078.443.234.599a.811.811 0 0 0 .599.234h5a.811.811 0 0 0 .599-.234.811.811 0 0 0 .234-.599zM30 15c0-1.528-.482-2.943-1.445-4.245a9.862 9.862 0 0 0-3.607-3.02c-1.441-.712-2.917-1.068-4.427-1.068-4.219 0-7.44 1.849-9.662 5.547-.26.416-.19.78.209 1.093l3.437 2.604c.122.105.287.157.495.157a.768.768 0 0 0 .651-.313c.92-1.18 1.667-1.979 2.24-2.396.59-.416 1.336-.625 2.24-.625.833 0 1.575.226 2.226.677.65.452.976.964.976 1.537 0 .66-.173 1.19-.52 1.588-.348.4-.938.79-1.771 1.172-1.094.486-2.097 1.237-3.008 2.253-.912 1.016-1.367 2.105-1.367 3.268v.938c0 .243.078.442.234.599A.811.811 0 0 0 17.5 25h5a.811.811 0 0 0 .599-.234.811.811 0 0 0 .234-.6c0-.33.187-.759.56-1.288.373-.53.847-.96 1.42-1.29.555-.312.98-.56 1.276-.742.295-.182.694-.486 1.197-.911.504-.425.89-.842 1.16-1.25.268-.408.511-.933.728-1.576A6.554 6.554 0 0 0 30 15zm10 5c0 3.628-.894 6.975-2.682 10.04a19.91 19.91 0 0 1-7.279 7.278C26.975 39.106 23.63 40 20 40c-3.628 0-6.975-.894-10.04-2.682a19.91 19.91 0 0 1-7.278-7.279C.894 26.975 0 23.63 0 20c0-3.628.894-6.975 2.682-10.04a19.91 19.91 0 0 1 7.279-7.278C13.025.894 16.37 0 20 0c3.628 0 6.975.894 10.04 2.682a19.91 19.91 0 0 1 7.278 7.279C39.106 13.025 40 16.37 40 20z"/></svg>