<svg id="Layer_1" xmlns="http://www.w3.org/2000/svg" viewBox="0 0 171.3 21.7"><path class="st0" d="M1.2 5.3h4.5v14.9h4.5V5.3h4.5V1.1H1.2zM30.5 9.2H28V5.3h2.5c1.2 0 2 .9 2 1.9-.1 1-.8 2-2 2m6.4-2C36.9 4 34.7 1 30.7 1h-7.2v19.2H28v-7.1h1.5l3.2 7.1h5.2l-4-8c1.5-.7 3-2.4 3-5M55.8 13.4c0 1.8-1 2.8-2.5 2.8s-2.4-1-2.4-2.8V1.1h-4.5v12.4c0 4.2 3.1 6.9 6.9 6.9 3.8 0 7-2.7 7-6.9V1.1h-4.5v12.3zM82 5.3V1.1H69.6v19.1H82V16h-7.9v-3.3h6.8V8.5h-6.8V5.3zM98.3 18.4h-5v-7.1h5c2.3 0 3.7 1.3 3.7 3.5s-1.4 3.6-3.7 3.6m-5-15.6h4.8c2 0 3.6 1 3.6 3.3s-1.6 3.4-3.6 3.4h-4.8V2.8zm7.7 7.5c1.5-.6 2.7-2.2 2.7-4.2 0-3.2-2.2-5.1-5.4-5.1h-6.9v19.3h7.2c3.3 0 5.5-1.8 5.5-5.3-.1-2.4-1.3-4-3.1-4.7M116.8 1h-2v19.2h11.4v-1.8h-9.4zM145.7 13.7c0 2.9-1.8 4.8-4.5 4.8s-4.4-1.9-4.4-4.8V1h-2v12.9c0 3.8 2.7 6.5 6.4 6.5s6.4-2.7 6.4-6.5V1h-2v12.7zM158.6 20.2H170v-1.8h-9.4v-7h8V9.6h-8V2.8h9.4V1h-11.4z"/></svg>