
<svg width="40" height="29" viewBox="0 0 40 29" xmlns="http://www.w3.org/2000/svg"><path d="M40 21.09c0 2.184-.781 4.048-2.344 5.593C36.094 28.228 34.208 29 32 29H9.333c-2.57 0-4.767-.903-6.593-2.708C.913 24.486 0 22.313 0 19.772c0-1.812.493-3.47 1.48-4.973a9.156 9.156 0 0 1 3.895-3.368c-.028-.384-.042-.68-.042-.886 0-2.91 1.042-5.396 3.125-7.456C10.542 1.03 13.056 0 16 0c2.194 0 4.184.604 5.969 1.813C23.753 3.02 25.056 4.6 25.875 6.55c.972-.852 2.125-1.277 3.458-1.277 1.473 0 2.73.515 3.771 1.544 1.042 1.03 1.563 2.273 1.563 3.728 0 1.03-.285 1.978-.855 2.843 1.792.412 3.271 1.335 4.438 2.77 1.167 1.435 1.75 3.08 1.75 4.933z"/></svg>