<svg width="40" height="52" viewBox="0 0 40 52" xmlns="http://www.w3.org/2000/svg">
<path d="M15.385 3.714c-.85 0-1.575.363-2.176 1.088-.6.726-.901 1.601-.901 2.627v26l-3.63-5.862C8.02 26.522 7.163 26 6.106 26c-.834 0-1.547.368-2.14 1.103-.593.735-.89 1.605-.89 2.611 0 .832.21 1.577.626 2.235l9.23 14.857c.61.986 1.427 1.48 2.453 1.48h17.26c.352 0 .668-.13.949-.392.28-.261.46-.595.54-1.001l2.212-10.679c.385-1.857.577-3.733.577-5.63v-6.296c0-.793-.224-1.48-.673-2.06-.449-.58-.994-.87-1.635-.87-.64 0-1.186.27-1.634.812-.449.541-.673 1.199-.673 1.973h-.77v-1.77c0-.929-.256-1.717-.769-2.365-.513-.648-1.154-.972-1.923-.972-.737 0-1.37.319-1.899.957-.529.639-.793 1.403-.793 2.293v1.857h-.77V21.53c0-1.064-.296-1.978-.889-2.742s-1.322-1.146-2.187-1.146c-.85 0-1.575.363-2.176 1.088-.6.725-.901 1.6-.901 2.626v2.786h-.77V7.603c0-1.064-.296-1.978-.889-2.743-.593-.764-1.322-1.146-2.187-1.146zm0-3.714c1.714 0 3.169.75 4.363 2.249 1.194 1.5 1.79 3.284 1.79 5.354v6.384c.353-.04.61-.058.77-.058 1.586 0 2.972.667 4.158 2.002a4.943 4.943 0 0 1 2.38-.61c1.811 0 3.285.842 4.423 2.525a4.48 4.48 0 0 1 1.346-.203c1.507 0 2.78.653 3.822 1.959C39.48 20.907 40 22.469 40 24.288v6.297c0 2.244-.224 4.42-.673 6.529l-2.212 10.678c-.256 1.239-.8 2.25-1.634 3.033-.834.783-1.78 1.175-2.837 1.175h-17.26c-.96 0-1.878-.266-2.752-.798a6.667 6.667 0 0 1-2.175-2.162L1.226 34.183C.409 32.868 0 31.378 0 29.714c0-2.031.597-3.777 1.79-5.237 1.195-1.461 2.633-2.191 4.316-2.191 1.138 0 2.18.338 3.125 1.015V7.43c0-2.051.6-3.802 1.803-5.253C12.236.726 13.686 0 15.384 0zm3.077 40.857V29.714h-.77v11.143h.77zm6.153 0V29.714h-.769v11.143h.77zm6.154 0V29.714H30v11.143h.77z"/>
</svg>
