<?xml version="1.0" encoding="UTF-8"?>
<svg width="40px" height="40px" viewBox="0 0 40 40" version="1.1" xmlns="http://www.w3.org/2000/svg" xmlns:xlink="http://www.w3.org/1999/xlink">
    <defs></defs>
    <g id="Page-1">
        <g id="book-exclamation">
            <path d="M20,0 C23.6284722,0 26.9748264,0.894097222 30.0390625,2.68229167 C33.1032986,4.47048611 35.5295139,6.89670139 37.3177083,9.9609375 C39.1059028,13.0251736 40,16.3715278 40,20 C40,23.6284722 39.1059028,26.9748264 37.3177083,30.0390625 C35.5295139,33.1032986 33.1032986,35.5295139 30.0390625,37.3177083 C26.9748264,39.1059028 23.6284722,40 20,40 C16.3715278,40 13.0251736,39.1059028 9.9609375,37.3177083 C6.89670139,35.5295139 4.47048611,33.1032986 2.68229167,30.0390625 C0.894097222,26.9748264 0,23.6284722 0,20 C0,16.3715278 0.894097222,13.0251736 2.68229167,9.9609375 C4.47048611,6.89670139 6.89670139,4.47048611 9.9609375,2.68229167 C13.0251736,0.894097222 16.3715278,0 20,0 Z M23.3333333,32.4739583 L23.3333333,27.5260417 C23.3333333,27.2829861 23.2552083,27.0789931 23.0989583,26.9140625 C22.9427083,26.7491319 22.7517361,26.6666667 22.5260417,26.6666667 L17.5260417,26.6666667 C17.3003472,26.6666667 17.1006944,26.7534722 16.9270833,26.9270833 C16.7534722,27.1006944 16.6666667,27.3003472 16.6666667,27.5260417 L16.6666667,32.4739583 C16.6666667,32.6996528 16.7534722,32.8993056 16.9270833,33.0729167 C17.1006944,33.2465278 17.3003472,33.3333333 17.5260417,33.3333333 L22.5260417,33.3333333 C22.7517361,33.3333333 22.9427083,33.2508681 23.0989583,33.0859375 C23.2552083,32.9210069 23.3333333,32.7170139 23.3333333,32.4739583 Z M23.28125,23.515625 L23.75,7.34375 C23.75,7.13541667 23.6631944,6.97916667 23.4895833,6.875 C23.3159722,6.73611111 23.1076389,6.66666667 22.8645833,6.66666667 L17.1354167,6.66666667 C16.8923611,6.66666667 16.6840278,6.73611111 16.5104167,6.875 C16.3368056,6.97916667 16.25,7.13541667 16.25,7.34375 L16.6927083,23.515625 C16.6927083,23.6892361 16.7795139,23.8411458 16.953125,23.9713542 C17.1267361,24.1015625 17.3350694,24.1666667 17.578125,24.1666667 L22.3958333,24.1666667 C22.6388889,24.1666667 22.8428819,24.1015625 23.0078125,23.9713542 C23.1727431,23.8411458 23.2638889,23.6892361 23.28125,23.515625 Z" id="Shape"></path>
        </g>
    </g>
</svg>