<svg width="11" height="40" viewBox="0 0 11 40" xmlns="http://www.w3.org/2000/svg"><path d="M11 31.818v5.455a2.62 2.62 0 0 1-.802 1.932A2.663 2.663 0 0 1 8.25 40h-5.5a2.663 2.663 0 0 1-1.948-.795A2.62 2.62 0 0 1 0 37.273v-5.455c0-.757.267-1.401.802-1.932a2.663 2.663 0 0 1 1.948-.795h5.5c.764 0 1.413.265 1.948.795A2.62 2.62 0 0 1 11 31.818zm0-14.545v5.454a2.62 2.62 0 0 1-.802 1.932 2.663 2.663 0 0 1-1.948.796h-5.5a2.663 2.663 0 0 1-1.948-.796A2.62 2.62 0 0 1 0 22.727v-5.454c0-.758.267-1.402.802-1.932a2.663 2.663 0 0 1 1.948-.796h5.5c.764 0 1.413.266 1.948.796A2.62 2.62 0 0 1 11 17.273zm0-14.546v5.455a2.62 2.62 0 0 1-.802 1.932 2.663 2.663 0 0 1-1.948.795h-5.5a2.663 2.663 0 0 1-1.948-.795A2.62 2.62 0 0 1 0 8.182V2.727C0 1.97.267 1.326.802.795A2.663 2.663 0 0 1 2.75 0h5.5c.764 0 1.413.265 1.948.795A2.62 2.62 0 0 1 11 2.727z"/></svg>