<svg width="50" height="49" viewBox="0 0 50 49" xmlns="http://www.w3.org/2000/svg" xmlns:xlink="http://www.w3.org/1999/xlink">
  <defs>
    <path d="M3.077 37.143H10v-6.429H3.077v6.429zm8.461 0h7.693v-6.429h-7.693v6.429zm-8.461-7.857H10v-7.143H3.077v7.143zm8.461 0h7.693v-7.143h-7.693v7.143zm-8.461-8.572H10v-6.428H3.077v6.428zm17.692 16.429h7.693v-6.429h-7.693v6.429zm-9.23-16.429h7.692v-6.428h-7.693v6.428zM30 37.143h6.923v-6.429H30v6.429zm-9.23-7.857h7.692v-7.143h-7.693v7.143zM12.307 10V3.571a.663.663 0 0 0-.229-.502.768.768 0 0 0-.54-.212H10a.768.768 0 0 0-.54.212.663.663 0 0 0-.23.502V10c0 .193.077.36.23.502a.768.768 0 0 0 .54.212h1.538c.209 0 .39-.07.541-.212a.663.663 0 0 0 .229-.502zM30 29.286h6.923v-7.143H30v7.143zm-9.23-8.572h7.692v-6.428h-7.693v6.428zm9.23 0h6.923v-6.428H30v6.428zM30.77 10V3.571a.663.663 0 0 0-.23-.502.768.768 0 0 0-.54-.212h-1.538a.768.768 0 0 0-.541.212.663.663 0 0 0-.229.502V10c0 .193.076.36.229.502a.768.768 0 0 0 .54.212H30c.208 0 .389-.07.54-.212a.663.663 0 0 0 .23-.502zM40 8.571v28.572c0 .774-.304 1.443-.913 2.009a3.073 3.073 0 0 1-2.164.848H3.077a3.073 3.073 0 0 1-2.164-.848C.304 38.586 0 37.917 0 37.142V8.573c0-.774.304-1.444.913-2.01a3.073 3.073 0 0 1 2.164-.848h3.077V3.571c0-.982.376-1.822 1.13-2.522C8.037.35 8.942 0 10 0h1.538c1.058 0 1.964.35 2.717 1.05.753.699 1.13 1.54 1.13 2.521v2.143h9.23V3.571c0-.982.377-1.822 1.13-2.522C26.498.35 27.404 0 28.462 0H30c1.058 0 1.963.35 2.716 1.05.754.699 1.13 1.54 1.13 2.521v2.143h3.077c.833 0 1.555.283 2.164.848.609.566.913 1.236.913 2.01z" id="b"/>
    <filter x="-18.8%" y="-13.8%" width="137.5%" height="137.5%" filterUnits="objectBoundingBox" id="a">
      <feMorphology radius=".5" operator="dilate" in="SourceAlpha" result="shadowSpreadOuter1"/>
      <feOffset dy="2" in="shadowSpreadOuter1" result="shadowOffsetOuter1"/>
      <feGaussianBlur stdDeviation="2" in="shadowOffsetOuter1" result="shadowBlurOuter1"/>
      <feComposite in="shadowBlurOuter1" in2="SourceAlpha" operator="out" result="shadowBlurOuter1"/>
      <feColorMatrix values="0 0 0 0 0 0 0 0 0 0 0 0 0 0 0 0 0 0 0.5 0" in="shadowBlurOuter1"/>
    </filter>
    <filter x="-16.2%" y="-11.2%" width="132.5%" height="132.5%" filterUnits="objectBoundingBox" id="c">
      <feGaussianBlur stdDeviation="1.5" in="SourceAlpha" result="shadowBlurInner1"/>
      <feOffset dy="1" in="shadowBlurInner1" result="shadowOffsetInner1"/>
      <feComposite in="shadowOffsetInner1" in2="SourceAlpha" operator="arithmetic" k2="-1" k3="1" result="shadowInnerInner1"/>
      <feColorMatrix values="0 0 0 0 0 0 0 0 0 0 0 0 0 0 0 0 0 0 0.5 0" in="shadowInnerInner1"/>
    </filter>
  </defs>
  <g transform="translate(5 2)">
    <use fill="currentColor" filter="url(#a)" xlink:href="#b"/>
    <use fill="currentColor" xlink:href="#b"/>
    <use fill="currentColor" filter="url(#c)" xlink:href="#b"/>
    <use xlink:href="#b"/>
  </g>
</svg>
