<svg id="Layer_1" data-name="Layer 1" xmlns="http://www.w3.org/2000/svg" viewBox="0 0 45 39"><defs><style>.cls-2{fill:#fff}</style></defs><path d="M26.92 1.68c9.23 0 16.72 6.37 16.72 15.61v20H18.09C8.85 37.32 1.36 31 1.36 21.71v-20z" fill="#6abf4b"/><path class="cls-2" d="M18.37 8.54h.82v.83h-.82zm0 1.65h.82v4.4A1.12 1.12 0 0 1 18 15.73h-.32V15h.23a.4.4 0 0 0 .46-.44zM23.08 12.54v-.67a1.65 1.65 0 0 0-1.68-1.72c-.79 0-1.68.51-1.68 2.09s1 2.08 1.81 2.08a1.87 1.87 0 0 0 1.47-.66l-.6-.51a1.28 1.28 0 0 1-.89.4.91.91 0 0 1-1-1zm-2.54-.67a.85.85 0 0 1 .86-.95c.48 0 .83.33.86.95zM23.73 9h.82v1.23h.59v.63h-.59v2.37c0 .23.09.31.29.31h.3v.77h-.42a.93.93 0 0 1-1-1v-2.49h-.41v-.63h.41zM27.79 9.32a.83.83 0 1 1 0 1.64h-1.26V9.32zm-2.12 4.95h2.41a1.56 1.56 0 0 0 1.59-1.62 1.29 1.29 0 0 0-.93-1.32 1.25 1.25 0 0 0 .84-1.23 1.49 1.49 0 0 0-1.7-1.53h-2.21zm2.2-2.54a.86.86 0 1 1 0 1.72h-1.34v-1.72zM30.14 8.55H31v4.67c0 .18.11.28.31.28h.28v.77h-.36c-.6 0-1.05-.26-1.05-1zM31.89 10.19h.83v2.43a.81.81 0 1 0 1.61 0v-2.43h.82v4.08h-.82v-.43a1.28 1.28 0 0 1-1.05.48 1.37 1.37 0 0 1-1.37-1.42zM39 12.54v-.67a1.65 1.65 0 0 0-1.68-1.72c-.79 0-1.68.51-1.68 2.09s1 2.08 1.81 2.08a1.86 1.86 0 0 0 1.47-.66l-.59-.51a1.29 1.29 0 0 1-.9.4.91.91 0 0 1-1-1zm-2.54-.67a.86.86 0 1 1 1.72 0zM39.19 10.45h.05s.11 0 .11-.06-.05-.06-.1-.06h-.06zm-.08-.19h.16c.1 0 .15 0 .15.13s-.05.12-.11.12l.12.18h-.08l-.12-.17v.17h-.08zm.14.52a.29.29 0 1 0 0-.58.29.29 0 0 0 0 .58m0-.66a.37.37 0 0 1 .36.37.36.36 0 1 1-.72 0 .37.37 0 0 1 .36-.37M13 28v-6.53l-2.26 4.78H9.62L7.3 21.47V28H5.82v-9.78H7.3l2.87 6.1 2.83-6.1h1.49V28zM17.71 28v-9.78h1.48V28zM28.46 28l-4.53-6.91V28h-1.49v-9.78h1.37l4.53 6.89v-6.89h1.49V28zM36.4 19.55V28h-1.49v-8.45h-2.7v-1.33h6.89v1.33zM40.25 19.65a.7.7 0 1 1 .69-.69.69.69 0 0 1-.69.69zm0-1.23a.54.54 0 1 0 .53.54.52.52 0 0 0-.53-.54zm.12.91l-.13-.33h-.08v.29H40v-.74h.3a.23.23 0 0 1 .24.23.21.21 0 0 1-.13.2l.15.31zm-.09-.61h-.12v.2h.12a.1.1 0 0 0 0-.2z"/></svg>