<svg width="40" height="13" viewBox="0 0 40 13" xmlns="http://www.w3.org/2000/svg"><g><path d="M1.266 2.951H2.77v7.974a2.015 2.015 0 0 1-.63 1.512c-.415.394-.98.597-1.553.558H0v-1.398h.431c.514 0 .844-.236.844-.79V2.95h-.01zm0-2.951H2.77v1.49H1.266V0zm3.971 6.03c-.065-.598.22-1.18.735-1.5a1.6 1.6 0 0 1 1.685 0c.515.32.8.902.735 1.5H5.237zm4.66 1.226V6.03a2.99 2.99 0 0 0-.863-2.219 3.051 3.051 0 0 0-2.22-.905c-1.44 0-3.081.908-3.081 3.805 0 3.033 1.78 3.76 3.32 3.76a3.455 3.455 0 0 0 2.706-1.163L8.667 8.4c-.428.442-1.014.7-1.632.718a1.688 1.688 0 0 1-1.32-.498 1.652 1.652 0 0 1-.469-1.319l4.65-.045zM11.087.745h1.505V2.95h1.091v1.136h-1.091V8.4c0 .409.165.554.532.554h.559v1.399h-.78a1.725 1.725 0 0 1-1.336-.493 1.689 1.689 0 0 1-.498-1.324V4.132h-.752v-1.18h.752l.018-2.207zm7.595 5.03a1.592 1.592 0 0 1 1.515.729c.322.51.322 1.158 0 1.668-.323.51-.911.792-1.515.728h-2.45V5.776h2.45zm-4.036 4.614h4.42c.79.016 1.551-.292 2.104-.851a2.818 2.818 0 0 0 .813-2.1 2.327 2.327 0 0 0-1.706-2.398 2.271 2.271 0 0 0 1.55-2.234c0-1.635-1.063-2.788-3.109-2.788h-4.063v10.39l-.009-.019zm3.898-8.972a1.518 1.518 0 0 1 1.448.693 1.486 1.486 0 0 1 0 1.592 1.518 1.518 0 0 1-1.448.693h-2.302V1.417h2.302zM22.846 0h1.505v8.482c0 .336.192.509.56.509h.513v1.398h-.66c-1.092 0-1.918-.463-1.918-1.816V0zm3.21 2.951h1.505v4.405c-.044.551.228 1.08.705 1.37.476.289 1.076.289 1.552 0 .477-.29.749-.819.705-1.37V2.95h1.504v7.402h-1.504v-.79a2.394 2.394 0 0 1-1.935.908 2.525 2.525 0 0 1-1.8-.761 2.475 2.475 0 0 1-.704-1.81l-.027-4.949zm8.282 3.079c-.05-.442.095-.885.396-1.215.302-.33.732-.516 1.182-.51.917 0 1.532.599 1.577 1.725h-3.155zm4.66 1.226V6.03a2.99 2.99 0 0 0-.862-2.219 3.051 3.051 0 0 0-2.22-.905c-1.44 0-3.082.908-3.082 3.805 0 3.033 1.78 3.76 3.311 3.76a3.454 3.454 0 0 0 2.697-1.199l-1.092-.908c-.428.442-1.014.7-1.632.717-.491.032-.971-.151-1.313-.501a1.652 1.652 0 0 1-.467-1.315l4.66-.009z" fill-rule="nonzero"/><path d="M39.503 3a.503.503 0 0 1 .497.503.497.497 0 0 1-.497.497.503.503 0 0 1-.503-.497c0-.278.225-.503.503-.503zm.394.503a.393.393 0 1 0-.394.4.38.38 0 0 0 .394-.4z"/><path d="M39.635 3.617a.393.393 0 0 0 .255-.096.232.232 0 0 0 .078-.212c0-.21-.158-.309-.46-.309H39v1h.222v-.42h.127l.381.42H40l-.365-.383zm-.397-.16V3.16h.206c.16 0 .302 0 .302.149 0 .148-.175.148-.35.148h-.158z" fill-rule="nonzero"/></g></svg>