<svg width="40" height="40" viewBox="0 0 40 40" xmlns="http://www.w3.org/2000/svg">
  <path d="M33.464 20c0-.469-.157-.86-.47-1.172l-2.369-2.37-9.427-9.427c-.313-.312-.703-.468-1.172-.468s-.86.156-1.172.468l-2.37 2.37c-.312.313-.468.703-.468 1.172s.156.86.468 1.172l4.922 4.922H8.333c-.451 0-.842.165-1.172.494-.33.33-.494.72-.494 1.172v3.334c0 .451.165.842.494 1.172.33.33.72.494 1.172.494h13.073l-4.922 4.922c-.33.33-.494.72-.494 1.172 0 .451.165.842.494 1.172l2.37 2.37c.313.312.703.468 1.172.468s.86-.156 1.172-.468l9.427-9.427 2.37-2.37c.312-.313.469-.703.469-1.172zM40 20c0 3.628-.894 6.975-2.682 10.04a19.91 19.91 0 0 1-7.279 7.278C26.975 39.106 23.63 40 20 40c-3.628 0-6.975-.894-10.04-2.682a19.91 19.91 0 0 1-7.278-7.279C.894 26.975 0 23.63 0 20c0-3.628.894-6.975 2.682-10.04a19.91 19.91 0 0 1 7.279-7.278C13.025.894 16.37 0 20 0c3.628 0 6.975.894 10.04 2.682a19.91 19.91 0 0 1 7.278 7.279C39.106 13.025 40 16.37 40 20z"/>
</svg>
