<svg width="40" height="12" viewBox="0 0 40 12" xmlns="http://www.w3.org/2000/svg"><path d="M1.917 2.715v9.262H.958V2.715H0V.128h2.87v2.587h-.953zm5.205 9.262l-.689-4.392H6.11v4.392H5.15V.16h1.542c.354-.045.698.34.95 1.06.252.722.389 1.714.378 2.74.008 1.293-.238 2.488-.634 3.082l.843 4.935H7.122zm-.468-9.214h-.551v2.395h.55c.229 0 .414-.536.414-1.198 0-.661-.185-1.197-.413-1.197zm5.216 9.214c-.393.04-.775-.394-1.053-1.199-.279-.805-.43-1.909-.418-3.049V.064h.959v7.601c0 1.102.198 1.725.512 1.725s.55-.623.55-1.725V.064h.96v7.665c.01 1.16-.146 2.279-.433 3.087-.287.807-.678 1.229-1.077 1.161zm3.95 0V.16h2.621v2.587H16.79v1.98h1.443v2.587h-1.443V9.39h1.652v2.587H15.82zm7.7 0h-1.515V.16h1.465c.304-.086.606.219.826.833.22.614.337 1.476.32 2.36.016 1.108-.202 2.132-.551 2.588.399.44.654 1.575.633 2.81.02.907-.1 1.793-.327 2.417-.228.624-.54.92-.851.809zm-.083-10.683h-1.013v4.104h1.013c.268.068.526-.307.667-.97a5.58 5.58 0 0 0 0-2.164c-.141-.664-.4-1.039-.667-.97zm.044 5.221h-1.057v4.328h1.057c.282.07.554-.326.702-1.024a5.884 5.884 0 0 0 0-2.279c-.148-.698-.42-1.095-.702-1.025zm3.922 5.462V.16h.402v10.7h1.988v1.117h-2.39zm6.004 0c-.367.032-.721-.38-.979-1.138-.257-.758-.393-1.792-.376-2.854V0h.413v7.825c-.04 1.046.131 2.065.439 2.624.307.558.698.558 1.006 0 .307-.559.478-1.578.439-2.624V0h.413v7.985c.017 1.062-.12 2.096-.377 2.854s-.612 1.17-.978 1.138zm4.18 0V.16H40v1.134h-2v4.168h1.708v1.133h-1.707v4.264H40v1.118h-2.413z"/></svg>