<svg xmlns="http://www.w3.org/2000/svg" viewBox="0 0 19.5 19.88"><defs><style>.a{fill:#f8951d}.b{fill:#134b8e}</style></defs><circle class="a" cx="16.99" cy="16.78" r="1.38"/><circle class="a" cx="18.11" cy="13.16" r="1.38"/><circle class="a" cx="17.94" cy="9.33" r="1.38"/><circle class="a" cx="16.49" cy="5.85" r="1.38"/><circle class="a" cx="13.79" cy="3.08" r="1.38"/><circle class="a" cx="10.38" cy="1.5" r="1.38"/><circle class="a" cx="6.49" cy="1.38" r="1.38"/><circle class="a" cx="3" cy="2.61" r="1.38"/><circle class="b" cx="2.93" cy="7.46" r="1.31"/><path class="b" d="M8.48 13.74a.82.82 0 0 1 .53.19l4.19 3.61a.73.73 0 0 1 .21 1.06c-.29.35-.76.18-1.11-.11L8.2 15.4h-4a1.05 1.05 0 0 1-1.12-1.05l-.71-3.7a1.06 1.06 0 0 1 .84-1.24 1.06 1.06 0 0 1 1.24.84l.67 3.49z"/><rect class="b" x="2.64" y="18.4" width="4.73" height="1.48" rx=".74" ry=".74"/><path class="b" d="M6.58 17.52a.62.62 0 1 0 0-1.24H4.12a2.43 2.43 0 0 1-1.5-.59 2.78 2.78 0 0 1-.58-1.29l-.8-4.18a.62.62 0 0 0-.68-.55.62.62 0 0 0-.55.68L.89 15a3.1 3.1 0 0 0 .67 1.55 3.52 3.52 0 0 0 2.33 1z"/></svg>