<svg width="46" height="40" viewBox="0 0 46 40" xmlns="http://www.w3.org/2000/svg"><path d="M16.429 6.667H29.57V3.333H16.43v3.334zm-9.036 0V40H5.75c-1.574 0-2.926-.573-4.056-1.719C.564 37.135 0 35.764 0 34.167V12.5c0-1.597.565-2.969 1.694-4.115C2.824 7.24 4.176 6.667 5.75 6.667h1.643zm28.75 0V40H9.857V6.667h3.286V2.5c0-.694.24-1.285.719-1.77A2.36 2.36 0 0 1 15.607 0h14.786a2.36 2.36 0 0 1 1.745.73c.48.485.72 1.076.72 1.77v4.167h3.285zM46 12.5v21.667c0 1.597-.565 2.968-1.694 4.114C43.176 39.427 41.824 40 40.25 40h-1.643V6.667h1.643c1.574 0 2.926.573 4.056 1.718C45.436 9.531 46 10.903 46 12.5z"/></svg>