
<svg width="42" height="39" viewBox="0 0 42 39" xmlns="http://www.w3.org/2000/svg"><g><rect width="4.567" height="9.07" rx="2.284" transform="translate(18.716)"/><rect width="4.567" height="9.07" rx="2.284" transform="rotate(30 11.837 54.77)"/><rect width="4.567" height="9.07" rx="2.284" transform="rotate(60 11.769 36.173)"/><rect width="4.567" height="9.07" rx="2.284" transform="rotate(90 11.928 29.109)"/><rect x=".032" y=".069" width="4.591" height="8.929" rx="2.296" transform="rotate(120 11.916 24.976)"/><rect width="4.567" height="9.07" rx="2.284" transform="rotate(150 11.735 22.06)"/><rect width="4.567" height="9.07" rx="2.284" transform="rotate(180 11.642 19.5)"/><rect width="4.567" height="9.07" rx="2.284" transform="rotate(-150 11.445 17.073)"/><rect width="4.567" height="9.07" rx="2.284" transform="rotate(-120 11.4 14.295)"/><rect width="4.567" height="9.07" rx="2.284" transform="rotate(-90 11.356 10.393)"/><rect width="4.567" height="9.07" rx="2.284" transform="rotate(-60 11.48 3.815)"/><rect width="4.567" height="9.07" rx="2.284" transform="rotate(-30 11.342 -14.692)"/></g></svg>