<svg width="40" height="30" viewBox="0 0 40 30" xmlns="http://www.w3.org/2000/svg"><path d="M40 20v4.286c0 .193-.07.36-.212.502a.686.686 0 0 1-.502.212H8.57v4.286c0 .193-.07.36-.212.502a.686.686 0 0 1-.502.212c-.178 0-.357-.074-.536-.223L.2 22.634a.668.668 0 0 1-.2-.491.7.7 0 0 1 .2-.514l7.144-7.142a.695.695 0 0 1 .513-.201c.194 0 .361.07.502.212a.686.686 0 0 1 .212.502v4.286h30.715c.193 0 .36.07.502.212A.686.686 0 0 1 40 20zm0-12.143a.7.7 0 0 1-.2.514l-7.144 7.142a.695.695 0 0 1-.513.201.686.686 0 0 1-.502-.212.686.686 0 0 1-.212-.502v-4.286H.714a.686.686 0 0 1-.502-.212A.686.686 0 0 1 0 10V5.714c0-.193.07-.36.212-.502A.686.686 0 0 1 .714 5H31.43V.714c0-.208.067-.38.2-.513A.695.695 0 0 1 32.143 0c.178 0 .357.074.536.223l7.12 7.12a.699.699 0 0 1 .201.514z"/></svg>