<svg xmlns="http://www.w3.org/2000/svg" width="28" height="26" viewBox="0 0 28 26"><g fill="none" fill-rule="evenodd" transform="translate(-.48 .5)"><polygon fill="#FFF" fill-rule="nonzero" points="14.475 0 .98 8 .98 17 14.475 25 27.98 17 27.98 8"/><g transform="translate(2.98 2.5)"><polygon fill="#4BADE0" points="5.747 10.003 5.747 10.003 11.493 13.336 11.493 13.335 11.493 6.671"/><polygon fill="#2A72B5" points="11.493 6.671 11.493 13.335 17.24 10.003"/><polygon fill="#53BCEB" points="11.493 6.671 5.747 3.339 5.747 10.003"/><polygon fill="#115EAD" points="11.493 6.671 17.24 10.003 17.24 3.339"/><polygon fill="#123368" points="17.24 10.003 22.986 13.336 22.986 6.671"/><polygon fill="#264575" points="22.987 6.671 17.24 3.339 17.24 10.003"/><polygon fill="#98D7F3" points="17.24 3.339 11.493 .007 11.493 .007 11.493 6.671"/><polygon fill="#98BCDC" points="17.234 16.664 11.493 13.336 11.493 19.986"/><polygon fill="#2A72B5" points="5.747 16.667 11.493 13.335 5.747 10.003"/><polygon fill="#84ABD1" points="11.493 19.986 11.493 13.335 5.747 16.667 5.747 16.668 11.482 19.993"/><polygon fill="#00245D" points="17.24 10.003 17.24 16.661 22.986 13.336"/><polygon fill="#0D3F8F" points="17.24 10.003 11.493 13.335 11.493 13.336 17.234 16.664 17.24 16.661"/><polygon fill="#64C3ED" points="5.747 10.003 5.747 3.339 0 6.671"/><polygon fill="#86D0F1" points="0 6.671 0 13.336 5.747 10.003"/><polygon fill="#A9DDF5" points="5.747 10.003 5.747 10.003 0 13.336 5.747 16.668 5.747 16.667"/><polygon fill="#BAE4F7" points="11.493 6.671 11.493 .007 5.747 3.339"/></g></g></svg>