<?xml version="1.0" encoding="UTF-8"?><svg viewBox="0 0 10 12" version="1.1" xmlns="http://www.w3.org/2000/svg" xmlns:xlink="http://www.w3.org/1999/xlink"><defs></defs><g id="Page-1" stroke="none" stroke-width="1"><g id="link-out" transform="translate(-1.000000, 0.000000)"><path d="M9.44,2.11 L4,2.11 C3.82509288,2.08370677 3.65100328,2.16231348 3.55506115,2.31090333 C3.45911903,2.45949319 3.45911903,2.65050681 3.55506115,2.79909667 C3.65100328,2.94768652 3.82509288,3.02629323 4,3 L8.34,3 L2.24,9.12 C2.11464866,9.23161385 2.06183054,9.40371285 2.10298842,9.56642929 C2.1441463,9.72914573 2.27243922,9.85543407 2.4357836,9.89402454 C2.59912798,9.93261501 2.7703739,9.87709339 2.88,9.75 L9,3.64 L9,8 C9,8.24852814 9.20147186,8.45 9.45,8.45 C9.69852814,8.45 9.9,8.24852814 9.9,8 L9.9,2.56 C9.90002991,2.43889959 9.85124908,2.32289837 9.76468238,2.23821356 C9.67811569,2.15352875 9.56107051,2.10730888 9.44,2.11 Z" id="Shape" transform="translate(5.994618, 6.005540) rotate(-45.000000) translate(-5.994618, -6.005540) "></path></g></g></svg>