<svg xmlns="http://www.w3.org/2000/svg" width="48" height="48" viewBox="0 0 48 48"><g transform="translate(10 10)"><path d="M18.915 12.692v1.868c0 .214-.125.388-.34.388h-3.19c-.213 0-.437.174-.437.388v3.19c0 .216-.125.389-.339.389h-1.867c-.214 0-.438-.173-.438-.388v-3.19c0-.215-.124-.389-.339-.389h-3.19c-.214 0-.437-.174-.437-.388v-1.868c0-.214.223-.388.437-.388h3.19c.215 0 .34-.174.34-.388v-3.19c0-.215.223-.388.437-.388h1.867c.214 0 .34.173.34.388v3.19c0 .214.223.388.437.388h3.19c.214 0 .339.174.339.388"/><path d="M13.626 26.502C6.515 26.502.75 20.738.75 13.626.75 6.515 6.515.75 13.626.75c7.112 0 12.876 5.765 12.876 12.876 0 7.112-5.764 12.876-12.876 12.876zm0-1.5c6.283 0 11.376-5.093 11.376-11.376 0-6.283-5.093-11.376-11.376-11.376C7.343 2.25 2.25 7.343 2.25 13.626c0 6.283 5.093 11.376 11.376 11.376z"/></g></svg>