<svg xmlns="http://www.w3.org/2000/svg" width="48" height="48" viewBox="0 0 48 48"><g transform="translate(15 9)"><path d="M17.59 5.42v18.65c0 2.942-2.42 5.68-5.26 5.68H5.44c-2.788 0-5.03-2.711-5.03-5.68V5.446A5.02 5.02 0 0 1 5.44.25h6.883a5.22 5.22 0 0 1 3.782 1.574A5.142 5.142 0 0 1 17.59 5.42zm-2.553-2.542A3.727 3.727 0 0 0 12.33 1.75H5.438A3.52 3.52 0 0 0 1.91 5.42v18.65c0 2.196 1.64 4.18 3.53 4.18h6.89c1.967 0 3.76-2.028 3.76-4.18V5.423a3.64 3.64 0 0 0-1.053-2.545zM13.48 7.35H4.52v14.21h8.96V7.35zm1.5-.75v15.71a.75.75 0 0 1-.75.75H3.77a.75.75 0 0 1-.75-.75V6.6a.75.75 0 0 1 .75-.75h10.46a.75.75 0 0 1 .75.75z"/><path d="M7.67 25.43a1.24 1.24 0 1 1 2.48-.02 1.24 1.24 0 0 1-2.48.02z"/></g></svg>