<svg xmlns="http://www.w3.org/2000/svg" width="48" height="48" viewBox="0 0 48 48"><g transform="translate(8 10)"><path d="M11.167 21.827c0-2.514-2.03-4.544-4.447-4.447-2.417 0-4.447 2.03-4.447 4.447a4.435 4.435 0 0 0 4.447 4.446c2.417 0 4.447-2.03 4.447-4.446zm1.5 0c0 3.245-2.702 5.946-5.947 5.946a5.935 5.935 0 0 1-5.947-5.946c0-3.245 2.702-5.947 5.887-5.946 3.282-.131 6.007 2.594 6.007 5.946zm12.613 4.446a4.435 4.435 0 0 0 4.447-4.446c0-2.417-2.03-4.447-4.447-4.447-2.417 0-4.447 2.03-4.447 4.447a4.435 4.435 0 0 0 4.447 4.446zm0 1.5a5.935 5.935 0 0 1-5.947-5.946c0-3.245 2.702-5.947 5.947-5.947s5.947 2.702 5.947 5.947a5.935 5.935 0 0 1-5.947 5.946zm-8.529-2.767a.75.75 0 0 1-1.49-.162l.707-6.525a.05.05 0 0 0-.03-.051l-3.955-1.76a2.25 2.25 0 0 1-.86-3.438l4.8-6.16a.75.75 0 0 1 1.183.923l-4.8 6.159a.75.75 0 0 0 .287 1.146l3.955 1.76c.616.273.984.913.911 1.583l-.708 6.525z"/><path d="M18.63 8.702a4.133 4.133 0 1 1 0-8.267 4.133 4.133 0 0 1 0 8.267zm0-1.5a2.633 2.633 0 1 0 0-5.267 2.633 2.633 0 0 0 0 5.267zm2.62 5.592a.75.75 0 1 1 0 1.5h-3.434a.75.75 0 0 1-.518-.208l-3.224-3.084a.75.75 0 1 1 1.036-1.084l3.007 2.876h3.133z"/></g></svg>