<svg xmlns="http://www.w3.org/2000/svg" width="48" height="48" viewBox="0 0 48 48"><g transform="translate(10 13)"><path d="M25.75 6.36c0-.659-1.017-1.61-1.74-1.61h-11a1.26 1.26 0 0 1-1.26-1.26v-.84a.9.9 0 0 0-.9-.9H7.265c-.715 0-1.014.5-1.014 1.74a1.26 1.26 0 0 1-1.26 1.26H3.86c-.884 0-1.61.726-1.61 1.61v12.62c0 .697.573 1.27 1.27 1.27h20.96c.697 0 1.27-.573 1.27-1.27V6.36zm-12.5-3.11h10.76c1.53 0 3.24 1.6 3.24 3.11v12.62a2.775 2.775 0 0 1-2.77 2.77H3.52a2.776 2.776 0 0 1-2.77-2.77V6.36a3.118 3.118 0 0 1 3.11-3.11h.894c.06-1.824.834-3 2.51-3h3.587a2.4 2.4 0 0 1 2.399 2.4v.6z"/><path d="M20.95 12.726h.75a4.669 4.669 0 1 1-9.338-.002 4.669 4.669 0 0 1 9.338.002h-.75zm0 0h-.75a3.169 3.169 0 1 0-6.338 0 3.169 3.169 0 0 0 6.338 0h.75z"/></g></svg>