<svg xmlns="http://www.w3.org/2000/svg" width="48" height="48" viewBox="0 0 48 48"><g transform="translate(8 13)"><path d="M11.75 13.781a.75.75 0 1 1 1.5 0c0 .565.742 1.122 1.746 1.122s1.747-.557 1.747-1.122c0-.662-.566-1.122-1.747-1.122-1.949 0-3.246-1.056-3.246-2.622 0-1.503 1.492-2.623 3.246-2.623s3.247 1.12 3.247 2.623a.75.75 0 0 1-1.5 0c0-.566-.743-1.123-1.747-1.123s-1.746.557-1.746 1.123c0 .662.565 1.122 1.746 1.122 1.949 0 3.247 1.056 3.247 2.622 0 1.503-1.493 2.622-3.247 2.622-1.754 0-3.246-1.12-3.246-2.622z"/><path d="M2.5 5a.5.5 0 0 0-.5.5v13a.5.5 0 0 0 .5.5h24.98a.5.5 0 0 0 .5-.5v-13a.5.5 0 0 0-.5-.5H2.5zm0-1.5h24.98a2 2 0 0 1 2 2v13a2 2 0 0 1-2 2H2.5a2 2 0 0 1-2-2v-13a2 2 0 0 1 2-2z"/><path d="M4.5 2.25a.75.75 0 0 1 0-1.5h24.984a2.75 2.75 0 0 1 2.75 2.75v13a.75.75 0 1 1-1.5 0v-13c0-.69-.56-1.25-1.25-1.25H4.5z"/><path d="M14.246 6.5a.75.75 0 1 1 1.5 0v1.664a.75.75 0 1 1-1.5 0V6.5zm0 9.153a.75.75 0 1 1 1.5 0v1.664a.75.75 0 0 1-1.5 0v-1.664z"/></g></svg>