<svg xmlns="http://www.w3.org/2000/svg" width="48" height="48" viewBox="0 0 48 48"><g transform="translate(9 10)"><path d="M25.02 6.652h-1.943a.75.75 0 1 1 0-1.5h2.192c.69 0 1.25.56 1.25 1.25v16.68a1.25 1.25 0 0 1-1.48 1.228c-4.003-.752-7.125.219-9.473 2.92a.75.75 0 1 1-1.132-.985c2.65-3.049 6.212-4.205 10.585-3.463V6.652z"/><path d="M15 27.477a.748.748 0 0 0 .75-.754V8.541l-.064-.145c-1.612-3.643-5.39-5.039-11.124-4.258a1.25 1.25 0 0 0-1.081 1.238v17.735a1.25 1.25 0 0 0 1.478 1.229c4.004-.743 7.128.215 9.475 2.88.138.158.34.257.566.257zm.563-1.245a11.586 11.586 0 0 0-1.313-1.278v1.773a.752.752 0 0 0 1.5 0 .75.75 0 0 0-.187-.495zM4.98 22.812V5.597c4.93-.629 7.956.482 9.269 3.266v16.092c-2.474-2.045-5.583-2.76-9.27-2.141zM4.804 5.616a.251.251 0 0 1-.026.007l.026-.007z"/><path d="M15.729 9.143l-1.458-.353c.965-3.988 3.62-6.763 7.888-8.275a1.25 1.25 0 0 1 1.668 1.178v16.43c0 .522-.324.99-.813 1.172-3.364 1.256-5.796 3.618-7.327 7.126l-1.374-.6c1.666-3.818 4.346-6.454 8.014-7.87v-15.9c-3.606 1.368-5.782 3.716-6.598 7.092zm-5.037 16.844a.75.75 0 0 1 0 1.5H2.538a1.75 1.75 0 0 1-1.75-1.75V10.58c0-.966.784-1.75 1.75-1.75h1.693a.75.75 0 0 1 0 1.5H2.538a.25.25 0 0 0-.25.25v15.158c0 .138.112.25.25.25h8.154z"/><path d="M19.308 25.987a.75.75 0 0 0 0 1.5h8.154a1.75 1.75 0 0 0 1.75-1.75V10.58a1.75 1.75 0 0 0-1.75-1.75h-1.693a.75.75 0 0 0 0 1.5h1.693a.25.25 0 0 1 .25.25v15.158a.25.25 0 0 1-.25.25h-8.154z"/></g></svg>