<svg xmlns="http://www.w3.org/2000/svg" width="48" height="48" viewBox="0 0 48 48"><g transform="translate(12 14)"><path d="M5.363.887a.75.75 0 0 1 1.5 0v13.91c0 .464.229.73.707.733.666.005 2.925.005 6.77 0a.75.75 0 1 1 .002 1.5c-3.852.005-6.11.005-6.783 0-1.353-.01-2.196-.989-2.196-2.233V.887zm-4.284 4.47a.75.75 0 1 1 0-1.5h1.81a.75.75 0 0 1 0 1.5h-1.81z"/><path d="M18.303 19.999a.75.75 0 0 1-1.5.001c-.008-8.546-.008-13.141 0-13.812.006-.524-.321-.831-.848-.831h-6.63a.75.75 0 1 1 0-1.5h6.63c1.338 0 2.364.964 2.348 2.349-.008.66-.008 5.267 0 13.793z"/><path d="M20.778 17.046a.75.75 0 0 1 0-1.5h1.81a.75.75 0 0 1 0 1.5h-1.81z"/></g></svg>