<svg xmlns="http://www.w3.org/2000/svg" width="48" height="48" viewBox="0 0 48 48"><g transform="translate(4 13)"><path d="M30.97 15.061c0-.634-.495-1.14-1.095-1.14s-1.093.507-1.093 1.14c0 .633.494 1.14 1.093 1.14.6 0 1.094-.506 1.094-1.14zm1.5 0c0 1.454-1.158 2.64-2.595 2.64-1.436 0-2.593-1.186-2.593-2.64 0-1.454 1.157-2.64 2.593-2.64 1.437 0 2.594 1.186 2.594 2.64zm-9.654-8.48a.75.75 0 1 1 0 1.5h-5.88a.75.75 0 1 1 0-1.5h5.88z"/><path d="M31.76 18.831c.55 0 1.05-.244 1.323-.629l4.332-6.12c.234-.331-.056-.791-.633-.791H6.285c-.52 0-.974.267-1.155.646l-2.826 5.991c-.193.41.181.903.816.903h28.64zm0 1.5H3.12c-1.673 0-2.865-1.574-2.173-3.043l2.828-5.992c.437-.923 1.429-1.505 2.51-1.505h30.497c1.726 0 2.841 1.769 1.857 3.157l-4.332 6.12c-.56.793-1.523 1.263-2.548 1.263z"/><path d="M30.15 5.604c.008-.261-.158-.453-.311-.457l-13.223-.102a.75.75 0 0 1-.41-.126l-3.613-2.413.039 1.628a.75.75 0 0 1-.75.768h-.507c-.26-.008-.664.297-.752.547l-.859 4.337 20.322-.114.065-4.068zm1.424 4.826a.75.75 0 0 1-.745.738l-21.975.123a.75.75 0 0 1-.74-.896l1.061-5.326c.281-.853 1.104-1.54 1.94-1.652l-.033-1.37c-.023-.99 1.038-1.66 1.886-1.094l3.884 2.594 13.014.1c1.025.03 1.81.934 1.785 1.984l-.077 4.799z"/></g></svg>