<svg xmlns="http://www.w3.org/2000/svg" width="48" height="48" viewBox="0 0 48 48"><g transform="translate(12 9)"><path d="M5.89 12h1.5v14.412a2.434 2.434 0 0 1-4.868 0V12h1.5v14.412a.934.934 0 1 0 1.869 0V12z"/><path d="M.58 1.04a.75.75 0 1 1 1.5 0v7.653a2.97 2.97 0 1 0 5.94 0V1.04a.75.75 0 1 1 1.5 0v7.653a4.47 4.47 0 1 1-8.94 0V1.04z"/><path d="M4.258 1.04a.75.75 0 1 1 1.5 0v11.183a.75.75 0 1 1-1.5 0V1.04zM18.934 13h1.5v13.598a2.434 2.434 0 0 1-4.868 0V13h1.5v13.598a.934.934 0 0 0 1.868 0V13z"/><path d="M18 14.555a5.844 5.844 0 0 1-5.844-5.844C12.156 5.07 14.952.41 18 .41c3.048 0 5.844 4.66 5.844 8.302A5.844 5.844 0 0 1 18 14.555zm0-1.5a4.344 4.344 0 0 0 4.344-4.344c0-2.921-2.328-6.802-4.344-6.802-2.016 0-4.344 3.88-4.344 6.802A4.344 4.344 0 0 0 18 13.055z"/></g></svg>