<svg xmlns="http://www.w3.org/2000/svg" width="48" height="48" viewBox="0 0 48 48"><g transform="translate(14 13)"><path d="M16.333 1.333a.75.75 0 1 1 1.5 0v12.785a.75.75 0 0 1-1.5 0V1.333zm0 17.601a.75.75 0 0 1 1.5 0v1.955a.75.75 0 0 1-1.5 0v-1.955zM9.22 1.334a.75.75 0 0 1 1.5 0v2.054a.75.75 0 1 1-1.5 0V1.333zm0 6.824a.75.75 0 0 1 1.5 0v12.73a.75.75 0 1 1-1.5 0V8.159zm-7.11-6.825a.75.75 0 0 1 1.5 0v7.299a.75.75 0 1 1-1.5 0V1.333zm0 12.257a.75.75 0 0 1 1.5 0v7.299a.75.75 0 1 1-1.5 0V13.59z"/><path d="M4.272 10.936a1.424 1.424 0 1 0-2.823.38 1.424 1.424 0 0 0 2.823-.38zm1.348-.182a2.783 2.783 0 0 1-2.386 3.132A2.782 2.782 0 0 1 .1 11.499a2.784 2.784 0 1 1 5.52-.745zm12.874 5.515a1.424 1.424 0 1 0-2.823.38 1.424 1.424 0 0 0 2.823-.38zm1.348-.182a2.783 2.783 0 0 1-2.386 3.132 2.785 2.785 0 1 1 2.387-3.131zM9.782 4.381a1.424 1.424 0 1 0 .38 2.824 1.424 1.424 0 0 0-.38-2.824zm.562 4.172a2.784 2.784 0 1 1-.745-5.518 2.784 2.784 0 0 1 .745 5.518z"/></g></svg>