<svg xmlns="http://www.w3.org/2000/svg" width="48" height="48" viewBox="0 0 48 48"><g transform="translate(16 10)"><path d="M.817 19.054a.75.75 0 0 1 1.5 0c0 2.205 2.583 4.1 5.863 4.1 3.28 0 5.866-1.895 5.866-4.1 0-2.43-2.1-4.1-5.866-4.1-4.527 0-7.363-2.258-7.363-5.6 0-3.153 3.337-5.602 7.363-5.602 4.027 0 7.366 2.449 7.366 5.602a.75.75 0 1 1-1.5 0c0-2.206-2.585-4.102-5.866-4.102-3.28 0-5.863 1.895-5.863 4.102 0 2.429 2.099 4.1 5.863 4.1 4.528 0 7.366 2.257 7.366 5.6 0 3.151-3.34 5.6-7.366 5.6s-7.363-2.448-7.363-5.6z"/><path d="M7.431 1.345a.75.75 0 1 1 1.5 0v2.771a.75.75 0 0 1-1.5 0V1.345zm0 22.945a.75.75 0 1 1 1.5 0v2.771a.75.75 0 1 1-1.5 0V24.29z"/></g></svg>