<svg xmlns="http://www.w3.org/2000/svg" width="48" height="48" viewBox="0 0 48 48"><g transform="rotate(-45 29.195 .852)"><path d="M2.793 21.366a2.16 2.16 0 1 1 0-4.318 2.16 2.16 0 0 1 0 4.318z"/><g transform="translate(1.039 .47)"><path d="M9.651 19.678a.75.75 0 1 1-1.5 0c0-3.827-3.087-6.928-6.895-6.928a.75.75 0 1 1 0-1.5c4.638 0 8.395 3.774 8.395 8.428z"/><path d="M14.75 19.678a.75.75 0 1 1-1.5 0c0-6.655-5.37-12.049-11.994-12.049a.75.75 0 1 1 0-1.5c7.453 0 13.494 6.067 13.494 13.55z"/><path d="M19.985 19.678a.75.75 0 1 1-1.5 0c0-9.559-7.714-17.307-17.229-17.307a.75.75 0 1 1 0-1.5c10.345 0 18.73 8.421 18.73 18.807z"/></g></g></svg>