<svg xmlns="http://www.w3.org/2000/svg" width="48" height="48" viewBox="0 0 48 48"><g transform="translate(7 10)"><path d="M32.06 13.319a.75.75 0 0 1-.508 1.301H1.5a.75.75 0 0 1-.509-1.301L14.45.896a3.062 3.062 0 0 1 4.154 0L32.06 13.32zm-2.427-.199L17.585 1.998a1.562 1.562 0 0 0-2.118 0L3.418 13.12h26.215z"/><path d="M6.865 14.62v11.66h7.883v-4.807a.75.75 0 0 1 .75-.75h5.28a.75.75 0 0 1 .75.75v4.807h4.654V14.62H6.865zm9.383 12.41a.75.75 0 0 1-.75.75H6.115a.75.75 0 0 1-.75-.75V13.87a.75.75 0 0 1 .75-.75h20.817a.75.75 0 0 1 .75.75v13.16a.75.75 0 0 1-.75.75h-6.154a.75.75 0 0 1-.75-.75v-4.807h-3.78v4.807z"/></g></svg>