<svg xmlns="http://www.w3.org/2000/svg" width="48" height="48" viewBox="0 0 48 48"><g fill-rule="evenodd" transform="translate(6 6)"><path d="M.136 20.227h12.358a5.797 5.797 0 0 0 11.205 0h12.165C34.766 29.117 27.187 36 18 36 8.813 36 1.234 29.118.136 20.227zm-.122-1.5C.004 18.487 0 18.244 0 18 0 8.059 8.059 0 18 0s18 8.059 18 18c0 .244-.005.486-.014.727H23.89a5.796 5.796 0 0 0-5.055-5.735V7.47a.75.75 0 1 0-1.5 0v5.524a5.796 5.796 0 0 0-5.035 5.733H.014zm8.236 4.035a1.672 1.672 0 1 0-3.344 0 1.672 1.672 0 0 0 3.344 0zm22.92 0a1.672 1.672 0 1 0-3.344 0 1.672 1.672 0 0 0 3.344 0z"/><path d="M15.69 18.88h4.52a.75.75 0 1 0 0-1.5h-4.52a.75.75 0 1 0 0 1.5z"/></g></svg>