<svg xmlns="http://www.w3.org/2000/svg" width="48" height="48" viewBox="0 0 48 48"><g transform="translate(14.167 9.75)"><path d="M.376 9.703A9.508 9.508 0 0 1 8.46.359 9.456 9.456 0 0 1 19.164 9.73a9.268 9.268 0 0 1-.921 4.052l-.022.204-.08.139-.419.711-.083.154-6.45 11.22a1.646 1.646 0 0 1-2.852-.003L1.928 15.032l-.128-.195-.481-.843-.017-.155a9.538 9.538 0 0 1-.926-4.136zm1.5.01a7.768 7.768 0 0 0 .84 3.567l.101.198-.01.098.268.472.128.195L9.638 25.46a.146.146 0 0 0 .252 0l6.44-11.203.087-.16.316-.539-.01-.092.101-.199a7.77 7.77 0 0 0 .84-3.535 7.957 7.957 0 0 0-8.987-7.888 8.008 8.008 0 0 0-6.8 7.868z"/><path d="M11.398 12.206a2.612 2.612 0 0 1-2.877 0 2.6 2.6 0 0 1-1.211-2.183 2.625 2.625 0 1 1 4.063 2.195l.025-.012z"/></g></svg>