<svg xmlns="http://www.w3.org/2000/svg" width="48" height="48" viewBox="0 0 48 48"><g fill="none" fill-rule="evenodd" transform="translate(10 12)"><polygon fill="#4BADE0" points="6.996 12.004 6.996 12.004 13.992 16.003 13.992 16.002 13.992 8.005"/><polygon fill="#2A72B5" points="13.992 8.005 13.992 16.002 20.988 12.004"/><polygon fill="#53BCEB" points="13.992 8.005 6.996 4.007 6.996 12.004"/><polygon fill="#115EAD" points="13.992 8.005 20.988 12.004 20.988 4.007"/><polygon fill="#123368" points="20.988 12.004 27.984 16.003 27.984 8.005"/><polygon fill="#264575" points="27.984 8.005 20.988 4.007 20.988 12.004"/><polygon fill="#98D7F3" points="20.988 4.007 13.992 .008 13.992 .008 13.992 8.005"/><polygon fill="#98BCDC" points="20.981 19.997 13.992 16.003 13.992 23.983"/><polygon fill="#2A72B5" points="6.996 20.001 13.992 16.003 6.996 12.004"/><polygon fill="#84ABD1" points="13.992 23.983 13.992 16.003 6.996 20.001 6.996 20.001 13.977 23.991"/><polygon fill="#00245D" points="20.988 12.004 20.988 19.993 27.984 16.003"/><polygon fill="#0D3F8F" points="20.988 12.004 13.992 16.002 13.992 16.003 20.981 19.997 20.988 19.993"/><polygon fill="#64C3ED" points="6.996 12.004 6.996 4.007 0 8.005"/><polygon fill="#86D0F1" points="0 8.005 0 16.003 6.996 12.004"/><polygon fill="#A9DDF5" points="6.996 12.004 6.996 12.004 0 16.003 6.996 20.001 6.996 20.001"/><polygon fill="#BAE4F7" points="13.992 8.005 13.992 .008 6.996 4.007"/></g></svg>