<svg xmlns="http://www.w3.org/2000/svg" width="48" height="48" viewBox="0 0 48 48"><g fill-rule="evenodd" transform="translate(9 13)"><path d="M5.551 10.813c-.997.918-1.45 2.086-1.211 2.578.24.49.724.625 1.453.401.504-.155.969.205.832.646-.195.645-.195 1.066 0 1.26.195.196.653.234 1.375.114.5-.124.983.298.875.75-.187.617-.321 1.078-.149 1.25.173.173.639.173 1.399 0 .491-.08.865.24.865.77 0 .242-.264 1.098.216 1.466.48.368 1.558 0 2.97-1.79.678.615.456.325 1.085 1.023-2.37 2.88-4.104 2.619-4.967 1.958-.6-.459-.845-1.094-.874-1.792-.722.055-1.271-.09-1.755-.574-.45-.45-.562-.937-.515-1.487-.637-.016-1.153-.194-1.586-.627a1.961 1.961 0 0 1-.595-1.37c-.847-.06-1.564-.493-1.978-1.341-.625-1.284.17-3.075 1.545-4.34"/><path fill-rule="nonzero" d="M24.529 9.099l3.274-2.926c.125 0 .464-.574.091-1.009-.249-.29-1.176-1.353-2.783-3.19-.375-.375-.888-.554-1.832.125-.945.68-1.267.75-1.75.75-.484 0-1.625-.25-2.375-.625-1.125-.5-1.875-.875-2.75-.25l-3.125 2.25c-.25.125-.673.74-.25 1.375.422.634 1.125.375 1.375.25l1.375-1 2.25-1.625.375.375c2 1.75 4.375 3.875 6.125 5.5zM16.66 6.062l-1.476 1.073-.11.056c-1.101.55-2.418.556-3.295-.76-.842-1.265-.363-2.838.688-3.472L15.532.753a3.2 3.2 0 0 1 1.2-.541c.979-.209 1.442-.065 3.092.67.48.24 1.392.467 1.705.467.2 0 .251-.02.874-.468 1.4-1.007 2.76-.976 3.768.032l.069.073a857.695 857.695 0 0 1 2.792 3.201c.862 1.004.607 2.7-.429 3.283l-4.094 3.658-1.001-.93A307.87 307.87 0 0 0 17.91 5.16l-1.25.903z"/><path d="M24.632 9.242c1.443 1.412.365.415 1.348 1.246l.091.085c.38.38.65.714.856 1.151.37.79.348 1.674-.215 2.433-.526.71-1.22.969-1.991.892a1.853 1.853 0 0 1-.565 1.463c-.408.409-.885.577-1.45.595.084.65-.07 1.226-.622 1.71-.486.424-1.018.536-1.65.463-.047.9-.598 1.647-1.647 1.874-.834.18-1.487.035-2.066-.425l-.201-.164-.144-.108L1.6 7.927C.535 7.024.007 5.5 1.014 3.979c.321-.486 1.104-1.464 2.35-2.942C4.338-.26 5.639-.26 7.367.778l.129.086c.29.218.699.39 1.144.479.297.059.713-.075 1.249-.403l.106-.07.117-.052C11.39.248 13.02.197 13.956.518c.493.169.959.5 1.48.995-1.411.729-1.722.508-1.965.425-.366-.125-1.625-.25-2.75.25-.75.5-1.75.75-2.375.624-.625-.124-1.25-.374-1.75-.75-1.25-.75-1.657-.624-2.032-.124-1.256 1.493-2.022 2.45-2.3 2.868-.63.953.023 1.737.306 1.977l14.776 12.53c.375.25.442.522 1.125.375.455-.099.58-.432.375-1l-4.75-4.125c-.375-.25-.375-.75-.125-1.126.375-.25.875-.374 1.25 0l4.875 4.25c.512.136.845.136 1 0 .154-.135.154-.426 0-.875l-4.875-4.25c-.375-.25-.375-.75-.125-1.124.25-.376.75-.376 1.125-.126l4.875 4.25c.513.08.846.043 1-.11.154-.154.154-.45 0-.89-3.334-2.833-5-4.291-5-4.374-.25-.25-.125-.876.125-1.126.25-.25.875-.25 1.125.126l4.498 3.988c.809.463 1.363.492 1.663.087.45-.607-.121-1.255-.496-1.63-.305-.257-.632-.61-.978-.92"/></g></svg>