<svg xmlns="http://www.w3.org/2000/svg" width="48" height="48" viewBox="0 0 48 48"><g fill-rule="evenodd" transform="translate(1 13)"><path fill-rule="nonzero" d="M29.786 15.932a.75.75 0 0 1 0-1.5H44.56a.75.75 0 0 1 0 1.5H29.786zm-28.317 0a.75.75 0 1 1 0-1.5h14.774a.75.75 0 0 1 0 1.5H1.47zm20.935-14.39a.75.75 0 1 1 1.5 0v6.174a.75.75 0 0 1-1.5 0V1.542z"/><path fill-rule="nonzero" d="M28.75 14.407a5.587 5.587 0 1 0-11.174 0 5.587 5.587 0 0 0 11.174 0zm1.5 0a7.087 7.087 0 1 1-14.174 0 7.087 7.087 0 0 1 14.174 0z"/><path fill-rule="nonzero" d="M21.168 13.47a.75.75 0 0 1 0-1.5h3.693a.75.75 0 0 1 0 1.5h-3.693z"/><path d="M11.79 18.626a1.753 1.753 0 1 1-3.505 0 1.753 1.753 0 0 1 3.506 0m26.132 0a1.753 1.753 0 1 1-3.507 0 1.753 1.753 0 0 1 3.507 0"/></g></svg>