<svg xmlns="http://www.w3.org/2000/svg" width="48" height="48" viewBox="0 0 48 48"><g transform="translate(7 12)"><path d="M2.063 14.655c0-.58.397-1.22 1.084-1.76.634-.496 1.656-.816 2.66-.816 1.752 0 3.313.974 3.622 2.15a.75.75 0 1 0 1.45-.38c-.499-1.902-2.69-3.27-5.071-3.27-1.327 0-2.675.423-3.586 1.136-1.018.8-1.659 1.833-1.659 2.94v4.29c0 .814.614 1.467 1.494 1.467h2.824a.75.75 0 1 0 0-1.5H2.063v-4.257z"/><path d="M8.477 7.754c0-1.435-1.241-2.614-2.792-2.614-1.548 0-2.79 1.18-2.79 2.614 0 1.435 1.242 2.614 2.79 2.614 1.551 0 2.792-1.179 2.792-2.614zm1.5 0c0 2.281-1.93 4.114-4.292 4.114-2.36 0-4.29-1.833-4.29-4.114 0-2.28 1.93-4.114 4.29-4.114 2.362 0 4.292 1.833 4.292 4.114zm22.057 6.9c0-.579-.397-1.218-1.084-1.759-.634-.496-1.656-.816-2.66-.816-1.794 0-3.379 1.02-3.64 2.224a.75.75 0 0 1-1.465-.317c.425-1.969 2.661-3.407 5.104-3.407 1.327 0 2.675.423 3.587 1.136 1.017.8 1.658 1.833 1.658 2.94v4.29c0 .814-.614 1.467-1.494 1.467h-2.825a.75.75 0 0 1 0-1.5h2.819v-4.257z"/><path d="M31.202 7.754c0-1.435-1.241-2.614-2.791-2.614-1.549 0-2.79 1.18-2.79 2.614 0 1.435 1.24 2.614 2.79 2.614s2.79-1.179 2.79-2.614zm1.5 0c0 2.281-1.93 4.114-4.291 4.114-2.36 0-4.29-1.833-4.29-4.114 0-2.28 1.93-4.114 4.29-4.114 2.362 0 4.29 1.833 4.29 4.114zm-9.098 8.914c0-3.033-3.148-5.673-6.74-5.673-3.554 0-6.626 2.64-6.626 5.673v5.24c0 .097-.014.058-.093.002-.019-.013.081.004.317.004h12.652c.24 0 .394-.004.49-.01v-5.236zm-10.71 6.746h-2.432c-1.118 0-1.724-.427-1.724-1.506v-5.24c0-3.917 3.79-7.173 8.126-7.173 4.367 0 8.24 3.247 8.24 7.173v5.24c0 1.223-.604 1.506-1.99 1.506h-10.22z"/><path d="M20.922 5.546c0-2.003-1.726-3.643-3.874-3.643-2.147 0-3.873 1.64-3.873 3.643 0 2.002 1.726 3.642 3.873 3.642 2.149 0 3.874-1.64 3.874-3.642zm1.5 0c0 2.849-2.414 5.142-5.374 5.142-2.959 0-5.373-2.294-5.373-5.142 0-2.849 2.415-5.143 5.373-5.143 2.96 0 5.374 2.294 5.374 5.143z"/></g></svg>