<svg xmlns="http://www.w3.org/2000/svg" width="48" height="48" viewBox="0 0 48 48"><g transform="translate(10 10)"><path d="M13.626 26.502C6.515 26.502.75 20.738.75 13.626.75 6.515 6.515.75 13.626.75c7.112 0 12.876 5.765 12.876 12.876 0 7.112-5.764 12.876-12.876 12.876zm0-1.5c6.283 0 11.376-5.093 11.376-11.376 0-6.283-5.093-11.376-11.376-11.376C7.343 2.25 2.25 7.343 2.25 13.626c0 6.283 5.093 11.376 11.376 11.376z"/><path d="M19.132 11.232l-6.751 6.814a.909.909 0 0 1-1.295 0L8.12 15.053a.93.93 0 0 1 0-1.306l.715-.72a.909.909 0 0 1 1.293-.001l.958.97c.358.36.937.36 1.295 0l4.743-4.79a.91.91 0 0 1 1.294 0l.714.72a.93.93 0 0 1 0 1.306"/></g></svg>