<svg xmlns="http://www.w3.org/2000/svg" width="48" height="48" viewBox="0 0 48 48"><g transform="translate(10 12.955)"><path d="M4.073 2.46a1.62 1.62 0 0 0-1.614 1.613v14.3a1.62 1.62 0 0 0 1.614 1.613h19.736a1.62 1.62 0 0 0 1.614-1.613V7.263a1.62 1.62 0 0 0-1.614-1.613H13.527c-.546 0-.973-.19-1.32-.54L9.332 2.594c-.112-.112-.163-.135-.297-.135H4.073zm0-1.5h4.963c.546 0 .974.189 1.322.54l2.872 2.515c.112.112.164.135.297.135H23.81a3.12 3.12 0 0 1 3.114 3.114v11.109a3.12 3.12 0 0 1-3.114 3.113H4.073a3.12 3.12 0 0 1-3.114-3.113v-14.3A3.12 3.12 0 0 1 4.073.959z"/><path d="M18.325 9.323a.75.75 0 1 1 1.04 1.081l-6.263 6.027a.75.75 0 0 1-1.041 0l-3.427-3.31a.75.75 0 0 1 1.041-1.079l2.908 2.807 5.742-5.526z"/></g></svg>