<svg xmlns="http://www.w3.org/2000/svg" width="48" height="48" viewBox="0 0 48 48"><g transform="translate(10 12.897)"><path d="M4.32 2.162a2.5 2.5 0 0 0-2.5 2.5V17.9a2.5 2.5 0 0 0 2.5 2.5h19.138a2.5 2.5 0 0 0 2.5-2.5V4.662a2.5 2.5 0 0 0-2.5-2.5H4.32zm0-1.5h19.138a4 4 0 0 1 4 4V17.9a4 4 0 0 1-4 4H4.32a4 4 0 0 1-4-4V4.662a4 4 0 0 1 4-4z"/><path d="M1.906 18.954A.75.75 0 0 1 .869 17.87l8.618-8.247a.75.75 0 0 1 1.063.026l5.373 5.663 4.076-3.311a.75.75 0 0 1 1.005.053l5.847 5.879a.75.75 0 1 1-1.064 1.057l-5.368-5.397-4.09 3.322a.75.75 0 0 1-1.016-.066L9.98 11.227l-8.074 7.727zM19.55 9.709a2.44 2.44 0 1 1 0-4.88 2.44 2.44 0 0 1 0 4.88zm0-1.5a.94.94 0 1 0 0-1.88.94.94 0 0 0 0 1.88z"/></g></svg>