<svg xmlns="http://www.w3.org/2000/svg" width="48" height="48" viewBox="0 0 48 48"><g transform="translate(6 5)"><path d="M11.031 20.72a.75.75 0 0 1 1.182.923c-.463.593-.155 1.734.832 2.505.989.772 2.17.796 2.634.203.463-.593.154-1.734-.834-2.506-1.579-1.233-2.131-3.279-1.091-4.61 1.04-1.333 3.159-1.292 4.738-.058 1.58 1.234 2.132 3.28 1.092 4.612a.75.75 0 1 1-1.182-.923c.463-.594.155-1.735-.833-2.507s-2.17-.795-2.633-.2c-.463.592-.155 1.732.832 2.504 1.58 1.234 2.133 3.28 1.093 4.611-1.04 1.332-3.16 1.29-4.739.056-1.579-1.233-2.131-3.278-1.091-4.61z"/><path d="M18.707 15.838a.75.75 0 0 1 1.182.924l-.908 1.161A.75.75 0 1 1 17.8 17l.908-1.162z"/><path d="M11.445 25.133a.75.75 0 0 1 1.182.924l-.908 1.162a.75.75 0 1 1-1.182-.924l.908-1.162z"/><path d="M4.06 22.892c-.804 1.029-.477 2.689.806 3.691l8.204 6.41c1.283 1.002 2.973.918 3.777-.111L28.029 18.57c.382-.49.524-1.147.384-1.834l-1.73-8.453c-.078-.38-.478-.698-.869-.69l-8.854.199c-.724.016-1.348.315-1.741.818L4.06 22.892zm-1.182-.924L14.037 7.686c.676-.866 1.726-1.367 2.89-1.394l8.853-.198c1.115-.025 2.148.797 2.373 1.888l1.73 8.454c.225 1.108-.013 2.213-.672 3.057L18.029 33.805c-1.346 1.723-3.982 1.854-5.882.37l-8.204-6.41c-1.901-1.485-2.411-4.073-1.065-5.797z"/><path d="M24.266 12.445a1.484 1.484 0 1 1-2.939-.415 1.484 1.484 0 0 1 2.94.415"/></g></svg>