<svg xmlns="http://www.w3.org/2000/svg" width="48" height="48" viewBox="0 0 48 48"><g fill-rule="evenodd" transform="translate(10 10)"><path fill-rule="nonzero" d="M11.962 7.18l9.363.004c.891.086 1.705.55 2.244 1.276a.75.75 0 0 1-1.204.894c-.288-.388-.717-.632-1.112-.674h-9.598a1.198 1.198 0 0 1-1.193-1.204v-.75c0-.405-.312-.726-.687-.726H5.816c-.541 0-.787.434-.787 1.521 0 .661-.53 1.205-1.192 1.205h-.151c-.718.003-1.307.608-1.311 1.362V21.44c.004.588.46 1.056 1.008 1.06h18.289a.99.99 0 0 0 .754-.358.75.75 0 1 1 1.148.966 2.49 2.49 0 0 1-1.901.892H3.378C1.995 23.991.884 22.85.875 21.444v-11.36c.008-1.521 1.176-2.769 2.66-2.854.072-1.644.77-2.73 2.281-2.73h3.959c1.212 0 2.187 1.001 2.187 2.226v.454z"/><path fill-rule="nonzero" d="M21.375 12a.5.5 0 1 1 1 0v7.875a.5.5 0 1 1-1 0V12zm3.375 0a.5.5 0 1 1 1 0v7.875a.5.5 0 1 1-1 0V12z"/><path fill-rule="nonzero" d="M27.5 13.75a.5.5 0 1 1 0 1h-7.875a.5.5 0 1 1 0-1H27.5zm0 3.375a.5.5 0 1 1 0 1h-7.875a.5.5 0 1 1 0-1H27.5z"/><path d="M14.141 5.155a.532.532 0 0 1-.704-.088c-.086-.114-.41-.34-.183-.654.408-.568.717-.875.717-.875a.54.54 0 0 1 .76 0l.273.31a.5.5 0 0 1-.136.764l-.727.543zm-4.18-2.36l-.216-.066a.509.509 0 0 1-.363-.599l.216-.898a.524.524 0 0 1 .636-.354l.386.11c.14.043.254.14.316.268a.498.498 0 0 1 .013.409l-.34.864a.527.527 0 0 1-.648.266zM5.85 2.706l-.215.056a.526.526 0 0 1-.637-.31l-.329-.865a.499.499 0 0 1 .016-.446.522.522 0 0 1 .37-.263L5.44.767a.534.534 0 0 1 .413.062.51.51 0 0 1 .235.337l.182.909a.5.5 0 0 1-.068.406.524.524 0 0 1-.353.225zM.715 4.491a.501.501 0 0 1-.09-.742l.26-.3a.528.528 0 0 1 .773 0l.51.52a.712.712 0 0 1 .001.998.532.532 0 0 1-.693.078l-.76-.554z"/><path fill-rule="nonzero" d="M11.75 19.5a4.125 4.125 0 1 1 0-8.25 4.125 4.125 0 0 1 0 8.25zm0-1.5a2.625 2.625 0 1 0 0-5.25 2.625 2.625 0 0 0 0 5.25z"/></g></svg>