<svg xmlns="http://www.w3.org/2000/svg" width="48" height="48" viewBox="0 0 48 48"><path d="M25.07 14.144a1.22 1.22 0 1 0-2.23-.006l-2.18 4.36a2.714 2.714 0 0 1-1.993 1.475l-4.894.694a1.2 1.2 0 0 0-.965.804c-.139.42-.024.882.298 1.195l3.556 3.463a2.67 2.67 0 0 1 .774 2.304l-.837 4.79c-.07.43.111.865.471 1.127.364.265.85.308 1.244.118l4.442-2.266a2.734 2.734 0 0 1 2.514 0l4.358 2.257c.4.19.876.151 1.237-.103.357-.251.544-.67.498-1.058l-.839-4.799a2.66 2.66 0 0 1 .777-2.373l3.593-3.474c.322-.312.437-.774.298-1.194a1.197 1.197 0 0 0-.959-.803l-4.903-.696a2.703 2.703 0 0 1-2.023-1.449l-2.237-4.366zm1.342-.67l2.232 4.356c.174.346.511.588.9.645l4.906.695c1.01.153 1.85.855 2.167 1.82a2.658 2.658 0 0 1-.679 2.74l-3.595 3.475a1.16 1.16 0 0 0-.341 1.036l.844 4.836c.12.976-.31 1.937-1.118 2.506a2.741 2.741 0 0 1-2.767.219l-4.381-2.269a1.236 1.236 0 0 0-1.138.002l-4.46 2.276a2.732 2.732 0 0 1-2.794-.248 2.668 2.668 0 0 1-1.068-2.589l.835-4.777a1.16 1.16 0 0 0-.34-.995l-3.554-3.46a2.657 2.657 0 0 1-.678-2.74 2.701 2.701 0 0 1 2.173-1.82l4.877-.69c.385-.067.712-.31.882-.66l2.172-4.343a2.709 2.709 0 0 1 2.466-1.572 2.71 2.71 0 0 1 2.459 1.556z"/></svg>