<svg xmlns="http://www.w3.org/2000/svg" width="48" height="48" viewBox="0 0 48 48"><g transform="translate(13 13)"><path d="M17.407 4.472h1.508l-1.391 13.95a3 3 0 0 1-2.986 2.703h-7.3a3 3 0 0 1-2.984-2.702L2.863 4.472H4.37l1.376 13.802a1.5 1.5 0 0 0 1.493 1.351h7.3a1.5 1.5 0 0 0 1.492-1.351l1.376-13.802zm0 0h1.508l-1.391 13.95a3 3 0 0 1-2.986 2.703h-7.3a3 3 0 0 1-2.984-2.702L2.863 4.472H4.37l1.376 13.802a1.5 1.5 0 0 0 1.493 1.351h7.3a1.5 1.5 0 0 0 1.492-1.351l1.376-13.802z"/><path d="M1.064 5.057a.75.75 0 1 1 0-1.5h19.563a.75.75 0 1 1 0 1.5H1.064z"/><path d="M7.487 1.666V3.59a.75.75 0 0 1-1.5 0V.916a.75.75 0 0 1 .75-.75h8.21a.75.75 0 0 1 .75.75V3.59a.75.75 0 0 1-1.5 0V1.666h-6.71z"/></g></svg>