<svg xmlns="http://www.w3.org/2000/svg" width="48" height="48" viewBox="0 0 48 48">
  <g fill="currentColor" transform="translate(11 11)">
    <path d="M13.5,26.75 C20.8177729,26.75 26.75,20.8177729 26.75,13.5 C26.75,6.18222707 20.8177729,0.25 13.5,0.25 C6.18222707,0.25 0.25,6.18222707 0.25,13.5 C0.25,20.8177729 6.18222707,26.75 13.5,26.75 Z M13.5,25.25 C7.01065419,25.25 1.75,19.9893458 1.75,13.5 C1.75,7.01065419 7.01065419,1.75 13.5,1.75 C19.9893458,1.75 25.25,7.01065419 25.25,13.5 C25.25,19.9893458 19.9893458,25.25 13.5,25.25 Z"/>
    <g transform="translate(4.508 4.891)">
      <path d="M1.54790633,17.3043478 C1.54790633,14.4396495 5.24614958,11.5326087 8.93364674,11.5326087 C12.6974451,11.5326087 16.6413043,14.4688415 16.6413043,17.3043478 C16.6413043,17.7185614 16.9770908,18.0543478 17.3913043,18.0543478 C17.8055179,18.0543478 18.1413043,17.7185614 18.1413043,17.3043478 C18.1413043,13.5283051 13.4459905,10.0326087 8.93364674,10.0326087 C4.48614228,10.0326087 0.0479063309,13.5213281 0.0479063309,17.3043478 C0.0479063309,17.7185614 0.383692769,18.0543478 0.797906331,18.0543478 C1.21211989,18.0543478 1.54790633,17.7185614 1.54790633,17.3043478 Z"/>
      <path d="M14.0899209,5.34844464 C14.0899209,8.1641146 11.8079349,10.4456522 8.9914763,10.4456522 C6.1768734,10.4456522 3.89426877,8.16349617 3.89426877,5.34844464 C3.89426877,2.53322326 6.17704337,0.25 8.9914763,0.25 C11.8077649,0.25 14.0899209,2.53260459 14.0899209,5.34844464 Z M12.5899209,5.34844464 C12.5899209,3.36096573 10.9792718,1.75 8.9914763,1.75 C7.00553649,1.75 5.39426877,3.3615844 5.39426877,5.34844464 C5.39426877,7.33500303 7.00523453,8.94565217 8.9914763,8.94565217 C10.9795737,8.94565217 12.5899209,7.33562146 12.5899209,5.34844464 Z"/>
    </g>
  </g>
</svg>
