<svg xmlns="http://www.w3.org/2000/svg" width="48" height="48" viewBox="0 0 48 48"><path d="M30.597 20.407c0-3.738-2.982-6.78-6.648-6.78-3.665 0-6.647 3.042-6.647 6.78 0 3.739 2.982 6.78 6.647 6.78 3.666 0 6.648-3.041 6.648-6.78m4.802.272c0 4.784-2.821 8.893-6.858 10.698l-4.53 6.629-4.538-6.575c-4.1-1.778-6.973-5.923-6.973-10.752C12.5 14.229 17.626 9 23.95 9c6.323 0 11.45 5.228 11.45 11.679m-6.744-.272c0 2.648-2.111 4.801-4.707 4.801-2.594 0-4.706-2.153-4.706-4.8 0-2.648 2.112-4.801 4.706-4.801 2.596 0 4.707 2.153 4.707 4.8"/></svg>