<svg width="48" height="48" viewBox="0 0 48 48" xmlns="http://www.w3.org/2000/svg"><path d="M48 30v5.143a.824.824 0 0 1-.254.603.824.824 0 0 1-.603.254H10.286v5.143a.824.824 0 0 1-.255.603.824.824 0 0 1-.602.254c-.215 0-.429-.09-.643-.268L.24 33.161A.802.802 0 0 1 0 32.57c0-.25.08-.455.241-.616l8.572-8.571a.834.834 0 0 1 .616-.241c.232 0 .433.085.602.254.17.17.255.37.255.603v5.143h36.857c.232 0 .433.085.603.254.17.17.254.37.254.603zm0-14.571c0 .25-.08.455-.241.616l-8.572 8.571a.834.834 0 0 1-.616.241.824.824 0 0 1-.602-.254.824.824 0 0 1-.255-.603v-5.143H.857a.824.824 0 0 1-.603-.254A.824.824 0 0 1 0 18v-5.143c0-.232.085-.433.254-.603.17-.17.371-.254.603-.254h36.857V6.857c0-.25.08-.455.241-.616A.834.834 0 0 1 38.571 6c.215 0 .429.09.643.268l8.545 8.544c.16.161.241.367.241.617z" fill="#000" fill-rule="nonzero"/></svg>