<svg width="48" height="48" viewBox="0 0 48 48" xmlns="http://www.w3.org/2000/svg"><path d="M40.125 24.031c0-.562-.188-1.031-.563-1.406l-2.843-2.844c-.375-.375-.844-.562-1.407-.562-.562 0-1.03.187-1.406.562L28 25.688V10c0-.542-.198-1.01-.594-1.406A1.922 1.922 0 0 0 26 8h-4c-.542 0-1.01.198-1.406.594A1.922 1.922 0 0 0 20 10v15.688l-5.906-5.907a1.922 1.922 0 0 0-1.406-.593c-.542 0-1.01.197-1.407.593l-2.844 2.844c-.374.375-.562.844-.562 1.406 0 .563.188 1.032.563 1.407L19.75 36.75l2.844 2.844c.375.375.843.562 1.406.562s1.031-.187 1.406-.562l2.844-2.844 11.313-11.313c.374-.375.562-.843.562-1.406zM48 24c0 4.354-1.073 8.37-3.219 12.047-2.146 3.677-5.057 6.588-8.734 8.734C32.37 46.927 28.354 48 24 48c-4.354 0-8.37-1.073-12.047-3.219-3.677-2.146-6.588-5.057-8.734-8.734C1.073 32.37 0 28.354 0 24c0-4.354 1.073-8.37 3.219-12.047 2.146-3.677 5.057-6.588 8.734-8.734C15.63 1.073 19.646 0 24 0c4.354 0 8.37 1.073 12.047 3.219 3.677 2.146 6.588 5.057 8.734 8.734C46.927 15.63 48 19.646 48 24z" fill="#000" fill-rule="nonzero"/></svg>