<svg width="48" height="48" viewBox="0 0 48 48" xmlns="http://www.w3.org/2000/svg"><path d="M40.156 24c0-.563-.187-1.031-.562-1.406L36.75 19.75 25.437 8.437c-.375-.374-.843-.562-1.406-.562-.562 0-1.031.188-1.406.563l-2.844 2.843c-.375.375-.562.844-.562 1.406 0 .563.187 1.032.562 1.407L25.688 20H10c-.542 0-1.01.198-1.406.594A1.922 1.922 0 0 0 8 22v4c0 .542.198 1.01.594 1.406.396.396.864.594 1.406.594h15.688l-5.907 5.906a1.922 1.922 0 0 0-.593 1.407c0 .541.197 1.01.593 1.406l2.844 2.843c.375.376.844.563 1.406.563.563 0 1.032-.188 1.407-.563L36.75 28.25l2.844-2.844c.375-.375.562-.843.562-1.406zM48 24c0 4.354-1.073 8.37-3.219 12.047-2.146 3.677-5.057 6.588-8.734 8.734C32.37 46.927 28.354 48 24 48c-4.354 0-8.37-1.073-12.047-3.219-3.677-2.146-6.588-5.057-8.734-8.734C1.073 32.37 0 28.354 0 24c0-4.354 1.073-8.37 3.219-12.047 2.146-3.677 5.057-6.588 8.734-8.734C15.63 1.073 19.646 0 24 0c4.354 0 8.37 1.073 12.047 3.219 3.677 2.146 6.588 5.057 8.734 8.734C46.927 15.63 48 19.646 48 24z" fill="#000" fill-rule="nonzero"/></svg>