<svg width="48" height="48" viewBox="0 0 48 48" xmlns="http://www.w3.org/2000/svg"><path d="M5.462 44.571h7.788v-7.714H5.462v7.714zm9.519 0h8.654v-7.714H14.98v7.714zm-9.52-9.428h7.789V26.57H5.462v8.572zm9.52 0h8.654V26.57H14.98v8.572zM5.46 24.857h7.789v-7.714H5.462v7.714zm19.904 19.714h8.654v-7.714h-8.654v7.714zM14.981 24.857h8.654v-7.714H14.98v7.714zM35.75 44.571h7.788v-7.714H35.75v7.714zm-10.385-9.428h8.654V26.57h-8.654v8.572zM15.846 12V4.286a.82.82 0 0 0-.257-.603.836.836 0 0 0-.608-.254H13.25a.836.836 0 0 0-.608.254.82.82 0 0 0-.257.603V12a.82.82 0 0 0 .257.603c.17.17.374.254.608.254h1.73a.836.836 0 0 0 .61-.254.82.82 0 0 0 .256-.603zM35.75 35.143h7.788V26.57H35.75v8.572zM25.365 24.857h8.654v-7.714h-8.654v7.714zm10.385 0h7.788v-7.714H35.75v7.714zM36.615 12V4.286a.82.82 0 0 0-.257-.603.836.836 0 0 0-.608-.254h-1.73a.836.836 0 0 0-.61.254.82.82 0 0 0-.256.603V12a.82.82 0 0 0 .257.603c.171.17.374.254.608.254h1.731a.836.836 0 0 0 .608-.254.82.82 0 0 0 .257-.603zM47 10.286V44.57c0 .929-.343 1.733-1.028 2.411-.685.679-1.496 1.018-2.434 1.018H5.462c-.938 0-1.75-.34-2.434-1.018C2.343 46.304 2 45.5 2 44.572V10.285c0-.929.343-1.732 1.028-2.411s1.496-1.018 2.434-1.018h3.461V4.286c0-1.179.424-2.188 1.271-3.027C11.041.419 12.06 0 13.25 0h1.73c1.19 0 2.21.42 3.057 1.259.847.84 1.27 1.848 1.27 3.027v2.571h10.385V4.286c0-1.179.424-2.188 1.271-3.027C31.811.419 32.83 0 34.02 0h1.731c1.19 0 2.209.42 3.056 1.259.847.84 1.27 1.848 1.27 3.027v2.571h3.462c.938 0 1.75.34 2.434 1.018.685.679 1.028 1.482 1.028 2.41z" fill="#000" fill-rule="nonzero"/></svg>