<svg width="48" height="48" viewBox="0 0 48 48" xmlns="http://www.w3.org/2000/svg"><path d="M13.608 25.143l-.841-4.696H7.324l-.891 4.696h7.175zm1.485 0h1.98a2.976 2.976 0 0 1 2.968 2.965l-1.484 14.926A2.976 2.976 0 0 1 15.587 46H4.455a2.976 2.976 0 0 1-2.97-2.966L0 28.108a2.976 2.976 0 0 1 2.97-2.965h1.978l1.09-6.179h7.917l1.138 6.179zm24.396-20.66v10.28h5.196a2.976 2.976 0 0 1 2.969 2.966v25.305A2.976 2.976 0 0 1 44.684 46H24.743a2.976 2.976 0 0 1-2.969-2.966V17.73a2.976 2.976 0 0 1 2.97-2.966h5.344V4.483h-2.574c-.445 0-.791-.346-.791-.742A.76.76 0 0 1 27.464 3h15.093a.76.76 0 0 1 .742.741.76.76 0 0 1-.742.742h-3.068zm-1.485 10.28V4.483v10.28zm0-10.28h-6.433v10.28h6.433V4.483z" fill="#00245D" fill-rule="nonzero"/></svg>