<svg width="48" height="48" viewBox="0 0 48 48" xmlns="http://www.w3.org/2000/svg"><path d="M0 20.305v16.209c0 4.195 3.456 7.628 7.68 7.628h1.056V12.677H7.68c-4.224 0-7.68 3.432-7.68 7.628zM34.176 9.72c0-3.147-2.592-5.721-5.76-5.721h-8.928c-3.168 0-5.76 2.574-5.76 5.72v2.957H10.56v31.465h26.88V12.677h-3.264V9.72zm-1.92 2.956H15.744V9.72c0-2.098 1.728-3.814 3.84-3.814h8.928c2.112 0 3.84 1.716 3.84 3.814v2.956h-.096zm8.064 0h-1.056v31.465h1.056c4.224 0 7.68-3.433 7.68-7.628v-16.21c0-4.195-3.456-7.627-7.68-7.627z" fill="#00245D" fill-rule="nonzero"/></svg>