<svg width="48" height="48" viewBox="0 0 48 48" xmlns="http://www.w3.org/2000/svg"><g fill="#000" fill-rule="nonzero"><path d="M24 45.459c-11.859 0-21.459-9.6-21.459-21.459S12.141 2.541 24 2.541 45.459 12.141 45.459 24 35.859 45.459 24 45.459M24 0C10.73 0 0 10.73 0 24s10.73 24 24 24 24-10.73 24-24S37.27 0 24 0"/><path d="M24 8.47c.424 0 .706-.14.988-.423.283-.282.424-.565.424-.988 0-.424-.141-.706-.424-.988a1.365 1.365 0 0 0-1.976 0c-.283.282-.424.564-.424.988 0 .423.141.706.424.988.282.282.564.424.988.424M14.541 7.482c-.282.283-.423.565-.423.989 0 .423.14.705.423.988.283.282.565.423.988.423.424 0 .706-.14.989-.423.282-.283.423-.565.423-.988 0-.424-.141-.706-.423-.989a1.365 1.365 0 0 0-1.977 0M7.482 14.541c-.282.283-.423.565-.423.988 0 .424.141.706.423.989.283.282.565.423.989.423.423 0 .705-.141.988-.423.282-.283.423-.565.423-.989 0-.423-.14-.705-.423-.988a1.365 1.365 0 0 0-1.977 0M8.047 23.012a1.365 1.365 0 0 0-1.976 0c-.283.282-.424.564-.424.988 0 .424.141.706.424.988.282.283.564.424.988.424.423 0 .706-.141.988-.424.282-.282.424-.564.424-.988 0-.424-.142-.706-.424-.988M7.482 31.482c-.282.283-.423.565-.423.989 0 .423.141.705.423.988.283.282.565.423.989.423.423 0 .705-.14.988-.423.282-.283.423-.565.423-.988 0-.424-.14-.706-.423-.989a1.365 1.365 0 0 0-1.977 0M14.541 38.541c-.282.283-.423.565-.423.988 0 .424.14.706.423.989.283.282.565.423.988.423.424 0 .706-.141.989-.423.282-.283.423-.706.423-.989 0-.423-.141-.705-.423-.988a1.365 1.365 0 0 0-1.977 0M23.012 41.365c-.283.282-.424.564-.424.988 0 .423.141.706.424.988.282.283.564.424.988.424.424 0 .706-.141.988-.424.283-.282.424-.565.424-.988 0-.424-.141-.706-.424-.988a1.365 1.365 0 0 0-1.976 0M31.482 38.541c-.282.283-.423.565-.423.988 0 .424.141.706.423.989.283.282.565.423.989.423.423 0 .705-.141.988-.423.282-.283.423-.565.423-.989 0-.423-.14-.705-.423-.988a1.365 1.365 0 0 0-1.977 0M38.541 31.482c-.282.283-.423.565-.423.989 0 .423.14.705.423.988.283.282.565.423.988.423.424 0 .706-.14.989-.423.282-.283.423-.565.423-.988 0-.424-.141-.706-.423-.989a1.365 1.365 0 0 0-1.977 0M43.341 23.012a1.365 1.365 0 0 0-1.976 0c-.283.282-.424.564-.424.988 0 .424.141.706.424.988.282.283.564.424.988.424.423 0 .706-.141.988-.424.283-.282.424-.564.424-.988 0-.424-.141-.706-.424-.988M39.53 16.941c.423 0 .705-.141.988-.423.282-.283.423-.565.423-.989 0-.423-.141-.705-.423-.988a1.365 1.365 0 0 0-1.977 0c-.282.283-.423.565-.423.988 0 .424.14.706.423.989.283.282.565.423.988.423M31.482 7.482c-.282.283-.423.565-.423.989 0 .423.141.705.423.988.283.282.565.423.989.423.423 0 .705-.14.988-.423.282-.283.423-.565.423-.988 0-.424-.14-.706-.423-.989a1.365 1.365 0 0 0-1.977 0M23.859 25.412h8.612c.705 0 1.27-.565 1.27-1.27 0-.707-.565-1.271-1.27-1.271h-7.342V12.565c0-.706-.564-1.27-1.27-1.27-.706 0-1.27.564-1.27 1.27V24.14c0 .706.564 1.27 1.27 1.27"/></g></svg>