<svg width="48" height="48" viewBox="0 0 48 48" xmlns="http://www.w3.org/2000/svg"><path d="M48 31.455c0 2.634-.938 4.884-2.813 6.748C43.313 40.068 41.05 41 38.4 41H11.2c-3.083 0-5.72-1.09-7.912-3.269C1.095 35.552 0 32.93 0 29.864c0-2.188.592-4.189 1.775-6.004 1.183-1.814 2.742-3.169 4.675-4.064-.033-.464-.05-.82-.05-1.069 0-3.513 1.25-6.513 3.75-8.998C12.65 7.243 15.667 6 19.2 6c2.633 0 5.02.73 7.163 2.187 2.141 1.459 3.704 3.365 4.687 5.718 1.167-1.028 2.55-1.541 4.15-1.541 1.767 0 3.275.621 4.525 1.864 1.25 1.243 1.875 2.743 1.875 4.5a6.137 6.137 0 0 1-1.025 3.43c2.15.497 3.925 1.611 5.325 3.343 1.4 1.732 2.1 3.716 2.1 5.954z" fill="#000" fill-rule="nonzero"/></svg>