<svg width="48" height="48" viewBox="0 0 48 48" xmlns="http://www.w3.org/2000/svg"><path d="M31 38.182v6.545c0 .91-.316 1.682-.948 2.318-.632.637-1.4.955-2.302.955h-6.5c-.903 0-1.67-.318-2.302-.955-.632-.636-.948-1.409-.948-2.318v-6.545c0-.91.316-1.682.948-2.318a3.123 3.123 0 0 1 2.302-.955h6.5c.903 0 1.67.318 2.302.955.632.636.948 1.409.948 2.318zm0-17.455v6.546c0 .909-.316 1.682-.948 2.318-.632.636-1.4.954-2.302.954h-6.5c-.903 0-1.67-.318-2.302-.954-.632-.636-.948-1.41-.948-2.318v-6.546c0-.909.316-1.682.948-2.318a3.123 3.123 0 0 1 2.302-.954h6.5c.903 0 1.67.318 2.302.954.632.636.948 1.41.948 2.318zm0-17.454v6.545c0 .91-.316 1.682-.948 2.318-.632.637-1.4.955-2.302.955h-6.5c-.903 0-1.67-.318-2.302-.955C18.316 11.5 18 10.727 18 9.818V3.273c0-.91.316-1.682.948-2.318A3.123 3.123 0 0 1 21.25 0h6.5c.903 0 1.67.318 2.302.955.632.636.948 1.409.948 2.318z" fill="#000" fill-rule="nonzero"/></svg>