<svg width="48" height="48" viewBox="0 0 48 48" xmlns="http://www.w3.org/2000/svg"><g fill-rule="nonzero" fill="none"><circle fill="#F8951D" cx="40.776" cy="40.272" r="3.312"/><circle fill="#F8951D" cx="43.464" cy="31.584" r="3.312"/><circle fill="#F8951D" cx="43.056" cy="22.392" r="3.312"/><circle fill="#F8951D" cx="39.576" cy="14.04" r="3.312"/><circle fill="#F8951D" cx="33.096" cy="7.392" r="3.312"/><circle fill="#F8951D" cx="24.912" cy="3.6" r="3.312"/><circle fill="#F8951D" cx="15.576" cy="3.312" r="3.312"/><circle fill="#F8951D" cx="7.2" cy="6.264" r="3.312"/><circle fill="#134B8E" cx="7.032" cy="17.904" r="3.144"/><path d="M20.352 32.976c.465-.003.915.159 1.272.456l10.056 8.664a1.752 1.752 0 0 1 .504 2.544c-.696.84-1.824.432-2.664-.264l-9.84-7.416h-9.6a2.52 2.52 0 0 1-2.688-2.52l-1.704-8.88a2.544 2.544 0 0 1 2.016-2.976A2.544 2.544 0 0 1 10.68 24.6l1.608 8.376h8.064z" fill="#134B8E"/><rect fill="#134B8E" x="6.336" y="44.16" width="11.352" height="3.552" rx=".74"/><path d="M15.792 42.048a1.488 1.488 0 1 0 0-2.976H9.888a5.832 5.832 0 0 1-3.6-1.416 6.672 6.672 0 0 1-1.392-3.096l-1.92-10.032a1.488 1.488 0 0 0-1.632-1.32 1.488 1.488 0 0 0-1.32 1.632L2.136 36a7.44 7.44 0 0 0 1.608 3.72 8.448 8.448 0 0 0 5.592 2.4l6.456-.072z" fill="#134B8E"/></g></svg>