<svg width="48" height="48" viewBox="0 0 48 48" xmlns="http://www.w3.org/2000/svg"><g fill-rule="nonzero" fill="none"><g fill="#134B8D"><path d="M3.15 24.271H.253v-4.118h2.87v.915H1.295v.686H2.87v.89H1.295v.737h1.829v.89zM6.984 20.153L5.587 24.27h-.762L3.43 20.153h1.066l.711 2.288.711-2.288zM10.159 24.271h-2.87v-4.118h2.87v.915H8.33v.686h1.575v.89H8.33v.737h1.829zM13.943 24.271h-.914l-1.346-2.06v2.06H10.64v-4.118h.915l1.346 2.059v-2.06h1.04zM20.013 24.271H18.97v-1.957l-.61 1.017h-.66l-.609-1.017v1.957h-1.041v-4.118h1.016l.94 1.805.964-1.805h1.016v4.118zM23.568 22.212v.127c0 .229 0 .432-.025.585-.026.178-.05.33-.127.483a.903.903 0 0 1-.28.407c-.152.152-.33.28-.507.355a1.697 1.697 0 0 1-.66.128c-.179 0-.33-.026-.458-.051a1.197 1.197 0 0 1-.38-.153 1.63 1.63 0 0 1-.331-.254 1.253 1.253 0 0 1-.356-.61 4.03 4.03 0 0 1-.076-.865v-.279c0-.356.026-.636.076-.865.051-.228.178-.432.356-.61.152-.152.33-.28.533-.356.178-.076.407-.101.66-.101.255 0 .483.025.661.101.178.077.356.204.508.356.127.127.228.254.28.407.05.152.1.305.126.483.026.178.026.356.026.585v.127h-.026zm-1.041 0c0-.356 0-.585-.025-.712-.026-.127-.051-.229-.127-.305a.456.456 0 0 0-.178-.127.75.75 0 0 0-.254-.051.507.507 0 0 0-.229.05.456.456 0 0 0-.177.128l-.077.152a.681.681 0 0 0-.05.28c0 .127-.026.305-.026.56 0 .228 0 .432.026.559 0 .127.025.229.05.28.026.05.051.127.077.152.101.127.228.178.406.178.178 0 .33-.05.406-.178a.849.849 0 0 0 .127-.305c.026-.127.051-.305.051-.661zM27.25 24.271h-1.193l-.762-1.525h-.355v1.525h-1.042v-4.118h1.677c.304 0 .558.05.787.178.228.127.38.28.482.483.102.203.178.406.178.66 0 .255-.076.484-.203.662-.127.178-.305.33-.482.406l.914 1.73zm-1.269-2.796a.48.48 0 0 0-.05-.204.23.23 0 0 0-.153-.152c-.076-.026-.153-.051-.229-.051h-.584v.839h.584a.507.507 0 0 0 .229-.051.438.438 0 0 0 .152-.153.608.608 0 0 0 .051-.228zM30.629 24.271h-2.87v-4.118h2.87v.915H28.8v.686h1.575v.89H28.8v.737h1.829z"/></g><g fill="#6CC04A"><path d="M2.159 27.856c-.076-.076-.153-.102-.254-.153a5.001 5.001 0 0 0-.381-.076l-.381-.05a.662.662 0 0 1-.28-.077c-.101-.05-.177-.076-.228-.127a.537.537 0 0 1-.152-.407c0-.203.076-.356.203-.483s.33-.178.558-.178c.178 0 .33.026.458.076.127.051.228.127.355.23l.026.025.254-.23-.051-.025a1.331 1.331 0 0 0-.483-.28A1.824 1.824 0 0 0 1.244 26c-.177 0-.33.025-.457.076a.818.818 0 0 0-.355.204.694.694 0 0 0-.229.305c-.05.127-.076.254-.076.407 0 .28.102.508.305.66a1.2 1.2 0 0 0 .635.255l.406.05c.127.026.229.051.305.077a.41.41 0 0 1 .178.102c.127.101.177.254.177.432a.584.584 0 0 1-.101.356.794.794 0 0 1-.28.229 1.23 1.23 0 0 1-.457.076c-.127 0-.254 0-.355-.026a.782.782 0 0 1-.305-.127 1.194 1.194 0 0 1-.305-.229l-.025-.025-.254.254.025.026c.102.101.229.203.33.254.127.076.254.127.381.152.153.026.305.051.457.051.178 0 .356-.025.508-.076.153-.05.28-.102.381-.203.102-.077.178-.204.254-.305.051-.128.076-.255.076-.407a.85.85 0 0 0-.076-.382.774.774 0 0 0-.228-.33zM9.346 26.28a1.619 1.619 0 0 0-.356-.204A1.185 1.185 0 0 0 8.56 26h-1.32v3.483h.355v-1.45h.965c.33 0 .584-.1.787-.279.203-.178.305-.432.305-.762 0-.153-.026-.306-.076-.433-.051-.076-.153-.178-.229-.28zm-1.778.076h.94c.229 0 .432.05.559.178a.729.729 0 0 1 .203.534.729.729 0 0 1-.203.534c-.127.127-.33.178-.56.178h-.939v-1.424zM14.324 29.508h2.21v-.305h-1.855v-1.296h1.575v-.305h-1.575v-1.246h1.854v-.33h-2.21zM21.257 29.508h2.235v-.305h-1.854v-1.296h1.575v-.305h-1.575v-1.246h1.854v-.33h-2.235zM30.629 26.89a1.346 1.346 0 0 0-.28-.534.912.912 0 0 0-.254-.178c-.101-.05-.203-.076-.305-.102-.101-.025-.228-.025-.355-.025h-1.22v3.483h1.22c.127 0 .254 0 .355-.026.102-.025.204-.05.305-.101a.912.912 0 0 0 .254-.178.91.91 0 0 0 .28-.56c.05-.228.076-.483.076-.788v-.228c0-.331-.026-.56-.076-.763zm-2.058-.534h.788c.304 0 .558.076.71.254a.7.7 0 0 1 .204.382c.025.152.05.355.05.61v.28c0 .254-.025.482-.05.66a.691.691 0 0 1-.203.407c-.153.178-.407.254-.711.254h-.788v-2.847z"/></g><path d="M33.016 20.737c0 .102-.026.204-.05.305a.913.913 0 0 1-.433.433c-.101.05-.203.05-.304.05-.102 0-.204-.025-.305-.05-.102-.026-.178-.102-.254-.178a.913.913 0 0 1-.178-.255c-.05-.101-.05-.203-.05-.305 0-.101.025-.203.05-.305a.913.913 0 0 1 .432-.432c.101-.05.203-.05.305-.05.101 0 .203.025.304.05a.912.912 0 0 1 .432.432c.025.102.05.204.05.305zm-.102 0a.636.636 0 0 0-.101-.356.612.612 0 0 0-.254-.254.826.826 0 0 0-.356-.102c-.101 0-.178.026-.28.051-.1.026-.152.077-.228.153-.076.076-.127.127-.152.229a.904.904 0 0 0-.05.254c0 .127.024.229.1.356.051.101.153.203.255.254.101.05.228.102.355.102a.583.583 0 0 0 .356-.102.612.612 0 0 0 .254-.254.56.56 0 0 0 .101-.33zm-.38.432h-.128l-.228-.355h-.153v.355h-.101v-.864h.28c.05 0 .1 0 .126.026.051.025.076.05.102.101.025.051.05.076.05.127 0 .051-.025.127-.05.153-.026.025-.076.076-.153.076l.254.381zm-.102-.61c0-.025 0-.05-.026-.076-.025-.025-.05-.05-.076-.05-.025 0-.05-.026-.101-.026h-.178v.33h.178c.025 0 .076 0 .101-.025.026-.026.051-.026.076-.051 0-.05.026-.076.026-.102z" fill="#134B8D"/><g fill="#6CC04A"><path d="M43.81 28.568c0 .61-.483 1.093-1.093 1.093s-1.092-.483-1.092-1.093.483-1.093 1.092-1.093c.61-.026 1.093.483 1.093 1.093M41.55 30.805c0 .61-.483 1.093-1.093 1.093s-1.092-.483-1.092-1.093.483-1.093 1.092-1.093c.61 0 1.092.483 1.092 1.093M45.943 26.432c0 .61-.483 1.093-1.092 1.093-.61 0-1.092-.483-1.092-1.093s.482-1.093 1.092-1.093a1.1 1.1 0 0 1 1.092 1.093M42.717 21.398c-.61 0-1.092-.483-1.092-1.093s.483-1.093 1.092-1.093c.61 0 1.093.483 1.093 1.093s-.483 1.093-1.093 1.093M40.508 19.186c-.61 0-1.092-.483-1.092-1.093S39.898 17 40.508 17c.61 0 1.092.483 1.092 1.093s-.483 1.093-1.092 1.093M44.85 23.534c-.609 0-1.091-.483-1.091-1.093s.482-1.094 1.092-1.094c.61 0 1.092.484 1.092 1.094 0 .584-.508 1.093-1.092 1.093M47.924 24.45c0 .61-.483 1.092-1.092 1.092-.61 0-1.092-.483-1.092-1.093s.482-1.093 1.092-1.093a1.1 1.1 0 0 1 1.092 1.093M36.927 28.568c0 .61-.483 1.093-1.092 1.093-.61 0-1.092-.483-1.092-1.093s.482-1.093 1.092-1.093c.61-.026 1.092.483 1.092 1.093M39.06 26.432c0 .61-.482 1.093-1.092 1.093-.61 0-1.092-.483-1.092-1.093s.483-1.093 1.092-1.093a1.1 1.1 0 0 1 1.092 1.093M35.835 21.398c-.61 0-1.092-.483-1.092-1.093s.482-1.093 1.092-1.093c.61 0 1.092.483 1.092 1.093s-.483 1.093-1.092 1.093M37.968 23.534c-.61 0-1.092-.483-1.092-1.093s.483-1.094 1.092-1.094c.61 0 1.092.484 1.092 1.094 0 .584-.508 1.093-1.092 1.093M41.041 24.45c0 .61-.482 1.092-1.092 1.092-.61 0-1.092-.483-1.092-1.093s.483-1.093 1.092-1.093c.61 0 1.092.483 1.092 1.093"/></g></g></svg>