<svg width="48" height="48" viewBox="0 0 48 48" xmlns="http://www.w3.org/2000/svg"><path d="M24 0c4.354 0 8.37 1.073 12.047 3.219 3.677 2.146 6.588 5.057 8.734 8.734C46.927 15.63 48 19.646 48 24c0 4.354-1.073 8.37-3.219 12.047-2.146 3.677-5.057 6.588-8.734 8.734C32.37 46.927 28.354 48 24 48c-4.354 0-8.37-1.073-12.047-3.219-3.677-2.146-6.588-5.057-8.734-8.734C1.073 32.37 0 28.354 0 24c0-4.354 1.073-8.37 3.219-12.047 2.146-3.677 5.057-6.588 8.734-8.734C15.63 1.073 19.646 0 24 0zm4 38.969V33.03c0-.291-.094-.536-.281-.734A.91.91 0 0 0 27.03 32h-6c-.27 0-.51.104-.718.313a.988.988 0 0 0-.313.718v5.938c0 .27.104.51.313.718a.988.988 0 0 0 .718.313h6c.271 0 .5-.099.688-.297.187-.198.281-.443.281-.734zm-.063-10.75L28.5 8.812a.614.614 0 0 0-.313-.562 1.163 1.163 0 0 0-.75-.25h-6.875c-.291 0-.541.083-.75.25a.614.614 0 0 0-.312.563l.531 19.406c0 .208.104.39.313.547.208.156.458.234.75.234h5.781c.292 0 .536-.078.734-.234.198-.157.308-.339.328-.547z" fill="#000" fill-rule="nonzero"/></svg>