<svg width="48" height="48" viewBox="0 0 48 48" xmlns="http://www.w3.org/2000/svg"><path d="M24 0c4.354 0 8.37 1.073 12.047 3.219 3.677 2.146 6.588 5.057 8.734 8.734C46.927 15.63 48 19.646 48 24c0 4.354-1.073 8.37-3.219 12.047-2.146 3.677-5.057 6.588-8.734 8.734C32.37 46.927 28.354 48 24 48c-4.354 0-8.37-1.073-12.047-3.219-3.677-2.146-6.588-5.057-8.734-8.734C1.073 32.37 0 28.354 0 24c0-4.354 1.073-8.37 3.219-12.047 2.146-3.677 5.057-6.588 8.734-8.734C15.63 1.073 19.646 0 24 0zm8.563 16.281c-.042.021-.141.12-.297.297-.157.177-.297.276-.422.297.041 0 .088-.052.14-.156.052-.104.105-.219.157-.344a.959.959 0 0 1 .109-.219c.125-.146.354-.302.688-.468.291-.126.833-.25 1.624-.376.709-.166 1.24-.052 1.594.344-.041-.041.058-.177.297-.406.24-.23.39-.354.453-.375.063-.042.219-.089.469-.14.25-.053.406-.13.469-.235l.062-.688c-.25.021-.432-.052-.547-.218-.114-.167-.182-.386-.203-.656 0 .041-.062.124-.187.25 0-.146-.047-.23-.14-.25a.752.752 0 0 0-.36.03c-.146.042-.24.053-.282.032-.208-.063-.364-.14-.468-.234-.104-.094-.188-.266-.25-.516a8.887 8.887 0 0 0-.125-.469c-.042-.104-.14-.213-.297-.328-.156-.114-.255-.224-.297-.328a3.388 3.388 0 0 1-.078-.172 3.819 3.819 0 0 0-.094-.203.66.66 0 0 0-.125-.172.239.239 0 0 0-.172-.078c-.062 0-.135.052-.218.156a6.104 6.104 0 0 0-.235.313c-.073.104-.12.156-.14.156a.255.255 0 0 0-.188-.047.996.996 0 0 0-.14.031.527.527 0 0 0-.141.094.874.874 0 0 1-.157.11.713.713 0 0 1-.265.093c-.115.021-.203.042-.266.063.313-.104.302-.219-.031-.344-.208-.083-.375-.115-.5-.094.188-.083.266-.208.234-.375a.752.752 0 0 0-.265-.437h.156c-.02-.084-.11-.172-.266-.266a3.83 3.83 0 0 0-.547-.265 2.69 2.69 0 0 1-.406-.188c-.166-.104-.52-.203-1.062-.297-.542-.094-.886-.099-1.032-.015-.104.124-.15.234-.14.328.01.093.052.24.125.437.073.198.11.328.11.39.02.126-.037.261-.173.407-.135.146-.203.27-.203.375 0 .146.146.307.438.484.291.177.396.401.312.672-.062.167-.229.334-.5.5-.27.167-.437.292-.5.375-.104.167-.12.36-.047.578.073.22.183.391.328.516.042.042.058.083.047.125-.01.042-.047.089-.109.14-.063.053-.12.094-.172.126a3.11 3.11 0 0 1-.203.109l-.094.063c-.229.104-.442.041-.64-.188a2.02 2.02 0 0 1-.422-.813c-.146-.52-.313-.833-.5-.937-.48-.167-.782-.156-.907.031-.104-.27-.53-.541-1.28-.812-.522-.188-1.126-.23-1.813-.125.125-.021.125-.177 0-.469-.146-.313-.344-.438-.594-.375.063-.125.104-.307.125-.547.02-.24.031-.38.031-.422.063-.27.188-.51.375-.719.021-.02.094-.109.219-.265.125-.156.224-.297.297-.422.073-.125.078-.188.015-.188.73.084 1.25-.03 1.563-.343.104-.104.224-.281.36-.531.135-.25.244-.428.328-.532.187-.125.333-.182.437-.172.104.01.255.068.453.172.198.104.35.157.453.157.292.02.453-.094.485-.344a.678.678 0 0 0-.235-.625c.25.02.282-.157.094-.532a1.193 1.193 0 0 0-.25-.28c-.25-.084-.531-.032-.844.155-.166.084-.146.167.063.25-.021-.02-.12.089-.297.329-.177.24-.35.421-.516.546-.166.125-.333.073-.5-.156-.02-.02-.078-.161-.172-.422-.093-.26-.192-.4-.297-.421-.166 0-.333.156-.5.468.063-.166-.052-.323-.343-.468-.292-.146-.542-.23-.75-.25.396-.25.312-.532-.25-.844-.146-.084-.36-.136-.64-.157-.282-.02-.485.021-.61.125-.104.146-.162.266-.172.36-.01.094.042.177.156.25.115.073.224.13.328.172.104.041.224.083.36.125.135.041.224.073.265.093.292.209.375.355.25.438-.041.02-.13.057-.265.11-.136.051-.256.098-.36.14-.104.042-.166.083-.187.125-.063.083-.063.23 0 .438.062.208.041.354-.063.437-.104-.104-.198-.286-.281-.547-.083-.26-.156-.432-.219-.516.146.188-.114.25-.781.188l-.313-.031c-.083 0-.25.02-.5.062-.25.042-.463.052-.64.032a.581.581 0 0 1-.422-.25c-.083-.167-.083-.375 0-.625.02-.084.063-.105.125-.063a4.682 4.682 0 0 1-.344-.297 3.05 3.05 0 0 0-.312-.266c-.959.313-1.938.74-2.938 1.282.125.02.25.01.375-.032.104-.041.24-.109.406-.203.167-.093.271-.15.313-.171.708-.292 1.146-.365 1.313-.22l.156-.155c.291.333.5.593.625.78-.146-.083-.459-.093-.938-.03-.416.125-.646.25-.687.375.146.25.198.437.156.562a4.88 4.88 0 0 1-.36-.313 2.478 2.478 0 0 0-.453-.343 1.248 1.248 0 0 0-.468-.157c-.334 0-.563.01-.688.032-3.041 1.666-5.49 3.979-7.344 6.937.146.146.271.23.375.25.084.021.136.115.157.281.02.167.047.282.078.344.031.063.15.031.36-.094.187.167.218.365.093.594.02-.02.48.26 1.375.844.396.354.615.573.656.656.063.23-.041.417-.312.563-.021-.042-.115-.136-.281-.282-.167-.145-.26-.187-.282-.125-.062.105-.057.297.016.579.073.28.182.411.328.39-.146 0-.245.167-.297.5a7.218 7.218 0 0 0-.078 1.11c0 .406-.01.65-.031.734l.062.031c-.062.25-.005.61.172 1.078.177.47.401.672.672.61-.27.062-.063.51.625 1.343.125.167.208.26.25.282.063.041.188.12.375.234.188.115.344.219.469.313.125.093.229.203.312.328.084.104.188.338.313.703.125.364.27.61.437.734-.041.125.058.334.297.625.24.292.35.532.328.719-.02 0-.047.01-.078.031a.152.152 0 0 1-.078.032c.063.145.224.291.484.437.26.146.422.281.485.406.02.063.041.167.062.313.021.146.052.26.094.343.042.084.125.105.25.063.042-.417-.208-1.063-.75-1.938-.313-.52-.49-.822-.531-.906a1.796 1.796 0 0 1-.172-.484 2.383 2.383 0 0 0-.14-.453c.04 0 .103.015.187.047.083.03.172.067.265.109.094.042.172.083.235.125.062.042.083.073.062.094-.062.146-.041.328.063.547.104.218.229.411.375.578a42.859 42.859 0 0 0 .906 1c.125.125.27.328.438.61.166.28.166.421 0 .421.187 0 .395.104.624.313.23.208.407.416.532.625.104.166.187.437.25.812.062.375.114.625.156.75.042.146.13.286.266.422.135.135.265.234.39.297l.5.25.407.218c.104.042.296.152.578.329.28.177.505.297.672.359.208.083.375.125.5.125s.276-.026.453-.078c.177-.052.317-.089.422-.11.312-.041.614.115.906.47.291.353.51.572.656.656.75.395 1.323.51 1.719.343-.042.021-.037.1.015.235.052.135.136.297.25.484a30.633 30.633 0 0 0 .453.719c.105.125.292.281.563.468.27.188.458.344.563.47.125-.084.197-.178.218-.282-.062.167.01.375.219.625.208.25.396.354.563.313.291-.063.437-.396.437-1-.646.312-1.156.124-1.531-.563a.61.61 0 0 0-.078-.172 1.991 1.991 0 0 1-.125-.266 1.978 1.978 0 0 1-.078-.265.443.443 0 0 1 0-.234c.02-.063.072-.094.156-.094.187 0 .291-.037.312-.11.021-.073 0-.203-.062-.39a6.3 6.3 0 0 1-.125-.407c-.021-.166-.136-.374-.344-.624a8.328 8.328 0 0 1-.375-.47c-.104.188-.27.272-.5.25-.23-.02-.396-.114-.5-.28 0 .02-.016.078-.047.171a.743.743 0 0 0-.047.203c-.27 0-.427-.01-.468-.03.02-.063.046-.246.078-.548.03-.302.067-.536.109-.703.02-.083.078-.208.172-.375.094-.166.172-.317.234-.453a1.54 1.54 0 0 0 .125-.39c.021-.125-.026-.224-.14-.297-.115-.073-.297-.1-.547-.078-.396.02-.667.229-.813.625-.02.062-.052.171-.093.328a1.058 1.058 0 0 1-.157.359.778.778 0 0 1-.281.219c-.146.062-.396.083-.75.062-.354-.02-.604-.073-.75-.156-.27-.167-.505-.469-.703-.906-.198-.438-.297-.823-.297-1.157 0-.208.026-.484.078-.828.052-.343.083-.604.094-.78.01-.178-.047-.433-.172-.767.063-.041.156-.14.281-.296a1.94 1.94 0 0 1 .313-.328.558.558 0 0 1 .14-.047.32.32 0 0 1 .141 0c.042.01.083-.006.125-.047a.396.396 0 0 0 .094-.188.931.931 0 0 0-.125-.093c-.063-.063-.104-.094-.125-.094.146.062.442.047.89-.047s.735-.078.86.047c.312.229.541.208.687-.063 0-.02-.026-.12-.078-.297-.052-.177-.057-.317-.015-.422.104.563.406.657.906.282.062.062.224.114.484.156.26.042.443.094.547.156.063.042.135.1.219.172.083.073.14.12.172.14.03.022.083.016.156-.015a.942.942 0 0 0 .265-.203c.209.292.334.542.375.75.23.833.428 1.292.594 1.375.146.063.26.083.344.063.083-.021.13-.12.14-.297.011-.177.011-.323 0-.438a7.767 7.767 0 0 0-.046-.39l-.032-.25v-.563l-.03-.25c-.313-.063-.506-.188-.579-.375a.67.67 0 0 1 .047-.578c.104-.198.26-.39.469-.578.02-.021.104-.058.25-.11a5.48 5.48 0 0 0 .484-.203c.177-.083.307-.166.39-.25.438-.396.595-.76.47-1.093.145 0 .26-.094.343-.282-.02 0-.073-.031-.156-.093a2.284 2.284 0 0 0-.234-.157.424.424 0 0 0-.141-.062c.188-.104.208-.271.063-.5.104-.063.182-.177.234-.344.052-.167.13-.27.234-.313.188.25.407.271.657.063.145-.167.156-.333.03-.5.105-.146.318-.255.641-.328.323-.073.516-.172.578-.297.146.042.23.02.25-.063.021-.083.032-.208.032-.375 0-.166.031-.291.093-.375.084-.104.24-.197.47-.28.228-.084.364-.136.406-.157l.53-.344c.063-.083.063-.125 0-.125.376.042.699-.073.97-.343.208-.23.145-.438-.188-.625.063-.125.031-.224-.094-.297a1.635 1.635 0 0 0-.468-.172c.062-.021.182-.026.359-.016.177.01.286-.005.328-.047.313-.208.24-.375-.219-.5-.354-.104-.802.021-1.343.375zm-5.094 27.407c4.291-.75 7.948-2.72 10.968-5.907-.062-.062-.192-.11-.39-.14-.198-.032-.328-.068-.39-.11-.376-.146-.626-.229-.75-.25a.612.612 0 0 0-.079-.406.834.834 0 0 0-.25-.281 16.712 16.712 0 0 0-.39-.25 16.452 16.452 0 0 1-.344-.219 2.948 2.948 0 0 0-.219-.188c-.104-.083-.177-.14-.219-.171a2.217 2.217 0 0 0-.234-.141c-.115-.063-.203-.083-.266-.063-.062.021-.166.032-.312.032l-.094.031a.864.864 0 0 0-.172.078 2.56 2.56 0 0 1-.172.094.322.322 0 0 0-.125.094c-.02.03-.02.057 0 .078-.437-.354-.812-.584-1.125-.688a.883.883 0 0 1-.343-.172 2.968 2.968 0 0 0-.329-.218.456.456 0 0 0-.312-.047c-.115.02-.235.093-.36.218-.104.105-.166.26-.187.47-.02.208-.042.343-.063.406-.145-.105-.145-.287 0-.547.146-.26.167-.453.063-.578-.063-.126-.172-.172-.328-.141a1.046 1.046 0 0 0-.375.14 6.004 6.004 0 0 0-.36.266c-.145.115-.24.182-.28.203a2.99 2.99 0 0 0-.266.172 1.051 1.051 0 0 0-.266.234 1.552 1.552 0 0 0-.188.376 1.89 1.89 0 0 1-.156.343c-.041-.083-.161-.15-.36-.203-.197-.052-.296-.11-.296-.172.042.209.083.573.125 1.094.042.52.094.917.156 1.188.146.645.021 1.145-.375 1.5-.562.52-.864.937-.906 1.25-.083.458.042.729.375.812 0 .146-.083.36-.25.64-.167.282-.24.506-.219.672 0 .126.021.292.063.5z" fill="#000" fill-rule="nonzero"/></svg>