<svg width="48" height="48" viewBox="0 0 48 48" xmlns="http://www.w3.org/2000/svg"><path d="M19.308 3.429c-.956 0-1.772.334-2.448 1.004a3.288 3.288 0 0 0-1.014 2.424v24l-4.083-5.41C11.023 24.481 10.059 24 8.869 24c-.938 0-1.74.34-2.407 1.018-.667.678-1 1.482-1 2.41 0 .768.234 1.456.703 2.063l10.384 13.714c.685.911 1.605 1.366 2.759 1.366h19.417c.396 0 .752-.12 1.068-.361.315-.241.518-.55.608-.924l2.488-9.857c.433-1.715.65-3.447.65-5.197V22.42a2.68 2.68 0 0 0-.758-1.902c-.505-.536-1.118-.804-1.839-.804-.72 0-1.334.25-1.839.75a2.468 2.468 0 0 0-.757 1.822h-.865v-1.634c0-.857-.289-1.585-.866-2.183-.577-.598-1.298-.898-2.163-.898-.83 0-1.542.295-2.136.884-.595.59-.893 1.295-.893 2.116v1.715h-.865v-2.411c0-.982-.334-1.826-1-2.531-.668-.706-1.488-1.058-2.462-1.058-.955 0-1.771.335-2.447 1.004a3.288 3.288 0 0 0-1.014 2.424v2.572h-.866V7.018c0-.982-.333-1.826-1-2.531-.667-.706-1.488-1.058-2.461-1.058zm0-3.429c1.929 0 3.565.692 4.908 2.076 1.343 1.384 2.015 3.031 2.015 4.942v5.893c.396-.036.685-.054.865-.054 1.785 0 3.345.616 4.679 1.848a6.543 6.543 0 0 1 2.677-.562c2.037 0 3.696.777 4.976 2.33a6.065 6.065 0 0 1 1.514-.187c1.695 0 3.128.602 4.3 1.808C46.414 19.299 47 20.74 47 22.42v5.812c0 2.072-.252 4.08-.757 6.027l-2.488 9.857a4.983 4.983 0 0 1-1.84 2.8A5.087 5.087 0 0 1 38.726 48H19.308a6.838 6.838 0 0 1-3.097-.737 7.005 7.005 0 0 1-2.447-1.995L3.379 31.554A6.657 6.657 0 0 1 2 27.429c0-1.875.672-3.487 2.015-4.835 1.343-1.348 2.961-2.023 4.854-2.023 1.28 0 2.452.313 3.516.938V6.857c0-1.893.676-3.509 2.028-4.848C15.765.669 17.397 0 19.308 0zm3.461 37.714V27.43h-.865v10.285h.865zm6.923 0V27.43h-.865v10.285h.865zm6.923 0V27.43h-.865v10.285h.865z" fill="#000" fill-rule="nonzero"/></svg>