<svg width="48" height="48" viewBox="0 0 48 48" xmlns="http://www.w3.org/2000/svg"><g fill-rule="nonzero" fill="none"><g fill="#F89822"><path d="M16.608 18.13c-1.488-.369-5.112.663-6.624-2.972-.312-.762 4.104.81 6.624.246-1.848-.344-8.928 0-10.056-4.913 2.352.54 4.272 1.18 6.456 1.769 1.248.319 2.616.663 4.296.81 1.536.123 2.64.123 3.048-1.424.312-1.253 1.8-1.793 3-1.327.768.295 1.32.197 2.016-.098 1.152-.516 2.328.025 2.712 1.13.504 1.424 1.464 1.965 2.88 1.645 3.216-.76 6.408-1.547 9.624-2.308.216-.05.432-.05.84-.099-1.08 4.2-6.816 4.372-9.864 4.618 1.248.197 2.808.246 4.416-.025.36-.049 1.392-.319 1.752-.368.936-.147.288.59-.096 1.228-.912 1.474-2.328 2.088-3.936 2.21-1.08.074-2.16.025-3.24.123 1.92.54 4.224.074 4.632.393-.888 1.572-2.76 2.432-4.464 1.916-.864-.245-1.176-.024-1.584.688-.744 1.302-2.112 1.572-3.408 1.842-2.664.54-4.824-.295-6.168-2.505-.408-.663-.768-.393-1.248-.246-1.632.54-3.552.369-5.088-1.302-.528-.663 2.832-.294 3.48-1.031zm7.656 4.568c.264 0 .552.025.816 0 2.856-.245 3.84-1.277 3.816-4.102 0-.614.288-.81.672-1.056.936-.614 1.2-1.547.96-2.579-.24-1.007-.744-1.842-1.92-1.89-.48-.025-.696-.148-.792-.689-.36-1.768-1.392-2.284-2.856-1.424-.504.295-.792.344-1.32.074-1.44-.713-2.592-.099-3.024 1.498-.096.393-.048.86-.672.86-1.152-.05-1.824.638-2.04 1.694-.24 1.13.048 2.162 1.032 2.85.288.22.528.368.6.834.504 2.874 1.776 3.93 4.728 3.93z"/><path d="M18.648 15.698c.072-.884.312-1.72 1.368-1.744 1.056-.024 1.392.86 1.416 1.695.024.884-.36 1.72-1.368 1.744-1.08.025-1.32-.81-1.416-1.695zM24 12.898c-.096 1.032-.384 1.867-1.416 1.867-1.008-.025-1.368-.835-1.368-1.769 0-.86.336-1.62 1.32-1.67 1.104-.049 1.344.786 1.464 1.572zM27.36 12.85c-.096.908-.312 1.743-1.392 1.718-.984-.024-1.368-.835-1.368-1.645-.024-.86.288-1.769 1.344-1.793 1.056-.025 1.32.81 1.416 1.72zM27.744 17.614c1.392 1.818.408 3.856-1.848 4.225-1.272.22-2.568.245-3.792-.27-1.776-.737-2.232-2.26-1.128-3.832.432-.614.912-1.18 1.44-1.695 1.968-1.842 2.352-1.793 4.272.172M27.912 16.975c-.624-.22-.72-1.154-.696-1.645.072-.786.408-1.376 1.104-1.597.6-.196 1.08.148 1.392.663.48.811.432 1.622-.192 2.334-.456.491-1.008.59-1.608.245"/></g><path d="M16.44 37.632c-.144.024-.6 0-.768.024-1.344 0-2.064-.688-2.112-1.99-.048-.76.024-1.522-.024-2.259-.024-.246-.024-.786-.024-1.056-.192-.025-.528 0-.84 0 0-.197.024-1.032 0-1.547.168 0 .744.049.768-.197.072-.786.072-1.67.072-1.768.432-.025 1.248-.05 1.68 0v1.891c.168.024.72.024 1.128 0v1.474c-.384 0-.888 0-1.056.024-.024.246-.024.909-.024 1.302-.024.516 0 1.031 0 1.572 0 .54-.024 1.056.72 1.13.12 0 .408.024.504.024v1.376h-.024zM11.808 36.65c-1.464 1.3-3.624 1.4-4.752.196-1.152-1.228-1.104-4.151.048-5.404.864-.909 2.304-1.13 3.456-.491 1.224.663 1.512 1.842 1.56 3.12v.589c-.192.024-.48.024-.72.024-.888 0-1.752-.024-2.64 0-.288 0-.744-.049-.792.32-.048.368.144.638.408.86.528.441 1.272.49 1.776.22.384-.196.552-.32.768-.393.336.295.552.516.888.958zm-1.44-3.415c.024-.688-.504-1.179-1.224-1.179s-1.152.491-1.128 1.18h2.352zM5.544 31.81c0 .958.048 1.892 0 2.85-.12 2.431-2.664 3.856-4.752 2.701a2.896 2.896 0 0 1-.792-.59c.24-.318.816-.883 1.056-1.08.096-.049.12-.024.24.025 1.728.81 2.496.123 2.496-1.965 0-1.425-.024-2.85 0-4.274v-1.252c.144-.025 1.344 0 1.728 0 0 .54 0 .663.024 1.326.048.737.024 1.498 0 2.26.024 0 .024 0 0 0zM36.048 36.526c.408-1.424 1.008-3.07 1.416-4.494.096-.369.144-.934.6-.786.36.122.12.614.024.933-.456 1.523-.936 3.07-1.416 4.593-.096.344-.168.86-.576.86-.504 0-.6-.54-.72-.885-.48-1.326-.888-2.824-1.416-4.347-.552 1.425-.96 2.972-1.44 4.347-.12.369-.24.934-.768.885-.408-.05-.432-.565-.528-.885-.528-1.572-1.008-3.143-1.488-4.715-.072-.246-.36-.688.168-.81.36-.075.384.343.456.589.456 1.522.888 3.07 1.44 4.96.576-1.792 1.032-3.29 1.536-4.789.096-.319.168-.81.648-.76.336.024.408.466.504.76l1.56 4.544zM17.76 32.818c0-1.278.024-2.555 0-3.832-.024-.59.168-.86.768-.835.96.049 1.944 0 2.904.049 1.632.123 2.496 1.032 2.52 2.604.024 1.522-.696 2.48-2.232 2.726-.144.024-.576.049-.696.049-1.296.074-2.088.025-2.472.05-.024.367-.048 1.473-.048 2.873 0 .393.144 1.056-.432 1.056-.384 0-.288-.688-.288-1.08-.072-1.204-.024-2.432-.024-3.66zm.744-2.014c.024.417-.024 1.817 0 2.21.552.025 1.056.05 1.536.025 2.616-.074 3.216-.614 3.216-2.162 0-1.523-.816-2.088-3.072-2.088-1.68.025-1.68.025-1.68 2.015zM40.2 37.607c-.792-.074-1.92-.344-1.704-.909.216-.565.6.123 1.104.221.456.074.912.148 1.368.148.792.024 1.56-.197 1.632-1.155.096-1.08-.744-1.13-1.512-1.203-.192-.025-.36-.05-.552-.074-1.608-.27-2.136-.786-1.992-1.94.144-1.056 1.248-1.72 2.568-1.572.216.024.456.098.672.172.384.098 1.008.22.912.59-.096.441-.672.073-1.008 0-.504-.124-.984-.246-1.488-.099-.576.172-1.056.467-1.056 1.13 0 .712.408.909 1.08 1.056.408.074.816.147 1.224.196 1.032.099 1.872.492 1.8 1.695-.072 1.18-.888 1.695-1.968 1.793-.168.025-.744 0-1.08-.049z" fill="#175596"/><g fill="#155696"><path d="M44.76 30.484h-.648v-.245h1.56v.245h-.648V32.4h-.264v-1.916zM47.688 31.442c-.024-.295-.024-.663-.024-.933-.072.245-.168.516-.264.81l-.36 1.056h-.24l-.336-1.031a7.713 7.713 0 0 1-.24-.835c0 .27-.024.638-.048.958l-.048.933h-.264l.144-2.161h.336l.36 1.031c.096.27.168.491.216.737a7.71 7.71 0 0 1 .216-.737l.384-1.031h.336l.12 2.161h-.264l-.024-.958z"/></g><path d="M29.112 35.15v-1.227c-.024-2.997-2.376-3.365-3.984-2.456-.264.147-.696.319-.528.687.216.467.504.05.744-.098.672-.368 1.392-.491 2.136-.196.672.27.912.86.888 1.572-.024.614-.888.442-1.176.466-.72.025-1.44-.049-2.016.197-1.224.54-1.392 2.284-.384 3.144.6.49 1.296.393 1.992.393.768 0 1.32-.148 1.68-.516v.516h.624v-2.088l.024-.393zm-2.568 1.941c-.816-.024-1.728-.098-1.68-1.228.072-1.474 1.32-1.277 2.16-1.326.6 0 1.392-.098 1.368.86-.048 1.301-.72 1.719-1.848 1.694z" fill="#175596"/></g></svg>