<svg width="48" height="48" viewBox="0 0 48 48" xmlns="http://www.w3.org/2000/svg"><path d="M47.25.295c.59.428.83 1 .723 1.714L41.12 43.152c-.09.518-.375.92-.857 1.205-.25.143-.526.214-.83.214a1.8 1.8 0 0 1-.642-.133l-12.127-4.956-6.479 7.902c-.321.41-.758.616-1.312.616-.232 0-.428-.036-.589-.107a1.68 1.68 0 0 1-.816-.63 1.673 1.673 0 0 1-.308-.977v-9.349L40.29 8.572 11.672 33.348l-10.574-4.34c-.66-.25-1.018-.74-1.071-1.472-.036-.715.25-1.241.856-1.58L45.43.24c.268-.16.553-.241.857-.241.357 0 .678.098.963.295z" fill="#000" fill-rule="nonzero"/></svg>