<svg width="48" height="48" viewBox="0 0 48 48" xmlns="http://www.w3.org/2000/svg"><path d="M47.11.89c1.004 1.187 1.14 2.876.411 5.067-.73 2.191-1.961 4.154-3.695 5.889l-5.508 5.512 5.474 23.829c.114.434-.023.81-.41 1.13l-4.38 3.286c-.16.137-.376.206-.65.206a.758.758 0 0 1-.24-.034c-.342-.069-.581-.251-.718-.548L27.85 27.835l-8.861 8.867 1.813 6.642c.114.388.023.742-.274 1.061l-3.284 3.287a1.065 1.065 0 0 1-.787.308h-.068a1.229 1.229 0 0 1-.821-.445L9.1 38.927.48 32.457c-.25-.16-.4-.423-.445-.788-.023-.297.08-.582.308-.856l3.285-3.32c.205-.206.467-.309.786-.309.137 0 .228.011.274.034l6.637 1.815 8.861-8.868-17.38-9.552a1.147 1.147 0 0 1-.581-.821 1.056 1.056 0 0 1 .308-.925L6.91 4.485c.32-.297.661-.388 1.026-.274L30.69 9.655l5.474-5.478c1.733-1.735 3.694-2.967 5.884-3.698 2.19-.73 3.877-.593 5.063.411z" fill="#000" fill-rule="nonzero"/></svg>