<svg width="48" height="48" viewBox="0 0 48 48" xmlns="http://www.w3.org/2000/svg"><path d="M28 39v-6a.973.973 0 0 0-.281-.719A.973.973 0 0 0 27 32h-6a.973.973 0 0 0-.719.281A.973.973 0 0 0 20 33v6c0 .292.094.531.281.719A.973.973 0 0 0 21 40h6a.973.973 0 0 0 .719-.281A.973.973 0 0 0 28 39zm8-21c0-1.833-.578-3.531-1.734-5.094a11.834 11.834 0 0 0-4.328-3.625C28.207 8.427 26.438 8 24.625 8c-5.063 0-8.927 2.219-11.594 6.656-.312.5-.229.938.25 1.313l4.125 3.125c.146.125.344.187.594.187.333 0 .594-.125.781-.375 1.104-1.416 2-2.375 2.688-2.875.708-.5 1.604-.75 2.687-.75 1 0 1.89.271 2.672.813.781.541 1.172 1.156 1.172 1.843 0 .792-.208 1.428-.625 1.907-.417.479-1.125.948-2.125 1.406-1.313.583-2.516 1.484-3.61 2.703C20.548 25.172 20 26.48 20 27.875V29c0 .292.094.531.281.719A.973.973 0 0 0 21 30h6a.973.973 0 0 0 .719-.281A.973.973 0 0 0 28 29c0-.396.224-.911.672-1.547a5.277 5.277 0 0 1 1.703-1.547 46.404 46.404 0 0 0 1.531-.89c.354-.22.834-.584 1.438-1.094.604-.51 1.067-1.01 1.39-1.5.323-.49.615-1.12.875-1.89.26-.772.391-1.615.391-2.532zm12 6c0 4.354-1.073 8.37-3.219 12.047-2.146 3.677-5.057 6.588-8.734 8.734C32.37 46.927 28.354 48 24 48c-4.354 0-8.37-1.073-12.047-3.219-3.677-2.146-6.588-5.057-8.734-8.734C1.073 32.37 0 28.354 0 24c0-4.354 1.073-8.37 3.219-12.047 2.146-3.677 5.057-6.588 8.734-8.734C15.63 1.073 19.646 0 24 0c4.354 0 8.37 1.073 12.047 3.219 3.677 2.146 6.588 5.057 8.734 8.734C46.927 15.63 48 19.646 48 24z" fill="#000" fill-rule="nonzero"/></svg>