<svg width="48" height="48" viewBox="0 0 48 48" xmlns="http://www.w3.org/2000/svg"><path d="M22.406 39.594l14.188-14.188c.396-.396.593-.864.593-1.406 0-.542-.197-1.01-.593-1.406L22.406 8.406A1.922 1.922 0 0 0 21 7.812c-.542 0-1.01.198-1.406.594l-3.188 3.188A1.922 1.922 0 0 0 15.813 13c0 .542.197 1.01.593 1.406L26 24l-9.594 9.594A1.922 1.922 0 0 0 15.813 35c0 .542.197 1.01.593 1.406l3.188 3.188c.396.396.864.593 1.406.593.542 0 1.01-.197 1.406-.593zM48 24c0 4.354-1.073 8.37-3.219 12.047-2.146 3.677-5.057 6.588-8.734 8.734C32.37 46.927 28.354 48 24 48c-4.354 0-8.37-1.073-12.047-3.219-3.677-2.146-6.588-5.057-8.734-8.734C1.073 32.37 0 28.354 0 24c0-4.354 1.073-8.37 3.219-12.047 2.146-3.677 5.057-6.588 8.734-8.734C15.63 1.073 19.646 0 24 0c4.354 0 8.37 1.073 12.047 3.219 3.677 2.146 6.588 5.057 8.734 8.734C46.927 15.63 48 19.646 48 24z" fill="#000" fill-rule="nonzero"/></svg>