<svg width="48" height="48" viewBox="0 0 48 48" xmlns="http://www.w3.org/2000/svg"><path d="M27.52 43.2c0-.825-.295-1.531-.887-2.119A2.919 2.919 0 0 0 24.5 40.2c-.83 0-1.542.294-2.133.881a2.879 2.879 0 0 0-.888 2.119c0 .825.296 1.531.888 2.119a2.919 2.919 0 0 0 2.133.881c.83 0 1.542-.294 2.133-.881a2.879 2.879 0 0 0 .888-2.119zm7.855-6V10.8c0-.325-.12-.606-.359-.844a1.165 1.165 0 0 0-.85-.356H14.834c-.327 0-.61.119-.85.356a1.15 1.15 0 0 0-.358.844v26.4c0 .325.12.606.359.844.239.237.522.356.85.356h19.333c.327 0 .61-.119.85-.356a1.15 1.15 0 0 0 .358-.844zm-7.25-31.8c0-.4-.201-.6-.604-.6h-6.042c-.403 0-.604.2-.604.6 0 .4.201.6.604.6h6.042c.403 0 .604-.2.604-.6zM39 4.8v38.4c0 1.3-.478 2.425-1.435 3.375-.956.95-2.09 1.425-3.398 1.425H14.833c-1.309 0-2.442-.475-3.398-1.425C10.478 45.625 10 44.5 10 43.2V4.8c0-1.3.478-2.425 1.435-3.375C12.39.475 13.525 0 14.833 0h19.334c1.309 0 2.442.475 3.398 1.425C38.522 2.375 39 3.5 39 4.8z" fill="#000" fill-rule="nonzero"/></svg>