<svg width="48" height="48" viewBox="0 0 48 48" xmlns="http://www.w3.org/2000/svg"><path d="M17.143 10.833h13.714V7.417H17.143v3.416zm-9.429 0V45H6c-1.643 0-3.054-.587-4.232-1.762C.589 42.064 0 40.658 0 39.021V16.812c0-1.637.59-3.042 1.768-4.217 1.178-1.174 2.59-1.762 4.232-1.762h1.714zm30 0V45H10.286V10.833h3.428v-4.27c0-.712.25-1.317.75-1.816A2.484 2.484 0 0 1 16.286 4h15.428c.715 0 1.322.25 1.822.747.5.499.75 1.104.75 1.815v4.271h3.428zM48 16.813V39.02c0 1.637-.59 3.043-1.768 4.217C45.054 44.413 43.642 45 42 45h-1.714V10.833H42c1.643 0 3.054.588 4.232 1.762C47.411 13.77 48 15.175 48 16.812z" fill="#000" fill-rule="nonzero" opacity=".922"/></svg>