<svg width="48" height="41" viewBox="0 0 48 41" xmlns="http://www.w3.org/2000/svg"><path d="M2.308 18.747v3.866H1.164v-3.866H.02v-1.08h3.425v1.08H2.308zm6.214 3.866L7.7 20.78h-.388v1.833H6.168V17.68h1.84c.423-.019.834.142 1.135.443.3.3.464.715.45 1.144.01.54-.283 1.038-.756 1.286l1.006 2.06H8.522zm-.56-3.846h-.657v1h.658a.497.497 0 0 0 .493-.5c0-.276-.22-.5-.493-.5zm6.228 3.846a1.684 1.684 0 0 1-1.258-.5 1.733 1.733 0 0 1-.498-1.273v-3.2h1.144v3.173c0 .46.237.72.612.72.374 0 .657-.26.657-.72V17.64h1.144v3.2a1.74 1.74 0 0 1-.516 1.288 1.69 1.69 0 0 1-1.285.485zm4.714 0V17.68h3.13v1.08h-1.973v.827h1.723v1.08h-1.723v.866h1.973v1.08h-3.13zm9.192 0h-1.808V17.68h1.75c.362-.036.723.091.986.348.263.256.402.616.38.985.02.463-.24.89-.657 1.08.476.184.781.658.757 1.174.024.378-.12.748-.392 1.009-.272.26-.644.384-1.016.337zm-.098-4.46h-1.21v1.714h1.21a.845.845 0 0 0 .796-.405.87.87 0 0 0 0-.904.845.845 0 0 0-.796-.405zm.052 2.18h-1.262v1.807h1.262a.89.89 0 0 0 .838-.428.917.917 0 0 0 0-.95.89.89 0 0 0-.838-.429zm4.682 2.28V17.68h.48v4.467h2.374v.466h-2.854zm7.167 0a1.56 1.56 0 0 1-1.168-.475 1.606 1.606 0 0 1-.45-1.191v-3.334h.494v3.267c-.047.437.157.862.524 1.095.367.233.833.233 1.2 0 .368-.233.571-.658.525-1.095v-3.267h.493v3.334c.02.443-.143.875-.45 1.191a1.56 1.56 0 0 1-1.168.475zm4.99 0V17.68h2.88v.473h-2.386v1.74h2.038v.474h-2.038v1.78h2.387v.466h-2.88z"/></svg>