<svg width="48" height="48" viewBox="0 0 48 48" xmlns="http://www.w3.org/2000/svg"><g><path d="M23.836 19.28l1.135 3.3h3.676L25.68 24.62l1.135 3.3-2.979-2.042-2.967 2.042 1.135-3.3-2.968-2.042h3.666l1.134-3.3z"/><path d="M41.924 23.043l5.76-3.495H30.862C29.295 17.33 26.662 16 23.842 16c-2.82 0-5.453 1.33-7.02 3.546H0l5.76 3.496 9.665 1.351c.024.441.086.88.186 1.31H7.658l3.218 2.197 6.546 1.247c1.6 1.775 3.942 2.797 6.409 2.797 2.466 0 4.809-1.022 6.409-2.797l6.545-1.237 3.219-2.197h-7.931c.1-.434.162-.876.185-1.32l9.666-1.35zm-18.088 6.374c-3.175 0-5.749-2.434-5.749-5.435 0-3.002 2.574-5.435 5.75-5.435 3.174 0 5.748 2.433 5.748 5.435 0 3.001-2.574 5.435-5.749 5.435z"/></g></svg>