<svg xmlns="http://www.w3.org/2000/svg" width="24" height="12" viewBox="0 0 24 12"><g transform="translate(-2.435 -4)"><path d="M16.623 7.396a.75.75 0 1 1-1.182.923l-2.087-2.672-.066-.105-1.136.001.902 2.04a.75.75 0 1 1-1.372.607L10.68 5.922l-.054-.182a1.461 1.461 0 0 1 1.44-1.697l1.245-.001c.524 0 1.004.28 1.264.73l2.048 2.624zM13.274 5.52a.038.038 0 0 0 .004.007l-.004-.007z"/><path d="M24.417 9.238c-.206-.206-.44-.323-.618-.324H6.969l-.182-.484-1.024-2.705a.4.4 0 0 0-.378-.255l-.972-.007a.398.398 0 0 0-.393.478l.843 4.388c.038.19.205.327.392.328l8.38-.044-.24.941-.831 3.23a.042.042 0 0 0 .009.033c.005.007.47.015 1.394.024.016 0 .03-.008.08-.094l2.77-4.09H23.805c.289.003.483-.06.608-.186a.875.875 0 0 0 .259-.615.875.875 0 0 0-.255-.618zM8.006 7.414H23.8c.62.001 1.214.298 1.679.765.445.447.694 1.052.693 1.682a2.374 2.374 0 0 1-.7 1.671c-.438.441-1.019.63-1.673.625h-6.187l-2.28 3.359c-.267.51-.797.828-1.374.825l-1.418-.01a1.542 1.542 0 0 1-1.125-.56c-.279-.338-.4-.779-.32-1.285l.605-2.362-6.444.033a1.91 1.91 0 0 1-1.865-1.54l-.843-4.39a1.898 1.898 0 0 1 1.878-2.264l.964.007a1.9 1.9 0 0 1 1.774 1.22l.842 2.224z"/></g></svg>