<svg xmlns="http://www.w3.org/2000/svg" width="24" height="12" viewBox="0 0 24 12"><path d="M14.118 3.728L11.813.498a.764.764 0 0 0-.675-.412L9.412.08a.763.763 0 0 0-.755.887l1.227 2.747-5.365-.02L3.42.795A1.228 1.228 0 0 0 2.273.004L1.232 0A1.227 1.227 0 0 0 .024 1.46L.93 6.162c.114.576.618 1.07 1.203 1.071h7.889l-.903 3.408a.846.846 0 0 0 .83.989l1.491.005a.849.849 0 0 0 .75-.45l2.787-3.952h6.976c.475.003.91-.188 1.224-.506.314-.312.514-.745.516-1.226a1.737 1.737 0 0 0-1.727-1.741l-7.85-.032z"/></svg>