<svg xmlns="http://www.w3.org/2000/svg" width="32" height="28" viewBox="0 0 32 28"><path fill-rule="evenodd" d="M12.805 28H.008V14.654c-.06-1.919.225-3.721.856-5.408.63-1.686 1.517-3.17 2.658-4.448 1.142-1.28 2.509-2.341 4.1-3.184A14.924 14.924 0 0 1 12.806 0v5.757c-2.283.756-3.845 1.875-4.686 3.358-.842 1.483-1.262 3.3-1.262 5.452h5.948V28zM32 28H19.203V14.654c-.06-1.919.225-3.721.856-5.408.631-1.686 1.517-3.17 2.659-4.448 1.141-1.28 2.508-2.341 4.1-3.184A14.924 14.924 0 0 1 32 0v5.757c-2.283.756-3.845 1.875-4.686 3.358-.841 1.483-1.262 3.3-1.262 5.452H32V28z"/></svg>