<svg xmlns="http://www.w3.org/2000/svg" width="48" height="48" viewBox="0 0 48 48"><g fill="none" fill-rule="evenodd" transform="translate(3 6)"><path fill="#FFF" fill-rule="nonzero" stroke="#1D2759" stroke-width="1.5" d="M.6 9.4h37.5"/><path fill="#1D2759" fill-rule="nonzero" d="M3.3.3H3C1.7.3.6 1.4.6 2.7V3C.6 1.5 1.8.3 3.3.3z"/><path fill="#F6F6F6" fill-rule="nonzero" stroke="#1D2759" d="M.6 29.8c0 1.5 1.2 2.7 2.7 2.7h32.1c1.5 0 2.7-1.2 2.7-2.7V9.4H.6v20.4z"/><path fill="#1D2759" fill-rule="nonzero" stroke="#1D2759" d="M35.4.3H3.3C1.8.3.6 1.5.6 3v6.4h37.5V3c0-1.5-1.2-2.7-2.7-2.7z"/><path stroke="#1D2759" stroke-width="1.5" d="M.6 9.4h37.5"/><circle cx="26.7" cy="21.4" r="7.8" stroke="#1D2759"/><polygon fill="#FE8200" fill-rule="nonzero" points="26.7 17.4 27.6 20.2 30.5 20.2 28.1 21.9 29.1 24.8 26.7 23 24.3 24.8 25.2 21.9 22.8 20.2 25.7 20.2"/><path fill="#1D2759" fill-rule="nonzero" d="M38.1 2.9v-.3c0-1.3-1.1-2.4-2.4-2.4h-.3c1.5.1 2.7 1.3 2.7 2.7z"/><path stroke="#1D2759" stroke-linecap="round" d="M32.1 26.9l8.5 8.4"/></g></svg>