<svg xmlns="http://www.w3.org/2000/svg" width="48" height="48" viewBox="0 0 48 48"><g fill="none" fill-rule="evenodd" transform="translate(9 2)"><path fill="#F6F6F6" fill-rule="nonzero" stroke="#1D2759" d="M0 40.9L.2 6.8c0-1.4 1.1-2.5 2.5-2.5l19.9.1c1.4 0 2.5 1.1 2.5 2.5L25 41.1c0 1.4-1.1 2.5-2.5 2.5l-19.9-.1C1.1 43.4 0 42.3 0 40.9z"/><rect width="19.3" height="29.7" x="2.9" y="7" fill="#F6F6F6" fill-rule="nonzero" stroke="#1D2759"/><circle cx="12.6" cy="40" r="1.5" fill="#FE8200" fill-rule="nonzero"/><path stroke="#1D2759" stroke-width="1.5" d="M8.4 23.8h8.4m-8.4 3.7h8.4m-8.4 3.7h8.4"/><path fill="#1D2759" fill-rule="nonzero" d="M9.9 12.9H8.5v-.8c0-.3.3-.6.6-.6h.8v1.4z"/><rect width="1.4" height="1.4" x="9.9" y="11.5" fill="#1D2759" fill-rule="nonzero"/><rect width="1.4" height="1.4" x="12.6" y="11.6" fill="#1D2759" fill-rule="nonzero"/><rect width="1.4" height="1.4" x="14" y="11.6" fill="#1D2759" fill-rule="nonzero"/><path fill="#1D2759" fill-rule="nonzero" d="M16.7 12.9h-1.4v-1.4h.8c.3 0 .6.2.6.6v.8z"/><rect width="1.4" height="1.4" x="8.5" y="12.9" fill="#1D2759" fill-rule="nonzero"/><rect width="1.4" height="1.4" x="11.2" y="12.9" fill="#1D2759" fill-rule="nonzero"/><rect width="1.4" height="1.4" x="12.6" y="12.9" fill="#1D2759" fill-rule="nonzero"/><rect width="1.4" height="1.4" x="14" y="12.9" fill="#1D2759" fill-rule="nonzero"/><rect width="1.4" height="1.4" x="15.4" y="12.9" fill="#1D2759" fill-rule="nonzero"/><rect width="1.4" height="1.4" x="8.5" y="14.3" fill="#1D2759" fill-rule="nonzero"/><rect width="1.4" height="1.4" x="11.2" y="14.3" fill="#1D2759" fill-rule="nonzero"/><rect width="1.4" height="1.4" x="12.6" y="14.3" fill="#1D2759" fill-rule="nonzero"/><rect width="1.4" height="1.4" x="8.5" y="15.7" fill="#1D2759" fill-rule="nonzero"/><rect width="1.4" height="1.4" x="9.9" y="15.7" fill="#1D2759" fill-rule="nonzero"/><rect width="1.4" height="1.4" x="11.2" y="15.7" fill="#1D2759" fill-rule="nonzero"/><rect width="1.4" height="1.4" x="14" y="15.7" fill="#1D2759" fill-rule="nonzero"/><rect width="1.4" height="1.4" x="14" y="17" fill="#1D2759" fill-rule="nonzero"/><rect width="1.4" height="1.4" x="15.4" y="15.7" fill="#1D2759" fill-rule="nonzero"/><rect width="1.4" height="1.4" x="8.5" y="17" fill="#1D2759" fill-rule="nonzero"/><rect width="1.4" height="1.4" x="11.2" y="17" fill="#1D2759" fill-rule="nonzero"/><path fill="#1D2759" fill-rule="nonzero" d="M9.9 19.8H9c-.3 0-.6-.2-.6-.6v-.8h1.4v1.4h.1z"/><rect width="1.4" height="1.4" x="9.9" y="18.4" fill="#1D2759" fill-rule="nonzero"/><rect width="1.4" height="1.4" x="11.2" y="18.4" fill="#1D2759" fill-rule="nonzero"/><rect width="1.4" height="1.4" x="12.6" y="18.4" fill="#1D2759" fill-rule="nonzero"/><path fill="#1D2759" fill-rule="nonzero" d="M16.2 19.8h-.8v-1.4h1.4v.8c-.1.3-.3.6-.6.6z"/><circle cx="24.2" cy="6.2" r="5.8" fill="#91C8E5" fill-rule="nonzero" stroke="#1D2759"/><polyline stroke="#1D2759" stroke-linecap="round" points="22.1 6 23.5 7.9 26.2 4.5"/></g></svg>