<svg xmlns="http://www.w3.org/2000/svg" width="48" height="48" viewBox="0 0 48 48"><g fill="none" fill-rule="evenodd" transform="translate(3 3)"><path fill="#91C8E5" fill-rule="nonzero" d="M20.5.6h-1.3l.3 5.5h.9c8 0 14.5 6.5 14.5 14.5s-6.4 14.5-14.4 14.5S6 28.6 6 20.6c0-2.1.4-4.1 1.3-6 .1-.3.2-.6.2-1 0-1.5-1.2-2.7-2.7-2.7-1 0-2 .6-2.4 1.5v.1c0 .1-.1.1-.1.2a19.8 19.8 0 0 0-1.7 8c0 11 9 20 20 20s20-9 20-20S31.5.6 20.5.6z"/><circle cx="20.5" cy="20.6" r="19.8" stroke="#1D2759"/><circle cx="20.5" cy="20.6" r="14.8" fill="#F6F6F6" fill-rule="nonzero" stroke="#1D2759"/><path fill="#1D2759" fill-rule="nonzero" d="M16.3 19.2l-1.8-2.3c-.1-.2-.3-.2-.5-.2l-.5.2c-.3.1-.4.3-.3.6L14 20l2.3-.8zm0 3.1l-1.8 2.3c-.1.2-.3.2-.5.2l-.5-.2c-.3-.1-.4-.3-.3-.6l.8-2.5 2.3.8z"/><path fill="#FE8200" fill-rule="nonzero" d="M19.1 15c0-.3.2-.5.5-.5h2.6c.3 0 .5.2.5.5s-.2.5-.5.5h-2.6c-.3 0-.5-.2-.5-.5z"/><path fill="#91C8E5" fill-rule="nonzero" stroke="#1D2759" d="M24.3 19.1l-5.5-6.7c-.1-.1-.2-.2-.3-.2l-1.2-.1c-.4 0-.6.3-.4.7l3.6 7.4 3.8-1.1z"/><path fill="#FE8200" fill-rule="nonzero" d="M19.1 26.5c0 .3.2.5.5.5h2.6c.3 0 .5-.2.5-.5s-.2-.5-.5-.5h-2.6c-.3 0-.5.2-.5.5z"/><path fill="#91C8E5" fill-rule="nonzero" stroke="#1D2759" d="M24.3 22.4l-5.5 6.7c-.1.1-.2.2-.3.2l-1.2.1c-.4 0-.6-.3-.4-.7l3.6-7.4 3.8 1.1z"/><path fill="#F6F6F6" fill-rule="nonzero" stroke="#1D2759" d="M12.9 20.8v-.1c0-.9.7-1.4 1.6-1.4l15-.2c.9 0 1.6.7 1.6 1.6v.1c0 .9-.7 1.6-1.6 1.6l-15-.2c-.9 0-1.6-.5-1.6-1.4z"/></g></svg>