<svg xmlns="http://www.w3.org/2000/svg" width="48" height="48" viewBox="0 0 48 48"><g fill="none" transform="translate(5 6)"><path fill="#1D2759" d="M10.2 22.7l-6.6-.9c-.4-.1-.9.2-1.1.6l-.5 1c-.3.5-.1 1.2.5 1.5l5.3 2.7 2.4-4.9zm5.1 5.1l.9 6.6c.1.4-.2.9-.6 1.1l-1 .5c-.5.3-1.2.1-1.5-.5l-2.7-5.3 4.9-2.4z"/><path fill="#FE8200" d="M8.1 11.4c-.4-.4-.4-1.1 0-1.5l4.3-4.3c.4-.4 1.1-.4 1.5 0 .4.4.4 1.1 0 1.5l-4.3 4.3c-.4.4-1.1.4-1.5 0z"/><path fill="#91C8E5" stroke="#1D2759" d="M23.1 9.6L3.3 7.7c-.3 0-.6.1-.8.2L.4 9.7c-.6.5-.4 1.5.3 1.8l17.8 6.2 4.6-8.1z"/><path fill="#FE8200" d="M26.6 29.9c.4.4 1.1.4 1.5 0l4.3-4.3c.4-.4.4-1.1 0-1.5-.4-.4-1.1-.4-1.5 0l-4.3 4.3c-.4.4-.4 1.1 0 1.5z"/><path fill="#91C8E5" stroke="#1D2759" d="M28.4 14.9l1.9 19.9c0 .3-.1.6-.2.8l-1.8 2.1c-.5.6-1.5.4-1.8-.3l-6.2-17.8 8.1-4.7z"/><path fill="#F6F6F6" stroke="#1D2759" d="M7.3 30.9l-.2-.2c-1.4-1.4-1.1-3.4.4-4.9l24-24.7c1.4-1.4 3.8-1.4 5.2 0l.2.2c1.4 1.4 1.4 3.8 0 5.2l-24.7 24c-1.4 1.4-3.4 1.8-4.9.4z"/></g></svg>