<svg xmlns="http://www.w3.org/2000/svg" width="48" height="48" viewBox="0 0 48 48"><g fill="none" transform="translate(1 2)"><path fill="#F6F6F6" stroke="#1D2759" d="M41.4 36.8H20c-.8 0-1.4-.6-1.4-1.4v-9.5c0-.8.6-1.4 1.4-1.4h21.4c.8 0 1.4.6 1.4 1.4v9.5c0 .8-.6 1.4-1.4 1.4z"/><path fill="#91C8E5" stroke="#1D2759" d="M38.1 33.5h-3.8c-.8 0-1.4-.6-1.4-1.4v-2.2c0-.8.6-1.4 1.4-1.4h3.8c.8 0 1.4.6 1.4 1.4v2.2c0 .7-.6 1.4-1.4 1.4zm-11.9 0h-3.8c-.8 0-1.4-.6-1.4-1.4v-2.2c0-.8.6-1.4 1.4-1.4h3.8c.8 0 1.4.6 1.4 1.4v2.2c0 .7-.6 1.4-1.4 1.4z"/><rect width="24.3" height="4.5" x="18.6" y="36.8" fill="#F6F6F6" stroke="#1D2759"/><path fill="#1D2759" d="M44.6 32.5H16.8c-.5 0-.9.4-.9.9V43c0 .5.4.9.9.9h3.1v-4.6c0-.5.4-.9.9-.9h19.8c.5 0 .9.4.9.9v4.6h3.1c.5 0 .9-.4.9-.9v-9.6c0-.5-.4-.9-.9-.9zM5.9 11.4L3.1 7.7c-.2-.2-.5-.3-.8-.3l-.8.3c-.4.1-.6.5-.5.9l1.3 3.9 3.6-1.1zm0 5L3.1 20c-.2.2-.5.4-.8.3l-.8-.2c-.4-.1-.6-.5-.5-.9l1.3-3.9 3.6 1.1z"/><path fill="#FE8200" d="M10.4 4.8c0-.4.3-.7.7-.7h4.2c.4 0 .8.3.8.8 0 .4-.3.7-.7.7h-4.2c-.5 0-.8-.4-.8-.8z"/><path fill="#91C8E5" stroke="#1D2759" d="M18.6 11.3L9.9.6C9.8.4 9.6.3 9.4.3l-2-.1c-.6 0-1 .5-.7 1L12.5 13l6.1-1.7z"/><path fill="#FE8200" d="M10.4 22.9c0 .4.3.7.7.7h4.2c.4 0 .8-.3.8-.8 0-.4-.3-.7-.7-.7h-4.2c-.5.1-.8.4-.8.8z"/><path fill="#91C8E5" stroke="#1D2759" d="M18.6 16.4L9.8 27.1c-.1.2-.3.3-.5.3l-1.9.2c-.6 0-1-.5-.7-1l5.7-11.7 6.2 1.5z"/><path fill="#F6F6F6" stroke="#1D2759" d="M.5 14v-.2c0-1.4 1.1-2.2 2.6-2.2l23.8-.3c1.4 0 2.6 1.1 2.6 2.6v.1c0 1.4-1.1 2.6-2.6 2.6l-23.8-.4C1.6 16.2.5 15.4.5 14z"/></g></svg>