<svg xmlns="http://www.w3.org/2000/svg" width="48" height="48" viewBox="0 0 48 48"><g fill="none" transform="translate(7 7)"><path fill="#F6F6F6" stroke="#1D2759" d="M23.8 30.332H.716A.706.706 0 0 1 0 29.616v-.805A11.8 11.8 0 0 1 11.81 17h.985a11.8 11.8 0 0 1 11.81 11.81v.806c-.09.358-.447.716-.805.716z"/><circle cx="12.437" cy="8.768" r="8.142" fill="#F6F6F6" stroke="#1D2759"/><circle cx="25.411" cy="24.874" r="8.589" fill="#91C8E5" stroke="#1D2759"/><path fill="#1D2759" d="M29.258 24.426v1.342c0 .18-.09.269-.269.269h-2.326c-.179 0-.358.09-.358.268v2.327c0 .179-.09.268-.268.268h-1.342c-.18 0-.358-.09-.358-.268v-2.327c0-.179-.09-.268-.269-.268h-2.326c-.179 0-.358-.09-.358-.269v-1.342c0-.179.18-.268.358-.268h2.326c.18 0 .269-.09.269-.269v-2.326c0-.179.179-.268.358-.268h1.342c.179 0 .268.09.268.268v2.326c0 .18.18.269.358.269h2.326c.18-.09.269.09.269.268z"/></g></svg>