<svg xmlns="http://www.w3.org/2000/svg" width="48" height="48" viewBox="0 0 48 48"><g fill="none" fill-rule="evenodd" transform="translate(7 4)"><path fill="#F6F6F6" fill-rule="nonzero" stroke="#1D2759" d="M1 37.3l.2-34.8C1.2 1.1 2.3 0 3.7 0l26.9.2c1.4 0 2.5 1.1 2.5 2.5l-.2 34.8c0 1.4-1.1 2.5-2.5 2.5l-26.9-.2c-1.4 0-2.6-1.1-2.5-2.5z"/><path stroke="#1D2759" stroke-linecap="round" stroke-width="1.5" d="M13 25.2h11.9M13 29.6h11.9M13 33.9h11.9"/><circle cx="10" cy="25.2" r="1" fill="#1D2759" fill-rule="nonzero"/><circle cx="10" cy="29.6" r="1" fill="#1D2759" fill-rule="nonzero"/><circle cx="10" cy="33.9" r="1" fill="#1D2759" fill-rule="nonzero"/><path fill="#1D2759" fill-rule="nonzero" d="M13.4 14l-2.7-.4c-.2 0-.4.1-.5.2l-.2.4c-.1.2 0 .5.2.6l2.2 1.1 1-1.9zm2.1 2.1l.4 2.7c0 .2-.1.4-.2.5l-.4.2c-.2.1-.5 0-.6-.2l-1.1-2.2 1.9-1z"/><path fill="#FE8200" fill-rule="nonzero" d="M12.5 9.3c-.2-.2-.2-.5 0-.6l1.8-1.8c.2-.2.5-.2.6 0 .2.2.2.5 0 .6l-1.8 1.8c-.2.2-.4.2-.6 0z"/><path fill="#91C8E5" fill-rule="nonzero" stroke="#1D2759" d="M18.7 8.6l-8.2-.8c-.1 0-.2 0-.3.1l-.9.7c-.3.2-.2.6.1.7l7.4 2.6 1.9-3.3z"/><path fill="#FE8200" fill-rule="nonzero" d="M20.2 17c.2.2.5.2.6 0l1.8-1.8c.2-.2.2-.5 0-.6-.2-.2-.5-.2-.6 0l-1.8 1.8c-.2.1-.2.4 0 .6z"/><path fill="#91C8E5" fill-rule="nonzero" stroke="#1D2759" d="M20.9 10.8l.8 8.2c0 .1 0 .2-.1.3l-.7.9c-.2.3-.6.2-.7-.1l-2.6-7.4 3.3-1.9z"/><path fill="#F6F6F6" fill-rule="nonzero" stroke="#1D2759" d="M12.2 17.4c-.7-.7-.5-1.5.1-2.1L22.2 5c.6-.6 1.6-.6 2.2 0l.1.1c.6.6.6 1.6 0 2.2l-10.3 10c-.6.5-1.4.7-2 .1z"/></g></svg>