<svg xmlns="http://www.w3.org/2000/svg" width="48" height="48" viewBox="0 0 48 48"><g fill="none" fill-rule="evenodd" transform="translate(2 13)"><circle cx="37.2" cy="11" r="6.8" fill="#F6F6F6" fill-rule="nonzero" stroke="#1D2759"/><path stroke="#8DC8E8" d="M34.408 11.763h5.6"/><path stroke="#1D2759" stroke-width=".8" d="M40.008 13.363c0 .2-.1.3-.3.3h-5c-.2 0-.3-.1-.3-.3v-3.2c0-.2.1-.3.3-.3h5c.2 0 .3.1.3.3v3.2z"/><path stroke="#1D2759" d="M37.208 9.763v3.9"/><path stroke="#1D2758" stroke-width=".8" d="M36.346 8.163c.4 0 .8.3.8.8v.7h-.8c-.4 0-.7-.3-.7-.7v-.1c-.1-.3.3-.7.7-.7zm1.7 0c-.5 0-.8.3-.8.7v.8h.8c.4 0 .8-.3.8-.8 0-.4-.4-.7-.8-.7z"/><circle cx="6.9" cy="11" r="6.8" fill="#F6F6F6" fill-rule="nonzero" stroke="#1D2759"/><path stroke="#FE8200" stroke-linecap="round" d="M6.9 11c.7 0 1.3.5 1.3 1 0 .6-.6 1-1.3 1-.7 0-1.3-.5-1.3-1m2.5-2c0-.6-.6-1-1.3-1-.7 0-1.3.5-1.3 1 0 .6.6 1 1.3 1m.1 2.7V8.2"/><circle cx="22" cy="11" r="10.9" fill="#F6F6F6" fill-rule="nonzero" stroke="#1D2759"/><path fill="#1D2759" fill-rule="nonzero" d="M18.4 12.8l-2.3-.3c-.2 0-.3.1-.4.2l-.2.3c-.1.2 0 .4.2.5l1.8.9.9-1.6zm1.8 1.8l.3 2.3c0 .2-.1.3-.2.4l-.3.2c-.2.1-.4 0-.5-.2l-1-1.9 1.7-.8z"/><path fill="#FE8200" fill-rule="nonzero" d="M17.7 9c-.1-.1-.1-.4 0-.5L19.2 7c.1-.1.4-.1.5 0 .1.1.1.4 0 .5L18.2 9c-.1.1-.4.1-.5 0z"/><path fill="#91C8E5" fill-rule="nonzero" stroke="#1D2759" d="M22.9 8.3l-6.8-.7c-.1 0-.2 0-.3.1l-.7.6c-.2.2-.2.5.1.6l6.1 2.1 1.6-2.7z"/><path fill="#FE8200" fill-rule="nonzero" d="M24 15.3c.1.1.4.1.5 0l1.5-1.5c.1-.1.1-.4 0-.5-.1-.1-.4-.1-.5 0L24 14.8c-.1.1-.1.4 0 .5z"/><path fill="#91C8E5" fill-rule="nonzero" stroke="#1D2759" d="M24.7 10.1l.7 6.8c0 .1 0 .2-.1.3l-.7.8c-.2.2-.5.2-.6-.1l-2.1-6.1 2.8-1.7z"/><path fill="#F6F6F6" fill-rule="nonzero" stroke="#1D2759" d="M17.4 15.6c-.6-.6-.4-1.2.1-1.7l8.2-8.5c.5-.5 1.3-.5 1.8 0l.1.1c.5.5.5 1.3 0 1.8l-8.5 8.2c-.5.5-1.2.6-1.7.1z"/></g></svg>