<?xml version="1.0" encoding="utf-8"?>
<!-- Generator: Adobe Illustrator 23.1.1, SVG Export Plug-In . SVG Version: 6.00 Build 0)  -->
<svg version="1.1" id="Layer_1" xmlns="http://www.w3.org/2000/svg" xmlns:xlink="http://www.w3.org/1999/xlink" x="0px" y="0px"
	 viewBox="0 0 494.89 819.31" style="enable-background:new 0 0 494.89 819.31;" xml:space="preserve">
<style type="text/css">
	.st0{fill:#0B389C;}
</style>
<path class="st0" d="M236.33,165.78c-0.25-6.08-170,127-170,127s-25-61,109-153l-171,15c0,0,27-60,157-63l-120-71c0,0,65-43,195,51
	c0,0,146-96.63,216-60.82l-132,80.82c0,0,111-17.78,163,56.11l-174-6.11c0,0,136,80,108,151l-163-123c0,0,20,514.44,18,629.44h-28.5
	C243.83,799.22,243.83,349.36,236.33,165.78z"/>
</svg>
