<?xml version="1.0" encoding="UTF-8"?>
<svg width="216px" height="122px" viewBox="0 0 216 122" version="1.1" xmlns="http://www.w3.org/2000/svg" xmlns:xlink="http://www.w3.org/1999/xlink">
    <!-- Generator: Sketch 52.3 (67297) - http://www.bohemiancoding.com/sketch -->
    <title>Fly-Fi</title>
    <desc>Created with Sketch.</desc>
    <defs>
        <polygon id="path-1" points="0.588857091 0.811524452 4.809 0.811524452 4.809 5.0339458 0.588857091 5.0339458"></polygon>
    </defs>
    <g id="Fly-Fi" stroke="none" stroke-width="1" fill="none" fill-rule="evenodd">
        <rect id="Rectangle" fill="#F1F1F1" fill-rule="nonzero" x="0" y="0" width="216" height="122"></rect>
        <g id="Group-22" transform="translate(62.000000, 18.000000)">
            <polygon id="Fill-1" fill="#1A2857" points="0 50.8824 0 77.8824 2.922 77.8824 2.922 65.9754 14.922 65.9754 14.922 63.3964 2.922 63.3964 2.922 53.4614 17 53.4614 17 50.8824"></polygon>
            <g id="Group-21" transform="translate(8.000000, 0.177700)">
                <path d="M17.2778,77.9783 C14.0078,77.9783 12.5248,75.8493 12.5248,72.9983 L12.5248,50.9103 L15.2638,50.9103 L15.2638,72.8823 C15.2638,74.7083 15.8708,75.6213 17.7718,75.6213 L19.2548,75.6213 L19.2548,77.9783 L17.2778,77.9783 Z" id="Fill-2" fill="#1A2857"></path>
                <path d="M26.7075,82.5018 C26.3275,83.5288 25.9095,84.2128 25.3785,84.7078 C24.3885,85.6578 23.0565,85.9998 21.7275,85.9998 L20.5485,85.9998 L20.5485,83.5668 L21.3845,83.5668 C23.2865,83.5668 23.8555,82.9598 24.4635,81.2478 L25.7955,77.5988 L19.0655,59.2728 L22.0295,59.2728 L27.1635,74.2908 L32.2575,59.2728 L35.2235,59.2728 L26.7075,82.5018 Z" id="Fill-4" fill="#1A2857"></path>
                <polygon id="Fill-6" fill="#1A2857" points="37.578 69.007 47.995 69.007 47.995 66.459 37.578 66.459"></polygon>
                <polygon id="Fill-8" fill="#1A2857" points="56.7373 53.494 56.7373 63.456 68.5993 63.456 68.5993 66.041 56.7373 66.041 56.7373 77.978 53.8473 77.978 53.8473 50.91 70.6513 50.91 70.6513 53.494"></polygon>
                <path d="M74.298,53.951 L77.378,53.951 L77.378,50.871 L74.298,50.871 L74.298,53.951 Z M74.45,77.978 L77.186,77.978 L77.186,59.273 L74.45,59.273 L74.45,77.978 Z" id="Fill-10" fill="#1A2857"></path>
                <path d="M36.0239,9.7781 C29.8089,9.7781 24.4569,13.4131 21.9429,18.6661 L25.9129,20.4031 C27.7579,16.7001 31.5679,14.1471 35.9869,14.1471 C40.4369,14.1471 44.2719,16.7361 46.0969,20.4841 L50.1279,18.7201 C47.6229,13.4411 42.2599,9.7781 36.0239,9.7781" id="Fill-12" fill="#E65300"></path>
                <path d="M35.8569,5.2943 C43.9369,5.2943 50.8919,10.1063 54.0189,17.0203 L58.1669,15.2073 C54.3459,6.7283 45.8259,0.8223 35.9199,0.8223 C26.0649,0.8223 17.5809,6.6683 13.7319,15.0813 L17.7779,16.8463 C20.9399,10.0243 27.8449,5.2943 35.8569,5.2943" id="Fill-14" fill="#E65300"></path>
                <path d="M68.6572,26.9456 L42.4282,24.7786 C42.4282,24.7656 42.4312,24.7536 42.4312,24.7406 C42.4312,21.1816 39.5462,18.2966 35.9872,18.2966 C32.4272,18.2966 29.5412,21.1816 29.5412,24.7406 C29.5412,24.7476 29.5422,24.7536 29.5422,24.7606 L3.0982,26.9456 L1.2482,22.7826 L0.8412,22.7826 L2.0122,28.7836 L2.0132,28.7836 L17.9802,28.6676 C17.8312,29.0416 17.7442,29.4476 17.7442,29.8746 C17.7442,31.6856 19.2092,33.1526 21.0192,33.1526 C22.8282,33.1526 24.2962,31.6856 24.2962,29.8746 C24.2962,29.4306 24.2052,29.0096 24.0462,28.6236 L30.8122,28.5746 C31.9882,30.1576 33.8652,31.1886 35.9872,31.1886 C38.1092,31.1886 39.9842,30.1586 41.1592,28.5756 L47.7062,28.6236 C47.5472,29.0096 47.4562,29.4306 47.4562,29.8746 C47.4562,31.6856 48.9232,33.1526 50.7322,33.1526 C52.5452,33.1526 54.0122,31.6856 54.0122,29.8746 C54.0122,29.4476 53.9262,29.0416 53.7752,28.6676 L69.7432,28.7836 L70.9152,22.7826 L70.5072,22.7826 L68.6572,26.9456" id="Fill-16" fill="#1A2857"></path>
                <g id="Group-20" transform="translate(80.000000, 50.000000)">
                    <mask id="mask-2" fill="white">
                        <use xlink:href="#path-1"></use>
                    </mask>
                    <g id="Clip-19"></g>
                    <path d="M2.8027,5.0311 C1.6387,5.0911 0.6477,4.1951 0.5917,3.0281 C0.5317,1.8641 1.4287,0.8731 2.5937,0.8141 C3.7587,0.7571 4.7507,1.6531 4.8067,2.8171 C4.8657,3.9821 3.9707,4.9741 2.8027,5.0311 Z M2.6137,1.2041 C1.6697,1.2511 0.9607,2.0461 1.0097,3.0071 C1.0567,3.9701 1.8417,4.6891 2.7857,4.6411 C3.7297,4.5951 4.4297,3.8011 4.3837,2.8381 C4.3347,1.8771 3.5577,1.1581 2.6137,1.2041 Z M3.1987,4.0371 L2.6877,3.1571 L2.3987,3.1731 L2.4427,4.0751 L2.0227,4.0951 L1.9067,1.8201 L2.7637,1.7761 C3.1947,1.7541 3.5137,2.0581 3.5327,2.4361 C3.5507,2.7601 3.3617,2.9761 3.1157,3.0771 L3.6717,4.0121 L3.1987,4.0371 Z M2.7277,2.1341 L2.3477,2.1521 L2.3807,2.8411 L2.7637,2.8221 C2.9857,2.8091 3.1297,2.6511 3.1197,2.4581 C3.1107,2.2661 2.9507,2.1231 2.7277,2.1341 Z" id="Fill-18" fill="#1A2857" mask="url(#mask-2)"></path>
                </g>
            </g>
        </g>
    </g>
</svg>