<svg xmlns="http://www.w3.org/2000/svg" width="120" height="40" viewBox="0 0 120 40"><g fill-rule="evenodd"><path d="M3.779 4.519H8.26V0H3.78v4.519zm0 4.563H8.26v24.213c0 3.765-2.724 6.291-6.503 6.291H0v-4.254h1.274c1.538 0 2.505-.709 2.505-2.392V9.082zM29.517 22.02v-3.722c0-5.804-4.26-9.48-9.182-9.48-4.306 0-9.183 2.835-9.183 11.562 0 9.215 5.317 11.43 9.886 11.43 2.988 0 5.844-1.063 8.04-3.632l-3.251-2.791c-1.318 1.373-3.163 2.17-4.877 2.17-3.075 0-5.316-1.86-5.316-5.537h13.883zm-13.883-3.722c.088-3.412 2.064-5.228 4.701-5.228 2.636 0 4.57 1.816 4.701 5.228h-9.402zM33.069 2.26h4.482v6.823h3.25v3.456h-3.25v13.069c0 1.24.483 1.683 1.581 1.683h1.67v4.254h-2.329c-3.119 0-5.404-1.994-5.404-5.538V12.538h-2.24V9.082h2.24V2.26zm22.188 1.994c3.428 0 5.053 2.082 5.053 4.519 0 2.481-1.625 4.519-5.053 4.519h-6.854V4.253h6.854zm-11.599 27.29H56.84c4.702 0 8.7-3.499 8.7-8.948 0-3.19-1.67-6.469-5.097-7.266v-.089c3.646-1.64 4.613-4.164 4.613-6.778C65.055 3.5 61.891 0 55.785 0H43.657v31.544zm12.039-13.999c3.514 0 5.097 2.26 5.097 4.74 0 2.482-1.583 4.741-5.097 4.741h-7.294v-9.481h7.294zM68.115 0h4.481v25.74c0 1.019.572 1.55 1.67 1.55h1.538v4.254h-1.977c-3.251 0-5.712-1.418-5.712-5.45V0zm9.578 9.082h4.482v13.38c0 3.057 1.889 4.828 4.437 4.828 2.504 0 4.394-1.771 4.394-4.829V9.082h4.482v22.462h-4.482V29.15h-.087c-1.407 1.773-3.428 2.659-5.757 2.659-3.514 0-7.47-2.703-7.47-7.798V9.082zM116.26 22.02v-3.722c0-5.804-4.261-9.48-9.183-9.48-4.306 0-9.182 2.835-9.182 11.562 0 9.215 5.316 11.43 9.885 11.43 2.988 0 5.844-1.063 8.041-3.632l-3.251-2.791c-1.319 1.373-3.165 2.17-4.877 2.17-3.076 0-5.317-1.86-5.317-5.537h13.884zm-13.884-3.722c.088-3.412 2.065-5.228 4.701-5.228 2.637 0 4.57 1.816 4.702 5.228h-9.403zm15.165-7.804h.273c.318 0 .608-.022.608-.325 0-.27-.263-.331-.52-.331h-.361v.656zm-.394-1.02h.876c.53 0 .793.214.793.695 0 .464-.268.64-.591.679l.662.955h-.46l-.662-.944h-.224v.944h-.394v-2.33zm.75 2.82c.892 0 1.554-.668 1.554-1.6 0-.934-.662-1.602-1.555-1.602-.892 0-1.555.668-1.555 1.601 0 .933.663 1.601 1.555 1.601zm0-3.6a1.99 1.99 0 0 1 1.982 2 1.99 1.99 0 0 1-1.983 1.998 1.99 1.99 0 0 1-1.982-1.999 1.99 1.99 0 0 1 1.982-1.998z"/></g></svg>